<svg width="107" height="114" viewBox="0 0 107 114" fill="none" xmlns="http://www.w3.org/2000/svg">
<path d="M70.5544 20.1864C71.2917 28.7496 71.7842 29.9725 71.0469 38.0487C70.3096 46.1222 71.7842 73.7733 72.0318 85.5156C72.1487 91.1188 72.6575 100.22 73.1581 108.215C75.0626 108.356 76.9507 108.521 78.8279 108.708V12.8461L68.884 7.43766C69.3819 10.2921 70.1055 14.9592 70.5572 20.1864H70.5544ZM42.7495 37.6185C40.7199 40.0048 38.5053 46.9771 38.5053 54.8694C38.5053 62.7616 41.4572 71.3843 42.0122 75.789C42.355 78.5135 42.91 95.3639 43.2827 107.815C45.9136 107.691 48.5662 107.607 51.2379 107.566V26.0575C51.2379 26.0575 50.8679 27.1587 49.7606 29.1771C48.6533 31.1954 44.7791 35.2322 42.7495 37.6185ZM99.5456 42.5535L93.8051 39.4313V75.4859C93.8051 81.8468 92.8202 99.9553 93.5575 109.985C93.5738 110.209 93.5874 110.429 93.6037 110.65C94.8525 110.856 96.0931 111.075 97.3256 111.3C97.7174 107.796 98.2452 104.049 98.9716 100.44C101.431 88.2049 99.7089 85.0258 99.7089 76.4627C99.7089 71.2273 99.6164 54.6475 99.5456 42.5535ZM83.1619 33.644V109.173C85.6051 109.46 88.0183 109.785 90.4043 110.145C90.1676 103.887 90.056 97.7259 90.358 94.8147C91.0953 87.7179 91.8353 81.6006 92.0802 71.8145C92.2652 64.4282 91.8925 46.5902 91.6966 38.2868L83.1619 33.644ZM104.767 45.3917C104.897 54.4229 104.987 64.2523 104.878 70.0991C104.631 83.067 104.386 87.2282 104.141 96.7681C104.035 100.91 103.787 106.982 103.545 112.534C104.633 112.766 105.713 113.007 106.785 113.256V46.4847L104.769 45.389L104.767 45.3917ZM40.5349 29.913C40.3499 34.6829 41.2722 35.9681 41.2722 35.9681C41.2722 35.9681 44.2241 32.4806 45.5164 31.0142C46.8087 29.545 51.2379 26.0602 51.2379 26.0602V17.9868L40.5866 23.7794C40.6219 24.9753 40.6437 27.0424 40.5349 29.9157V29.913ZM62.4333 43.9198C61.696 43.4301 58.4966 39.7613 56.5295 38.7819C55.98 38.5087 55.5474 37.9242 55.2073 37.2316V107.539C58.6353 107.542 62.028 107.618 65.3879 107.761V86.2488C65.3879 78.9085 64.8955 63.4948 64.6507 58.6004C64.4031 53.7059 63.1733 44.4095 62.4361 43.9198H62.4333ZM4.4156 70.7295C4.4156 70.7295 4.5598 66.1949 4.70671 63.5002C4.79649 61.82 4.60605 57.0014 4.44825 53.6112L0 56.0328V67.4882C0.198607 67.6993 0.446186 67.9671 0.778104 68.3215C2.23365 69.88 4.4156 70.7322 4.4156 70.7322V70.7295ZM4.27141 73.1402C3.83611 72.8561 1.94254 70.7295 0.778104 70.164C0.454347 70.0071 0.201328 69.6716 0 69.2739V114C1.9507 113.513 3.93133 113.056 5.93644 112.62C5.98542 111.854 6.01534 111.14 6.01534 110.561V97.6637C6.01534 93.4105 5.72423 84.482 5.57732 81.6466C5.4304 78.8111 4.70399 73.427 4.26869 73.1429L4.27141 73.1402ZM62.6782 39.7613C62.6782 39.7613 62.9258 31.9314 63.1706 27.2832C63.4155 22.635 62.4333 4.03944 62.4333 4.03944L62.6646 4.05838L55.2046 0V34.1554C55.5392 34.5206 55.9664 34.9887 56.5268 35.6028C58.9863 38.2949 62.6782 39.7613 62.6782 39.7613ZM14.8384 47.962L8.02318 51.6686C8.31429 53.2731 8.78768 56.1464 9.07335 59.3931C9.50865 64.3524 9.79976 65.0613 9.36445 69.7393C8.92643 74.4172 9.79976 90.4316 9.94667 97.2362C10.0229 100.78 10.3738 106.741 10.6949 111.643C12.5585 111.286 14.4412 110.948 16.3456 110.634C16.5687 108.21 16.8109 105.602 17.0394 103.132C17.7767 95.1799 16.7945 79.2765 15.8097 71.2003C15.0696 65.1371 14.8874 53.4246 14.8411 47.9593L14.8384 47.962ZM18.6364 48.2028C18.514 51.2628 18.2664 70.9568 19.3737 79.7662C20.0593 85.2234 20.6987 99.6847 21.085 109.906C21.9257 109.787 22.7691 109.668 23.6179 109.557V43.1866L18.6908 45.8679C18.6908 46.4577 18.6745 47.2234 18.6364 48.2028ZM33.7088 66.7983C32.0111 58.6328 33.3524 36.9692 34.0679 27.321L27.6173 30.8302V109.07C30.6997 108.719 33.8258 108.426 36.9871 108.197C36.8756 102.109 36.745 95.437 36.658 92.1253C36.4729 85.153 35.9207 77.4448 33.7061 66.801L33.7088 66.7983Z" fill="#3B4841"/>
</svg>
