<svg width="441" height="114" viewBox="0 0 441 114" fill="none" xmlns="http://www.w3.org/2000/svg">
<path d="M70.5544 20.1864C71.2917 28.7496 71.7842 29.9725 71.0469 38.0487C70.3096 46.1222 71.7842 73.7733 72.0318 85.5156C72.1487 91.1188 72.6575 100.22 73.1581 108.215C75.0626 108.356 76.9507 108.521 78.8279 108.708V12.8461L68.884 7.43766C69.3819 10.2921 70.1055 14.9592 70.5572 20.1864H70.5544ZM42.7495 37.6185C40.7199 40.0048 38.5053 46.9771 38.5053 54.8694C38.5053 62.7616 41.4572 71.3843 42.0122 75.789C42.355 78.5135 42.91 95.3639 43.2827 107.815C45.9136 107.691 48.5662 107.607 51.2379 107.566V26.0575C51.2379 26.0575 50.8679 27.1587 49.7606 29.1771C48.6533 31.1954 44.7791 35.2322 42.7495 37.6185ZM99.5456 42.5535L93.8051 39.4313V75.4859C93.8051 81.8468 92.8202 99.9553 93.5575 109.985C93.5738 110.209 93.5874 110.429 93.6037 110.65C94.8525 110.856 96.0931 111.075 97.3256 111.3C97.7174 107.796 98.2452 104.049 98.9716 100.44C101.431 88.2049 99.7089 85.0258 99.7089 76.4627C99.7089 71.2273 99.6164 54.6475 99.5456 42.5535ZM83.1619 33.644V109.173C85.6051 109.46 88.0183 109.785 90.4043 110.145C90.1676 103.887 90.056 97.7259 90.358 94.8147C91.0953 87.7179 91.8353 81.6006 92.0802 71.8145C92.2652 64.4282 91.8925 46.5902 91.6966 38.2868L83.1619 33.644ZM104.767 45.3917C104.897 54.4229 104.987 64.2523 104.878 70.0991C104.631 83.067 104.386 87.2282 104.141 96.7681C104.035 100.91 103.787 106.982 103.545 112.534C104.633 112.766 105.713 113.007 106.785 113.256V46.4847L104.769 45.389L104.767 45.3917ZM40.5349 29.913C40.3499 34.6829 41.2722 35.9681 41.2722 35.9681C41.2722 35.9681 44.2241 32.4806 45.5164 31.0142C46.8087 29.545 51.2379 26.0602 51.2379 26.0602V17.9868L40.5866 23.7794C40.6219 24.9753 40.6437 27.0424 40.5349 29.9157V29.913ZM62.4333 43.9198C61.696 43.4301 58.4966 39.7613 56.5295 38.7819C55.98 38.5087 55.5474 37.9242 55.2073 37.2316V107.539C58.6353 107.542 62.028 107.618 65.3879 107.761V86.2488C65.3879 78.9085 64.8955 63.4948 64.6507 58.6004C64.4031 53.7059 63.1733 44.4095 62.4361 43.9198H62.4333ZM4.4156 70.7295C4.4156 70.7295 4.5598 66.1949 4.70671 63.5002C4.79649 61.82 4.60605 57.0014 4.44825 53.6112L0 56.0328V67.4882C0.198607 67.6993 0.446186 67.9671 0.778104 68.3215C2.23365 69.88 4.4156 70.7322 4.4156 70.7322V70.7295ZM4.27141 73.1402C3.83611 72.8561 1.94254 70.7295 0.778104 70.164C0.454347 70.0071 0.201328 69.6716 0 69.2739V114C1.9507 113.513 3.93133 113.056 5.93644 112.62C5.98542 111.854 6.01534 111.14 6.01534 110.561V97.6637C6.01534 93.4105 5.72423 84.482 5.57732 81.6466C5.4304 78.8111 4.70399 73.427 4.26869 73.1429L4.27141 73.1402ZM62.6782 39.7613C62.6782 39.7613 62.9258 31.9314 63.1706 27.2832C63.4155 22.635 62.4333 4.03944 62.4333 4.03944L62.6646 4.05838L55.2046 0V34.1554C55.5392 34.5206 55.9664 34.9887 56.5268 35.6028C58.9863 38.2949 62.6782 39.7613 62.6782 39.7613ZM14.8384 47.962L8.02318 51.6686C8.31429 53.2731 8.78768 56.1464 9.07335 59.3931C9.50865 64.3524 9.79976 65.0613 9.36445 69.7393C8.92643 74.4172 9.79976 90.4316 9.94667 97.2362C10.0229 100.78 10.3738 106.741 10.6949 111.643C12.5585 111.286 14.4412 110.948 16.3456 110.634C16.5687 108.21 16.8109 105.602 17.0394 103.132C17.7767 95.1799 16.7945 79.2765 15.8097 71.2003C15.0696 65.1371 14.8874 53.4246 14.8411 47.9593L14.8384 47.962ZM18.6364 48.2028C18.514 51.2628 18.2664 70.9568 19.3737 79.7662C20.0593 85.2234 20.6987 99.6847 21.085 109.906C21.9257 109.787 22.7691 109.668 23.6179 109.557V43.1866L18.6908 45.8679C18.6908 46.4577 18.6745 47.2234 18.6364 48.2028ZM33.7088 66.7983C32.0111 58.6328 33.3524 36.9692 34.0679 27.321L27.6173 30.8302V109.07C30.6997 108.719 33.8258 108.426 36.9871 108.197C36.8756 102.109 36.745 95.437 36.658 92.1253C36.4729 85.153 35.9207 77.4448 33.7061 66.801L33.7088 66.7983Z" fill="#3B4841"/>
<path d="M141.008 25.7166V55.4943H133.33V25.7166H141.008Z" fill="#3B4841"/>
<path d="M169.069 25.7166C172.728 25.7166 175.511 26.742 177.418 28.7901C179.326 30.8382 180.278 33.441 180.278 36.5957C180.278 38.7602 179.78 40.7245 178.781 42.4939C177.783 44.2634 176.311 45.5918 174.366 46.4847L180.855 55.4943H171.681L166 47.5155H162.085V55.4943H154.445V25.7166H169.071H169.069ZM162.082 32.6645V40.6054H168.647C170.081 40.6054 171.142 40.2375 171.833 39.4988C172.524 38.7602 172.87 37.8187 172.87 36.6742C172.87 34.0011 171.463 32.6645 168.647 32.6645H162.082Z" fill="#3B4841"/>
<path d="M195.957 29.6858C199.091 26.6582 202.821 25.1431 207.147 25.1431C211.473 25.1431 215.266 26.6582 218.375 29.6858C221.485 32.7133 223.038 36.3523 223.038 40.6028C223.038 44.8533 221.485 48.4923 218.375 51.5199C215.266 54.5474 211.522 56.0625 207.147 56.0625C202.772 56.0625 199.091 54.5474 195.957 51.5199C192.823 48.4923 191.256 44.8506 191.256 40.6028C191.256 36.355 192.823 32.7133 195.957 29.6858ZM201.39 46.3305C202.976 47.9079 204.897 48.6979 207.15 48.6979C209.403 48.6979 211.386 47.916 212.948 46.3495C214.509 44.7829 215.29 42.8701 215.29 40.6028C215.29 38.3355 214.509 36.4227 212.948 34.8561C211.386 33.2896 209.454 32.5077 207.15 32.5077C204.845 32.5077 202.979 33.2977 201.39 34.8751C199.801 36.4524 199.01 38.3626 199.01 40.6028C199.01 42.843 199.804 44.7505 201.39 46.3305Z" fill="#3B4841"/>
<path d="M235.053 55.4943V25.7166H241.58L254.938 42.3613V25.7166H262.577V55.4943H256.089L242.73 38.8874V55.4943H235.053Z" fill="#3B4841"/>
<path d="M282.079 55.4943L273.672 25.7166H281.847L286.685 43.4679L292.289 25.7166H299.123L304.728 43.43L309.565 25.7166H317.782L309.375 55.4943H301.428L295.709 38.2001L290.028 55.4943H282.081H282.079Z" fill="#3B4841"/>
<path d="M331.463 29.6858C334.597 26.6582 338.327 25.1431 342.653 25.1431C346.979 25.1431 350.771 26.6582 353.881 29.6858C356.991 32.7133 358.544 36.3523 358.544 40.6028C358.544 44.8533 356.991 48.4923 353.881 51.5199C350.771 54.5474 347.028 56.0625 342.653 56.0625C338.278 56.0625 334.597 54.5474 331.463 51.5199C328.329 48.4923 326.762 44.8506 326.762 40.6028C326.762 36.355 328.329 32.7133 331.463 29.6858ZM336.893 46.3305C338.48 47.9079 340.4 48.6979 342.653 48.6979C344.906 48.6979 346.889 47.916 348.451 46.3495C350.012 44.7829 350.793 42.8701 350.793 40.6028C350.793 38.3355 350.012 36.4227 348.451 34.8561C346.889 33.2896 344.957 32.5077 342.653 32.5077C340.349 32.5077 338.482 33.2977 336.893 34.8751C335.305 36.4524 334.513 38.3626 334.513 40.6028C334.513 42.843 335.307 44.7505 336.893 46.3305Z" fill="#3B4841"/>
<path d="M373.84 29.6858C376.974 26.6582 380.704 25.1431 385.03 25.1431C389.356 25.1431 393.148 26.6582 396.258 29.6858C399.368 32.7133 400.921 36.3523 400.921 40.6028C400.921 44.8533 399.368 48.4923 396.258 51.5199C393.148 54.5474 389.405 56.0625 385.03 56.0625C380.655 56.0625 376.974 54.5474 373.84 51.5199C370.706 48.4923 369.139 44.8506 369.139 40.6028C369.139 36.355 370.706 32.7133 373.84 29.6858ZM379.273 46.3305C380.859 47.9079 382.78 48.6979 385.033 48.6979C387.285 48.6979 389.269 47.916 390.83 46.3495C392.392 44.7829 393.173 42.8701 393.173 40.6028C393.173 38.3355 392.392 36.4227 390.83 34.8561C389.269 33.2896 387.337 32.5077 385.033 32.5077C382.728 32.5077 380.862 33.2977 379.273 34.8751C377.684 36.4524 376.893 38.3626 376.893 40.6028C376.893 42.843 377.687 44.7505 379.273 46.3305Z" fill="#3B4841"/>
<path d="M412.939 25.7166H426.836C429.856 25.7166 432.455 26.4038 434.628 27.7782C436.805 29.1526 438.41 30.9465 439.447 33.1623C440.483 35.3755 441 37.8565 441 40.6054C441 43.3543 440.483 45.8732 439.447 48.0891C438.41 50.3022 436.805 52.0906 434.628 53.4515C432.452 54.8125 429.856 55.4943 426.836 55.4943H412.939V25.7166ZM420.617 33.1217V48.1242H426.26C428.485 48.1242 430.207 47.4424 431.423 46.0815C432.64 44.7206 433.246 42.8943 433.246 40.6027C433.246 38.3111 432.64 36.4929 431.423 35.1428C430.207 33.7927 428.488 33.119 426.26 33.119H420.617V33.1217Z" fill="#3B4841"/>
<path d="M133.33 71.5249H148.226C151.349 71.5249 153.746 72.2771 155.424 73.7787C157.1 75.2803 157.938 77.2662 157.938 79.7337C157.938 82.5854 156.722 84.6714 154.293 85.9944C157.62 87.2417 159.282 89.5441 159.282 92.9045C159.282 95.399 158.406 97.4228 156.651 98.9731C154.899 100.526 152.524 101.303 149.532 101.303H133.333V71.5249H133.33ZM141.008 78.4729V83.2076H147.341C149.235 83.2076 150.182 82.4176 150.182 80.8403C150.182 80.1016 149.978 79.5226 149.567 79.1033C149.156 78.6839 148.555 78.4729 147.763 78.4729H141.008ZM141.008 89.1626V94.3925H148.685C150.579 94.3925 151.526 93.5024 151.526 91.7194C151.526 89.9364 150.579 89.1626 148.685 89.1626H141.008Z" fill="#3B4841"/>
<path d="M198.51 71.5249V88.2833C198.51 92.2524 197.294 95.51 194.865 98.0559C192.435 100.602 189.056 101.874 184.73 101.874C180.404 101.874 177.001 100.607 174.596 98.0749C172.191 95.5424 170.988 92.2795 170.988 88.2833V71.5249H178.666V87.8261C178.666 89.9905 179.177 91.6437 180.2 92.7881C181.223 93.9326 182.733 94.5062 184.73 94.5062C186.727 94.5062 188.248 93.9326 189.298 92.7881C190.348 91.6437 190.873 89.9878 190.873 87.8261V71.5249H198.513H198.51Z" fill="#3B4841"/>
<path d="M219.201 71.5249V101.303H211.523V71.5249H219.201Z" fill="#3B4841"/>
<path d="M232.637 71.5249H240.276V93.9353H254.633V101.303H232.637V71.5249Z" fill="#3B4841"/>
<path d="M266.264 71.5249H280.161C283.181 71.5249 285.779 72.2121 287.953 73.5866C290.129 74.961 291.734 76.7548 292.771 78.9707C293.807 81.1839 294.324 83.6649 294.324 86.4138C294.324 89.1626 293.807 91.6815 292.771 93.8974C291.734 96.1106 290.129 97.899 287.953 99.2599C285.776 100.621 283.181 101.303 280.161 101.303H266.264V71.5249ZM273.941 78.9328V93.9353H279.584C281.809 93.9353 283.532 93.2535 284.748 91.8926C285.964 90.5317 286.571 88.7054 286.571 86.4138C286.571 84.1221 285.964 82.304 284.748 80.9539C283.532 79.6038 281.812 78.9301 279.584 78.9301H273.941V78.9328Z" fill="#3B4841"/>
<path d="M306.49 71.5252H329.485V78.9304H314.168V83.2052H326.759V90.1153H314.168V93.9329H329.485V101.3H306.49V71.5225V71.5252Z" fill="#3B4841"/>
<path d="M356.664 71.5249C360.324 71.5249 363.107 72.5503 365.014 74.5985C366.921 76.6466 367.874 79.2494 367.874 82.4041C367.874 84.5686 367.376 86.5328 366.377 88.3023C365.379 90.0717 363.907 91.4002 361.962 92.293L368.45 101.303H359.276L353.596 93.3238H349.681V101.303H342.041V71.5249H356.667H356.664ZM349.675 78.4729V86.4138H356.24C357.674 86.4138 358.735 86.0458 359.426 85.3072C360.117 84.5685 360.463 83.627 360.463 82.4825C360.463 79.8094 359.056 78.4729 356.24 78.4729H349.675Z" fill="#3B4841"/>
<path d="M386.567 92.3688V92.5609C386.567 93.2238 387.008 93.8407 387.892 94.4116C388.776 94.9851 390.023 95.2692 391.636 95.2692C392.966 95.2692 393.932 95.0907 394.533 94.7362C395.135 94.3791 395.437 93.9462 395.437 93.4375C395.437 92.8261 395.058 92.2931 394.305 91.8331C393.551 91.3759 392.226 90.8267 390.333 90.1908C389.13 89.785 388.126 89.4279 387.318 89.1221C386.513 88.8164 385.553 88.3646 384.44 87.7666C383.327 87.1687 382.437 86.5464 381.771 85.8971C381.104 85.2477 380.53 84.4279 380.043 83.435C379.556 82.442 379.314 81.3598 379.314 80.191C379.314 77.3907 380.402 75.1532 382.576 73.473C384.753 71.7928 387.566 70.9541 391.021 70.9541C394.476 70.9541 397.51 71.8334 399.811 73.5893C402.116 75.3453 403.267 77.6748 403.267 80.5752V80.9945H395.782V80.7267C395.782 79.9123 395.379 79.1818 394.571 78.5325C393.766 77.8831 392.634 77.5584 391.173 77.5584C389.971 77.5584 389.062 77.756 388.447 78.151C387.832 78.546 387.525 79.0222 387.525 79.5822C387.525 80.1423 387.87 80.6185 388.562 81.0135C389.253 81.4085 390.558 81.9361 392.477 82.599C393.32 82.9047 393.973 83.1401 394.435 83.3051C394.898 83.4702 395.581 83.7515 396.489 84.1438C397.398 84.5389 398.122 84.9068 398.658 85.2504C399.197 85.594 399.822 86.0513 400.538 86.6249C401.253 87.1985 401.811 87.7775 402.208 88.3619C402.605 88.9463 402.951 89.647 403.245 90.4614C403.539 91.2758 403.686 92.128 403.686 93.0182C403.686 95.8428 402.586 98.0262 400.385 99.5657C398.184 101.105 395.32 101.876 391.786 101.876C388.075 101.876 385.03 101.062 382.65 99.4331C380.269 97.8044 379.08 95.5641 379.08 92.7152V92.3715H386.565L386.567 92.3688Z" fill="#3B4841"/>
</svg>
