<svg width="299" height="152" viewBox="0 0 299 152" fill="none" xmlns="http://www.w3.org/2000/svg">
<path d="M27.5145 144.722H9.81746L6.91649 151.106H0L15.1844 117.258H22.1475L37.332 151.106H30.3689L27.5145 144.722ZM18.664 124.365L12.3767 138.772H24.9475L18.6602 124.365H18.664Z" fill="#3D3E3D"/>
<path d="M73.3536 151.107H65.7614L55.8973 139.79H49.7575V151.107H43.373V117.211C48.74 117.211 54.107 117.258 59.474 117.258C67.4507 117.305 71.6604 122.625 71.6604 128.477C71.6604 133.118 69.5322 137.809 63.1012 139.114L73.3536 150.672V151.107ZM49.7575 123.204V134.035H59.4779C63.54 134.035 65.2798 131.328 65.2798 128.617C65.2798 125.907 63.4895 123.2 59.4779 123.2H49.7575V123.204Z" fill="#3D3E3D"/>
<path d="M109.427 146.85C105.948 150.283 101.45 151.879 96.5651 151.879C83.9942 151.879 78.6738 143.223 78.6272 134.423C78.5806 125.572 84.3321 116.578 96.5651 116.578C101.159 116.578 105.509 118.318 108.992 121.751L104.736 125.86C102.511 123.685 99.5126 122.667 96.5651 122.667C88.3942 122.667 84.8641 128.761 84.9107 134.419C84.9573 140.027 88.2 145.879 96.5651 145.879C99.5126 145.879 102.852 144.671 105.074 142.446L109.427 146.846V146.85Z" fill="#3D3E3D"/>
<path d="M138.201 151.153V137.468H121.568V151.153H115.184V117.305H121.568V131.569H138.201V117.305H144.535V151.153H138.201Z" fill="#3D3E3D"/>
<path d="M154.205 151.106V117.258H160.539V151.106H154.205Z" fill="#3D3E3D"/>
<path d="M178.916 123.06H168.182V117.258H196.034V123.06H185.3V151.106H178.916V123.06Z" fill="#3D3E3D"/>
<path d="M228.768 151.106H203.432V117.258H228.768V123.448H209.766V131.234H228.092V137.18H209.766V144.819H228.768V151.106Z" fill="#3D3E3D"/>
<path d="M267.164 146.85C263.684 150.283 259.187 151.879 254.301 151.879C241.731 151.879 236.41 143.223 236.364 134.423C236.317 125.572 242.068 116.578 254.301 116.578C258.896 116.578 263.245 118.318 266.729 121.751L262.472 125.86C260.247 123.685 257.249 122.667 254.301 122.667C246.131 122.667 242.6 128.761 242.647 134.419C242.694 140.027 245.936 145.879 254.301 145.879C257.249 145.879 260.589 144.671 262.81 142.446L267.164 146.846V146.85Z" fill="#3D3E3D"/>
<path d="M281.623 123.06H270.889V117.258H298.741V123.06H288.007V151.106H281.623V123.06Z" fill="#3D3E3D"/>
<path d="M145.941 39.3393V75.5373H105.607V42.4577L127.704 22.8345L145.941 39.3393Z" fill="#FBB81B"/>
<path d="M125.526 0L88.2134 33.7902V90.2134H74.9785V98.194H162.839V33.7902L125.526 0ZM145.941 43.8795V82.7261H98.4231V39.3553L99.6503 38.2446L122.182 17.8369L123.724 19.231L145.941 39.3553V43.8795Z" fill="#3D3E3D"/>
<path d="M223.27 90.2133V40.4464L194.303 14.6445L141.08 2.14746L171.608 29.0872V98.1939H236.509V90.2133H223.27Z" fill="#F89525"/>
</svg>
