<svg width="80" height="86" viewBox="0 0 80 86" fill="none" xmlns="http://www.w3.org/2000/svg">
<g clip-path="url(#clip0_839_1086)">
<path d="M55.7021 1.23088C54.6279 -0.048042 52.7945 -0.373779 51.3526 0.461924L0 30.1548V34.5442L22.692 21.2584L47.0058 51.1862C47.5931 51.9097 47.9159 52.8202 47.9159 53.7574V65.9912L79.9974 47.2987V33.0543C79.9974 31.1854 79.3359 29.3698 78.1401 27.944L55.7021 1.23088Z" fill="#FF3300"/>
<path d="M40.8248 77.7471V58.2322C40.8248 56.3632 40.1713 54.5423 38.9887 53.1032L21.7415 32.1759C20.6832 30.8917 18.8524 30.5632 17.4237 31.4043L2.4836 40.1832C0.951751 41.083 0.00195312 42.749 0.00195312 44.5406V60.5765C0.00195312 62.3654 0.954397 64.0287 2.48889 64.9232L37.5124 85.3298C39.0469 86.2243 40.9518 86.2243 42.4862 85.3298L77.5097 64.9232C79.0442 64.0287 79.9967 62.3627 79.9967 60.5765V54.9241L40.8221 77.7498L40.8248 77.7471ZM24.4665 65.4785C24.4665 66.7655 23.0828 67.5718 21.9796 66.9257L15.4024 63.0943C13.868 62.1998 12.9155 60.5364 12.9155 58.7475V50.233C12.9155 48.9434 14.2966 48.1397 15.4024 48.7832L21.9796 52.6173C23.5141 53.5117 24.4665 55.1751 24.4665 56.964V65.4785Z" fill="#200300"/>
</g>
<defs>
<clipPath id="clip0_839_1086">
<rect width="80" height="86" fill="white"/>
</clipPath>
</defs>
</svg>
