<svg width="269" height="302" viewBox="0 0 269 302" fill="none" xmlns="http://www.w3.org/2000/svg">
<path d="M268.22 237.62L265.21 215.84V215.82C264.43 210.55 261.6 205.88 257.24 202.65C254.68 200.76 251.66 199.48 248.4 198.88L247.02 194.13C246.77 193.28 246.38 192.45 245.82 191.61C245.39 187.41 243.97 183.36 241.7 179.85C238.62 175.01 233.97 171.29 228.68 169.4C225.93 168.36 223.11 167.82 220.28 167.78C220.17 167.78 220.07 167.78 219.97 167.78C213.68 159.46 204.99 154.39 198.18 151.46C197.73 148.02 196.57 146.61 196.46 146.56C195.97 145.84 195.32 145.26 194.59 144.88C174.23 134.26 154.89 134.43 150.46 134.64C150.46 134.64 150.46 134.64 150.45 134.64C152.16 133.02 153.75 131.06 154.79 128.6C154.82 128.53 154.85 128.46 154.87 128.39C157.99 126.64 162.62 123.28 165.58 117.7C166.08 117.57 166.58 117.44 167.1 117.26C172.09 115.53 176.04 113.34 179.15 110.59C183.09 107.18 185.85 102.64 186.92 97.7699C187.97 92.6499 187.7 87.8799 186.08 83.1299C185.05 80.3199 183.43 77.8999 181.39 76.0999C180.67 75.4699 179.88 74.9199 178.98 74.4299C183.07 63.5799 175.13 53.0399 173.06 50.5399C166.16 25.2899 152.32 22.7299 137.67 20.0299C127.47 18.1499 115.91 16.0099 104.1 6.11991C94.1597 -2.21009 80.6897 -2.02009 68.9197 6.58991C57.7697 14.7499 48.8597 31.0699 55.6597 47.6099C56.3397 49.2499 57.1897 50.8099 58.1897 52.2499C56.7897 57.4799 55.6297 65.6299 59.6197 71.3399C59.6197 71.3599 59.6197 71.3899 59.6097 71.4099C59.2497 73.6299 59.6697 75.6099 60.0197 76.9299C60.4997 78.6899 61.0997 80.2899 61.6597 81.6199C58.6397 86.7599 58.3697 90.8899 58.3697 94.2599C58.2597 96.1799 58.2297 98.1899 58.2597 100.19L58.7897 104.64C59.1697 106.92 59.6297 109.09 60.1497 111.17C59.0897 110.22 58.2897 109.75 58.1897 109.69C56.5397 108.73 54.5297 108.66 52.7997 109.52C51.0697 110.38 49.9097 112.03 49.6997 113.92L48.5797 123.24C48.1297 123.41 47.4597 123.57 46.4797 123.49C45.5597 123.45 44.9097 123.22 44.4497 122.96L45.0097 113.36C45.1297 111.38 44.1997 109.46 42.5697 108.34C40.9497 107.23 38.8197 107.03 36.9897 107.85C32.8997 109.72 25.8997 115.43 25.5997 124.94C25.4197 130.6 27.7997 134.49 29.3697 137.06C29.5897 137.42 30.0397 138.15 30.2897 138.64C24.4797 137.86 20.9397 139.9 19.2597 141.34C16.8097 143.44 15.3997 146.56 15.3197 149.83C11.6197 150.6 8.7997 152.89 7.2197 156.45C5.7297 159.79 6.1697 163.65 8.4097 167.25C3.6797 172.46 4.93969 177.5 5.77969 179.58C6.53969 181.46 7.84969 183.21 9.66969 184.77C10.7597 186.25 12.0397 187.69 13.4797 189.06C8.4997 191.45 0.549695 197.23 0.0396949 206.7C-0.650305 219.58 7.87969 224.55 8.17969 224.71C8.84969 225.12 9.5997 225.37 10.4097 225.47C11.5197 225.62 12.6097 225.41 13.5997 224.92C15.3197 224.06 16.4897 222.41 16.7097 220.51L17.8297 211.2C18.2797 211.03 18.9497 210.89 19.8797 210.93C20.8297 210.99 21.4897 211.22 21.9597 211.48L21.3997 221.06C21.2797 223.03 22.2097 224.96 23.8597 226.09C24.7997 226.73 25.9097 227.07 27.1097 227.09C27.9297 227.08 28.7397 226.9 29.3897 226.58C29.8397 226.38 40.4297 221.5 40.8097 209.49C40.9897 203.85 38.6197 199.97 37.0397 197.37C37.0397 197.36 37.0297 197.35 37.0197 197.34C38.3697 197.17 39.7297 196.9 41.0997 196.53C49.6997 203.22 68.2897 216.63 79.2197 216.63C81.0697 216.63 82.8297 216.35 84.4897 215.79C85.7297 216.23 87.0697 216.19 88.4197 215.58C89.1797 215.26 90.4697 214.68 92.0397 213.81C88.9597 219.55 87.8197 226.69 88.6597 235.13C89.3997 242.24 91.3997 249.51 94.7897 257.34C95.1897 258.28 95.8797 259.06 96.7397 259.59C96.9397 260.09 97.1997 260.59 97.5097 261.05C95.5797 260.69 93.6297 260.58 91.7997 260.75C88.4797 261.02 85.0297 262.21 81.8197 264.2C78.5397 266.26 75.9297 269.18 74.4697 272.45C71.6097 278.83 72.2897 286.55 76.3397 293.15C77.5497 295.02 78.8197 296.43 80.3897 297.61C81.1897 298.19 82.4697 298.96 84.0497 299.34C85.0297 299.58 85.9497 299.72 86.8697 299.8C90.2197 300.1 93.6097 299.77 97.0697 298.78C102.51 296.99 107.64 294.54 113.18 291.1C114.36 290.37 115.55 289.57 116.7 288.81C117.85 288.04 118.97 287.28 119.83 286.62C120 286.62 120.22 286.66 120.87 286.74C123.27 286.99 125.58 286.47 127.14 285.94C130.25 284.81 132.93 283.64 135.97 281.49C137.33 280.45 139.05 278.94 140.2 276.48C140.84 275.11 141.14 273.61 141.07 272.11C141.02 271.23 140.93 270.4 140.8 269.52C140.28 266.35 139.42 263.37 138.15 260.34C137.31 258.5 136.29 256.28 134.5 254.19C134.56 253.55 134.55 252.95 134.45 252.38C134.4 252.08 134.34 251.78 134.26 251.49C142.1 257.79 151.62 263.97 164.58 269.39C162.56 270.56 160.82 271.98 159.4 273.64C156.95 276.48 155.39 280.07 155 283.75C154.57 287.83 155.14 291.38 156.77 294.68C157.25 295.58 157.84 296.62 158.7 297.41C159.24 298.06 160.26 298.82 160.9 299.1C161.52 299.43 162.03 299.61 162.61 299.81C164.47 300.43 166.1 300.66 167.67 300.87C169.81 301.1 171.89 301.22 173.91 301.22C178.11 301.22 182.1 300.72 185.99 299.7C189.23 298.74 192.63 297.44 195.59 294.38C198.15 291.44 199.49 288.38 200.56 285.47C201.49 282.85 202.22 279.96 202.84 276.31L202.96 275.77C203.07 275.51 203.22 275.21 203.4 274.87L203.7 274.27C204.3 273.08 204.69 271.97 204.86 270.96L205.24 268.78C205.53 266.86 205.68 265.03 205.71 263.24L228.4 259.73C228.8 259.67 229.11 259.59 228.95 259.57L265.38 242.39L265.91 242.06C266.11 241.92 266.27 241.78 266.41 241.66C266.55 241.55 266.8 241.34 267.06 241.03L267.54 240.27C267.64 240.1 267.81 239.8 267.94 239.39L268.17 237.76V237.74L268.19 237.59L268.22 237.62ZM197.72 267.77L197.4 269.56C197.33 269.97 197.19 270.29 196.91 270.87C196.64 271.42 196.28 272.06 195.93 272.87C195.56 273.66 195.35 274.89 195.28 275.38C194.83 277.98 194.23 280.53 193.37 282.93C192.54 285.29 191.34 287.67 189.95 289.23C188.62 290.66 186.29 291.67 183.91 292.34C179.06 293.63 173.63 293.96 168.54 293.44C167.28 293.3 166 293.09 164.98 292.77C164.74 292.69 164.48 292.6 164.36 292.53C164.16 292.43 164.28 292.51 164.09 292.32C163.86 292.13 163.57 291.7 163.34 291.26C163.14 290.88 162.97 290.47 162.83 290.05C165.29 290.43 169.18 290.9 173.33 290.9C178.95 290.9 185.03 290.03 188.58 286.87C190.51 285.15 191.6 281.14 192.65 277.25C193.25 275.04 193.87 272.76 194.42 271.93C196.22 269.23 196.89 265.5 196.93 261.83L198.2 261.63C198.2 261.68 198.2 261.73 198.2 261.78C198.07 263.55 197.91 265.61 197.72 267.78V267.77ZM131.67 263.16C132.09 264.2 132.45 265.28 132.77 266.37C129.12 269.75 126.38 270.68 122.39 272.04C118.02 273.52 112.57 275.37 103.65 281.12C94.5897 286.95 84.7197 287.57 81.8297 287.62C79.9297 283.83 79.4397 279.13 81.1197 275.43C82.8897 271.24 87.7497 268.29 92.4397 267.77C97.3097 267.33 101.97 269.34 106.35 272.21L106.43 272.26C106.65 272.4 106.93 272.43 107.18 272.32C107.58 272.14 107.77 271.68 107.59 271.27C106.49 268.74 104.56 266.85 102.24 265.55C102.45 265.4 102.68 265.27 102.88 265.1C103.67 264.46 104.34 263.66 104.88 262.8C104.98 262.63 105.08 262.46 105.17 262.29C105.51 262.32 105.84 262.34 106.17 262.32C107.82 262.2 109.28 261.62 110.45 260.51C110.58 260.39 110.66 260.23 110.69 260.04C110.74 259.62 110.44 259.24 110.02 259.19L109.86 259.17C108.61 259.02 107.42 258.86 106.47 258.55C105.98 258.4 105.59 258.24 105.13 258.03C104.89 257.93 104.66 257.81 104.46 257.7C105.31 257.67 106.16 257.62 107.02 257.55C109.58 257.33 112.13 256.9 114.65 256.25C118.12 255.33 121.54 253.85 124.57 251.73C125.02 252.47 125.9 252.88 126.79 252.7C126.53 252.74 127.29 253.15 127.34 253.64C127.39 253.84 127.45 253.87 127.37 254.03C127.32 254.18 126.85 254.67 126.35 254.98C124.18 256.35 121.23 257.36 118.44 258.49C118.19 258.59 118 258.84 118 259.12C118 259.49 118.3 259.79 118.67 259.79C121.77 259.79 124.83 259.67 128.1 258.4C128.3 258.31 128.5 258.22 128.71 258.12C129.88 259.35 130.91 261.28 131.67 263.16ZM133.7 270.62C133.78 271.24 133.84 271.86 133.87 272.45C133.87 272.76 133.8 273.07 133.63 273.43C133.29 274.14 132.53 274.94 131.58 275.6C129.74 276.89 127.07 278.06 124.81 278.8C123.62 279.15 122.66 279.32 121.67 279.21C121.17 279.18 120.25 278.96 119.06 279.1C117.91 279.26 117.04 279.69 116.27 280.08C113.58 281.68 111.54 283.22 109.2 284.64C104.69 287.46 99.7197 289.89 94.8697 291.48C92.5297 292.15 89.9497 292.39 87.5397 292.22C86.9397 292.18 86.3597 292.09 85.8497 291.98C85.5197 291.9 85.2297 291.76 84.8297 291.49C84.5297 291.27 84.2297 290.99 83.9397 290.69C88.4297 290.39 97.0997 289.08 105.35 283.77C113.95 278.23 119.19 276.45 123.4 275.02C127.03 273.79 130.02 272.77 133.57 269.85C133.61 270.11 133.67 270.36 133.71 270.62H133.7ZM162.27 284.59C162.68 279.85 166.09 276.05 170.67 274.36C172.45 273.72 175.12 273.95 177.39 274.64C179.72 275.41 181.87 276.16 184.05 277.47L184.19 277.56C184.35 277.65 184.54 277.69 184.73 277.65C185.13 277.56 185.39 277.17 185.31 276.76C184.59 273.32 181.42 271.5 178.63 270.62C177.32 270.24 175.97 269.93 174.58 269.79C174.58 269.71 174.58 269.64 174.58 269.56C176.84 268.12 178.4 266.39 179.65 263.96C180.11 263.08 180.57 261.69 180.85 260.07C181.57 259.09 182.26 258.04 182.89 256.91C183.03 259.15 182.88 261.42 182.27 263.7C182.19 264.01 182.3 264.36 182.57 264.55C182.92 264.8 183.41 264.71 183.65 264.36C185.45 261.79 186.43 258.55 186.55 255.36C186.63 253.69 186.65 252.32 186.28 250.46C186.21 250.16 186.12 249.86 186.03 249.57C187.1 249.8 188.19 250.15 189.21 250.56C189.98 250.87 190.73 251.23 191.47 251.62L192.62 260.22C192.7 260.81 193.01 261.34 193.49 261.7C193.57 261.76 193.66 261.81 193.74 261.86C193.72 264.95 193.22 268.06 191.79 270.2C190.95 271.46 190.32 273.77 189.6 276.45C188.8 279.4 187.71 283.44 186.47 284.54C181.43 289.03 168.34 287.85 162.21 286.78C162.17 286.05 162.19 285.32 162.26 284.62L162.27 284.59ZM51.8397 187.5C52.0097 187.29 52.0697 186.98 51.9597 186.71C51.7997 186.31 51.3397 186.13 50.9497 186.29C47.6497 187.54 44.4697 188.24 41.0897 188.94C38.9797 189.41 36.9697 189.74 34.9797 189.79L37.6797 181.08C37.8097 181.79 38.0197 182.46 38.2997 183.04C38.9397 184.39 39.7697 185.41 40.5297 186.44C40.6397 186.59 40.8297 186.67 41.0197 186.64C41.2997 186.6 41.4897 186.34 41.4497 186.06C41.2497 184.77 41.0197 183.5 41.0897 182.39C41.1497 181.27 41.5297 180.45 42.0897 179.8C42.2797 179.58 42.4197 179.31 42.5297 179.02C44.1497 178.42 45.5897 177.39 46.6397 176.24C49.9497 172.55 51.4297 168.17 50.9497 163.66C50.9197 163.39 50.7697 163.12 50.5197 162.97C50.0797 162.7 49.4997 162.83 49.2297 163.27L49.1697 163.36C46.9797 166.86 45.6897 170.64 43.3497 173.08C42.1797 174.26 40.8897 174.9 39.4897 174.88C38.1997 174.86 35.9797 174.28 35.0397 173.52C33.9797 172.71 33.7297 172 34.0097 170.69C34.3697 169.37 35.2597 168.07 36.6197 166.98C40.3597 163.55 42.0797 159.61 44.1797 156.17C45.1697 154.47 46.2197 152.76 47.2697 151.78C47.7997 151.28 48.1897 151.16 48.3497 151.15C48.5097 151.1 48.9197 151.23 49.4897 151.63C50.6097 152.46 51.8497 154.03 52.8697 155.57C53.8997 157.12 54.7397 158.79 55.3897 160.55C56.6897 164.06 57.1697 167.91 56.8597 171.7C56.4997 175.54 55.7297 179.17 54.9997 183.32C54.9597 183.53 55.0097 183.77 55.1597 183.95C55.4197 184.26 55.8897 184.29 56.1997 184.03C57.8597 182.61 59.0597 180.83 59.9197 178.88C63.4197 180.38 69.4397 182.49 73.7697 182.49C74.1797 182.49 74.5897 182.46 74.9897 182.41C75.8197 183.67 76.7397 185.2 77.6497 187.01C77.0797 186.48 81.5797 201.24 79.8297 208.54C70.8097 207.94 54.6197 197.18 46.8497 191.45C48.7197 190.45 50.4697 189.19 51.8397 187.53V187.5ZM30.8297 146.34C30.2497 147.11 29.4197 148.65 30.1497 150.45C31.6597 154.2 36.7197 154.72 38.7697 154.77C37.5297 157.01 36.3497 159.22 35.0397 161.02C28.7297 160.44 24.1097 155.98 22.9197 151.09C22.6197 149.84 22.8797 148.1 24.1497 147.01C25.5497 145.8 27.8697 145.58 30.8197 146.33L30.8297 146.34ZM59.2197 127.35C58.8397 134.51 51.0297 138.65 48.3297 139.53C45.9797 140.3 44.9597 142.39 44.7597 143.37L43.2497 148.23C42.9197 148.57 42.5997 148.91 42.3197 149.25L44.1997 143.2C44.2297 143.06 44.2597 142.86 44.3097 142.64L40.8197 141.73L39.5797 145.76C39.3297 146.54 38.7897 148.28 38.0697 150.6C36.7697 150.18 35.4897 149.43 34.8697 148.48C36.1297 144.43 37.0497 141.46 37.3597 140.51C38.2297 137.78 36.8397 135.51 35.4997 133.32C34.1097 131.04 32.6697 128.69 32.7797 125.17C32.9297 120.44 35.6397 117.44 37.6997 115.83L37.1697 124.89C37.1497 125.15 37.2097 125.41 37.3297 125.65C37.4297 125.84 39.7297 130.29 46.1097 130.66C52.5197 131 55.1297 127.05 55.2297 126.89C55.3497 126.7 55.4297 126.49 55.4497 126.26L56.4797 117.65C57.8697 119.36 59.4797 122.43 59.2197 127.36V127.35ZM102.26 151.49C102.93 151.49 103.61 151.45 104.32 151.39C104.63 151.46 104.96 151.47 105.29 151.39C105.6 151.31 105.91 151.23 106.23 151.15C106.5 151.11 106.76 151.06 107.04 151.01L108.8 156.16C102.31 153.6 96.1197 154.37 92.1597 155.44C92.9297 153.2 93.9797 151.47 94.9597 150.19C97.4197 151.04 99.7297 151.5 102.27 151.5L102.26 151.49ZM140.98 138.07C146 139.74 152.68 145.53 154.9 148.42C148.73 148.21 138.34 148.97 132.21 155.12C129.84 157.5 127.49 159.16 125.38 160.32C128.37 156.44 133.84 147.41 135.51 140.88C136.41 140.45 137.32 140.03 138.21 139.58C139.14 139.11 140.06 138.6 140.98 138.07ZM118.09 161.29L114.14 153.72L126.98 144.53C127.91 144.17 128.84 143.8 129.77 143.42C129.43 144.29 129.04 145.15 128.63 146.01C127.13 149.11 125.2 152.12 123.31 154.74C121.37 157.43 119.47 159.71 118.09 161.28V161.29ZM32.2797 164.02C30.8697 165.47 29.6597 167.33 29.1397 169.56C29.1097 169.67 29.0997 169.8 29.0797 169.91C23.0497 170.21 17.8697 167.29 15.3897 164.13C14.0297 162.39 13.5497 160.7 14.0897 159.48C15.4897 156.33 19.0597 156.89 20.6097 157.3C23.0797 160.85 27.0997 163.19 32.2797 164.02ZM15.6697 170.72C18.5797 172.73 22.3397 174.25 26.5197 174.59C27.5497 174.67 28.6197 174.68 29.6997 174.6C30.0197 175.25 30.4297 175.83 30.8997 176.34C30.8997 176.42 30.8997 176.5 30.9097 176.58C31.0397 177.49 32.0697 180.96 25.7197 182.27C20.9997 183.24 14.2097 180.34 12.7397 176.73C11.8097 174.44 13.5797 172.31 15.6697 170.7V170.72ZM7.2297 207.07C7.6097 199.91 15.4097 195.77 18.1197 194.89C18.2397 194.85 18.3397 194.8 18.4597 194.75C21.2697 194.09 24.0697 194.78 24.0697 194.78C22.8597 193.71 21.8197 193.06 20.9797 192.66C21.3697 192.06 21.6097 191.45 21.7197 191C21.8097 190.7 22.2497 189.29 22.9097 187.14C24.2397 187.22 25.5197 187.15 26.6797 186.91C27.1397 186.82 27.5597 186.7 27.9697 186.59C27.8197 187.42 27.6297 188.34 27.3797 189.37C26.8297 191.63 23.3897 192.72 23.3897 192.72L28.4597 194.14C28.4897 194.01 28.5097 193.88 28.5497 193.75L31.1597 185.33C31.4197 185.19 31.6797 185.04 31.9097 184.89L29.1097 193.93C28.2397 196.66 29.6197 198.93 30.9697 201.12C32.3597 203.4 33.7997 205.75 33.6897 209.27C33.5397 214 30.8297 217 28.7697 218.61L29.3097 209.55C29.3297 209.29 29.2697 209.03 29.1497 208.79C29.0497 208.6 26.7497 204.15 20.3697 203.78C20.0697 203.76 19.7897 203.75 19.5097 203.76C13.7397 203.77 11.3497 207.4 11.2497 207.56C11.1297 207.75 11.0497 207.96 11.0297 208.19L9.99969 216.8C8.60969 215.09 6.9997 212.02 7.2597 207.09L7.2297 207.07ZM93.0497 203.39C92.0297 204.15 91.0497 204.83 90.1997 205.42C89.4097 205.96 88.7297 206.43 88.2297 206.82C86.4097 190.4 79.7897 180.48 76.5297 176.5C77.7697 175.47 78.9797 174.35 80.1297 173.2C80.7897 172.54 81.4397 171.87 82.0697 171.2C85.6697 167.34 88.5997 163.41 90.2797 161.04C92.5497 159.99 105.24 154.93 115.77 166.91C115.9 167.05 116.04 167.18 116.19 167.28C116.22 167.3 116.26 167.32 116.29 167.34C116.42 167.42 116.56 167.49 116.7 167.55C116.44 171.62 116.74 175.75 117.77 179.74C118.38 182.21 119.22 184.64 120.43 186.89C121.62 189.15 123.12 191.24 125.15 192.88C125.28 192.99 125.47 193.01 125.62 192.92C125.83 192.81 125.9 192.55 125.79 192.34L125.76 192.29C123.46 188.08 121.93 183.6 120.93 179.02C120.2 175.2 119.92 171.31 119.94 167.39C123.18 166.72 129.31 164.69 135.51 158.47C142.75 151.22 158.96 153.47 159.11 153.49C159.99 153.6 160.86 153.24 161.37 152.53C161.88 151.81 161.96 150.87 161.55 150.09C161.42 149.84 158.89 146.1 155 142.16C160.52 142.34 170.16 143.28 180.95 147.14C181.82 147.45 182.7 147.79 183.58 148.13C185.17 148.76 186.78 149.45 188.4 150.22C185.11 154.48 179.19 164.32 178.6 180.51C177.83 180.29 176.91 180.05 175.9 179.83C175.04 179.64 174.08 179.45 173.07 179.28C171.05 178.94 168.75 178.67 166.23 178.57C166.23 178.57 166.23 178.57 166.23 178.56C165.71 176.35 162.66 170.44 161.85 168.15V168.11C161.78 167.94 161.64 167.79 161.46 167.72C161.13 167.59 160.75 167.76 160.62 168.09C160.14 169.33 161.36 176.23 162.88 182.9V183.24C162.88 183.24 162.93 183.24 162.96 183.24C163.67 186.34 164.45 189.35 165.15 191.71C165.26 193.18 165.98 196.4 168.12 197.51C169.44 198.23 172.38 199.69 173.8 199.9C174.36 199.99 176.17 205.84 164.73 203.46C153.86 201.56 147.37 201.44 143 202.12C136.39 202.68 133.03 204.79 131.43 206.32C122.32 203.89 120.4 203.5 116.63 203.23C114.24 203.02 111.8 203.21 109.44 203.76C101.39 184.26 100.15 163.81 100.19 163.6L99.0897 161.75C98.9697 162.5 97.2697 174.57 101.78 193.59C101.4 193.84 101.09 194.2 100.9 194.64C99.3797 198.21 96.0197 201.17 93.0097 203.41L93.0497 203.39ZM213.94 172.24C213.64 172.47 213.35 172.72 213.09 173.01C212.94 173.17 212.85 173.39 212.84 173.63C212.81 174.18 213.23 174.65 213.78 174.67H213.87C216.24 174.79 218.06 174.34 220.14 174.47C222.18 174.6 224.22 175.12 226.13 175.95C229.97 177.63 233.29 180.33 235.51 183.82C237.74 187.28 238.84 191.52 238.52 195.54C238.35 197.51 237.87 199.6 236.93 200.9C236.41 201.74 235.61 202.24 234.78 202.44C234.83 201.99 234.87 201.54 234.89 201.11C235.15 197.69 233.92 194.43 232.64 191.67C231.15 188.95 229.59 185.99 226.29 184.48C225.99 184.34 225.63 184.4 225.39 184.66C225.09 184.98 225.11 185.47 225.42 185.77L225.55 185.89C227.36 187.6 228.39 190.42 229.21 193.04C230.1 195.76 230.53 198.35 230.39 200.89C230.27 203.09 229.58 205.12 228.38 206.47C226.77 207.18 224.99 207.97 223.12 208.8C223.87 206.62 224.13 204.31 223.98 202.19C223.72 197.01 221.14 191.92 216.73 189.2C216.4 189 215.98 189 215.65 189.23C215.2 189.54 215.09 190.16 215.41 190.61L215.5 190.73C217.97 194.26 219.45 198.32 219.59 202.39C219.86 206.29 218.51 210.13 215.65 212.11C214.88 212.45 214.12 212.79 213.36 213.13C210.6 213.56 206.87 212.05 205.31 209.92C204.37 208.66 204.86 207.13 206.2 205.66C207.3 204.28 209.32 204.13 211.14 205.03L211.25 205.08C211.59 205.25 212.01 205.17 212.26 204.86C212.55 204.51 212.5 203.98 212.15 203.69C211.88 203.47 211.6 203.26 211.31 203.08C210.7 201.78 208.89 197.44 209.65 193.49C209.9 192.17 205.9 190.67 203.44 193.45C202.79 194.18 201.91 196.33 203.06 197.35C204.24 198.4 204.74 198.6 203.74 199.02C203.24 199.23 202.88 199.49 202.57 199.76C201.94 200.14 201.39 200.56 200.91 201C200.25 200.39 199.67 199.65 199.18 198.81C198.09 196.93 197.71 194.73 197.51 192.29C197.31 189.88 197.6 187.55 198.36 185.62C199.1 183.66 200.6 182.09 202.81 180.65C203.07 180.47 203.25 180.16 203.22 179.82C203.18 179.32 202.75 178.93 202.24 178.97C199.86 179.12 197.2 180.36 195.47 182.49H195.05C191.84 181.36 189.25 180.73 187.24 180.39C185.6 172.46 188.67 158.85 188.68 158.77C189.12 157.9 189.56 157.1 189.98 156.38C193.98 157.65 206.3 162.22 213.94 172.22V172.24ZM243.18 206.72C243.18 206.72 243.22 206.77 243.3 206.84C243.55 207.03 244.24 207.37 245.68 207C245.7 207 245.72 207 245.74 206.99C246.74 206.72 247.14 206.3 247.31 205.98C249.35 206.39 251.27 207.22 252.96 208.47C255.31 210.2 256.95 212.58 257.72 215.25L256.38 215.83L246.15 220.29L245.5 217.9C245.42 217.59 245.2 217.33 244.91 217.19C244.62 217.05 244.28 217.04 243.99 217.17L238.62 219.49C238.11 219.71 237.85 220.27 237.99 220.8L238.73 223.52L226.15 229C225.05 225.61 222.92 222.63 219.94 220.43C218.22 219.16 216.28 218.23 214.23 217.61C218.79 215.59 223.69 213.41 227.87 211.56C230.77 210.27 233.33 209.14 235.16 208.34L236.31 207.82C238.24 206.95 240.07 206.13 241.93 205.84C242.25 205.79 242.57 205.77 242.89 205.74L243.18 206.72ZM259.67 237.17L229.46 251.52L227.04 233.45L239.91 227.84L241.15 232.42C241.23 232.73 241.45 232.99 241.74 233.13C241.91 233.21 242.1 233.25 242.29 233.24C242.42 233.24 242.54 233.2 242.66 233.15L248.03 230.84C248.54 230.62 248.8 230.06 248.66 229.53L247.32 224.61L257.18 220.32L258.47 219.76L260.8 236.64L259.66 237.18L259.67 237.17ZM201.81 201.42C202.93 200.56 204.22 199.83 205.66 199.78C205.73 199.78 205.79 199.83 205.79 199.9C205.79 199.95 205.77 199.99 205.73 200.02C204.56 200.71 203.47 201.4 202.48 202.23C201.52 203.07 200.87 204.15 200.57 205.34C199.89 207.75 201.25 210.33 201.31 213.11C201.31 213.18 201.26 213.25 201.19 213.26C201.14 213.26 201.08 213.23 201.06 213.19C200.44 211.96 200.03 210.66 199.61 209.36C199.22 208.01 199.07 206.51 199.41 205.06C199.73 203.59 200.7 202.34 201.82 201.44L201.81 201.42ZM190.03 192.54C190.05 196.16 191.02 199.75 192.75 202.63C193.51 203.92 194.43 205.04 195.6 206.07C195.48 207.37 195.6 208.63 195.96 209.88L197.95 216.73C197.44 217.01 196.97 217.29 196.57 217.56C196.57 217.56 193.18 219.68 190.33 223.48C187.26 227.56 186.1 232.72 186.85 237.81L187.48 242.48C186.36 242.26 185.17 242.12 183.91 242.12C183.63 242.12 183.34 242.13 183.05 242.14C182.55 241.92 182.04 241.72 181.43 241.55C179.4 240.21 177.44 238.87 175.69 237.61C178.71 235 180.17 231.71 181.35 225.68C181.45 225.17 181.53 224.67 181.6 224.18H181.61C181.62 224.1 181.63 223.99 181.64 223.91C182.38 218.22 181.13 213.92 179.49 210.89C181.47 208.91 182.64 206.62 182.96 204.15C183.14 203.36 183.23 202.58 183.2 201.5C183.09 200.02 182.64 198.64 181.83 197.28C180.29 194.7 177.67 192.95 174.77 192.59C174.44 192.55 174.09 192.46 173.68 192.3C173.25 191.43 172.55 189.76 171.52 186.57C175.83 187.26 178.65 188.33 179.02 188.47C180.61 189.11 182.47 188.91 183.83 187.98C184.21 187.72 184.54 187.42 184.83 187.08C186.03 187.22 187.84 187.55 190.28 188.27C190.04 189.92 190.02 191.42 190.03 192.54ZM161.3 209.25C163.91 209.51 168.98 209.82 171.64 209.37L171.75 209.76C169.22 210.82 163.97 210.96 161.18 210.84C158.35 210.76 155.73 210.1 153.07 209.76C147.78 208.98 142.13 206.9 136.92 207.84C142.34 206.59 148.03 206.85 153.38 207.85C156.07 208.29 158.72 208.94 161.29 209.25H161.3ZM99.7297 215.24C100.7 213.82 101.89 212.56 103.23 211.49C101.38 213.48 100.12 215.81 99.2897 218.3C99.5097 218.2 99.7297 218.16 99.9397 218.2C101.21 218.45 101.69 221.41 101.01 224.79C100.4 227.83 99.0697 230.18 97.8797 230.44C97.9497 231.99 98.0797 233.47 98.2397 234.8C98.9897 240.97 100.64 247.25 102.96 253.07C102.34 253.07 101.72 253.05 101.12 253.01C98.7197 247.08 97.0397 240.64 96.2697 234.33C95.9097 231.26 95.8397 228.13 96.2097 225.12C96.2097 225.1 96.2097 225.08 96.2097 225.05C96.6597 221.48 97.7397 218.09 99.7197 215.24H99.7297ZM142.08 243.22C148.48 243.22 159.43 243.19 166.92 239.68C166.96 239.71 167 239.74 167.03 239.78C157.88 245.87 143.21 245.16 136.69 244.46C135.98 243.87 135.29 243.27 134.6 242.68C136.88 243 139.39 243.22 142.07 243.22H142.08ZM198.81 257.04L196.73 257.36L193.99 236.83C192.92 229.52 198.43 222.59 206.28 221.38C206.36 221.37 206.45 221.36 206.53 221.35C206.93 221.3 207.33 221.25 207.72 221.22C211.18 221.02 214.61 221.99 217.31 223.99C219.45 225.57 221.01 227.68 221.85 230.06L196.25 234.13C196.2 235.23 196.26 236.18 196.3 236.87C196.32 237.24 196.38 237.84 196.46 238.59L222.7 234.41L225.18 252.95L198.81 257.03V257.04ZM240.39 221.13L243.71 219.7L244.57 222.87L241.22 224.17L240.39 221.12V221.13ZM246.28 229.17L242.96 230.6L241.8 226.33L245.15 225.03L246.28 229.17ZM174.11 104.84C168.87 109.45 161.31 111.92 154.08 112.86C153.73 111.66 153.22 110.53 152.37 109.49C152.27 109.37 152.13 109.28 151.97 109.24C151.57 109.15 151.18 109.39 151.08 109.79V109.82C150.34 112.93 150.48 115.24 150.07 117.97C149.71 120.67 149.11 123.35 148.05 125.61C146.07 129.71 140.72 132.58 135.92 135.1C133.61 136.28 131.23 137.37 128.82 138.4L128.79 138.34C128.14 138.63 127.52 138.91 126.9 139.19C124.73 140.08 122.54 140.93 120.33 141.73C115.12 143.7 109.77 145.45 104.48 147.13C100.49 147.6 97.6597 146.83 94.1597 145.34C91.7197 144.31 70.2297 134.33 65.4397 101.81C65.1497 99.8799 65.2197 96.0399 65.4497 93.2299C66.2997 89.2999 66.9697 86.7499 69.3097 83.6599L69.3997 83.5499C69.9297 82.8399 70.0497 81.8699 69.6297 81.0299C68.6797 79.1199 67.7697 76.9999 67.2097 75.0299C66.9197 73.9799 66.7897 73.1999 66.9097 72.4999C66.9997 71.6499 67.3397 70.5799 67.6597 69.5699C68.8897 66.0899 70.5697 62.5699 72.3597 59.1599C72.6797 59.2599 72.9997 59.3599 73.3197 59.4499C82.6097 62.0299 93.0397 59.6599 93.1097 58.5899C93.1897 57.4199 88.3197 55.7799 85.7697 53.8999C83.5897 52.2899 83.5197 50.3399 83.5197 50.3399C83.5197 50.3399 93.3297 54.3899 102.69 54.9799C122.04 56.1999 140.89 52.8299 142.96 56.6199C143.73 58.0199 144.36 71.4399 144.36 71.4399L148.03 71.8099C148.03 71.8099 144.62 89.0999 151.2 100.94C151.26 101.21 151.45 101.44 151.73 101.53C152.14 101.67 152.59 101.44 152.73 101.02L152.75 100.95C155.13 93.6699 156.74 85.6599 162.63 81.7699C165.43 79.8299 168.94 79.1599 172.22 79.7899C175.44 80.4099 177.78 82.5899 178.83 85.7899C179.94 88.9399 180.12 92.8099 179.41 96.1299C178.66 99.4999 176.77 102.49 174.11 104.83V104.84ZM76.2697 16.3099C74.2297 17.9399 72.4397 19.7199 70.9197 21.7099C69.4197 23.7099 68.1097 25.8499 67.0897 28.1299C65.0397 32.6999 63.6897 37.6799 63.5297 42.8799C63.5297 43.0899 63.3697 43.2599 63.1597 43.2699C62.9997 43.2699 62.8497 43.1599 62.7997 43.0199C61.8697 40.3999 61.7997 37.5699 62.0597 34.8299C62.3097 32.0799 63.0597 29.3699 64.1597 26.8099C65.2997 24.2599 66.8297 21.8599 68.8197 19.8699C70.7797 17.8799 73.1197 16.2199 75.7497 15.3399C76.0397 15.2399 76.3597 15.3999 76.4497 15.6899C76.5297 15.9199 76.4497 16.1599 76.2697 16.2999V16.3099ZM66.3897 127.54C72.7497 139.39 81.1197 145.99 86.6897 149.33C85.4897 151.62 84.6197 154.12 84.0897 156.81C81.6297 160.28 75.9997 167.71 70.0597 172.05C69.2797 172.62 68.6897 173.39 68.3397 174.27C66.8997 173.89 65.4897 173.41 64.3097 172.93C64.3297 172.76 64.3497 172.59 64.3697 172.43C64.8997 167.51 64.3697 162.5 62.8297 157.97C62.0297 155.61 60.9597 153.35 59.6197 151.21C58.3397 149.23 56.8697 147.14 54.2297 145.07C54.1297 145 54.0397 144.93 53.9397 144.86C58.9197 142.22 65.9097 136.6 66.3797 127.72C66.3797 127.66 66.3797 127.6 66.3797 127.54H66.3897Z" fill="#16205B"/>
<path d="M101.819 193.57C97.3094 174.55 99.0094 162.48 99.1294 161.73L100.229 163.58C100.199 163.79 101.439 184.24 109.479 203.74C111.839 203.19 114.279 202.99 116.669 203.21C120.439 203.48 122.359 203.87 131.469 206.3C133.069 204.77 136.419 202.66 143.039 202.1C147.399 201.42 153.899 201.54 164.769 203.44C176.199 205.81 174.389 199.97 173.839 199.88C172.419 199.67 169.479 198.22 168.159 197.49C166.029 196.38 165.299 193.16 165.189 191.69C164.489 189.33 163.719 186.32 162.999 183.22C162.979 183.22 162.949 183.22 162.929 183.22V182.88C161.399 176.21 160.179 169.31 160.659 168.07C160.789 167.74 161.159 167.57 161.499 167.7C161.679 167.77 161.819 167.91 161.879 168.09V168.13C162.709 170.42 165.749 176.32 166.269 178.54C166.269 178.54 166.269 178.54 166.269 178.55C168.789 178.65 171.089 178.92 173.109 179.26C171.959 164.7 178.469 151.59 180.989 147.12C170.199 143.27 160.559 142.32 155.039 142.14C158.929 146.08 161.459 149.83 161.589 150.07C161.989 150.86 161.919 151.8 161.409 152.51C160.899 153.22 160.029 153.58 159.149 153.47C158.989 153.45 142.779 151.2 135.549 158.45C129.349 164.67 123.219 166.7 119.979 167.37C119.949 171.29 120.229 175.19 120.969 179C121.959 183.58 123.499 188.06 125.799 192.27L125.829 192.32C125.939 192.53 125.869 192.79 125.659 192.9C125.499 192.99 125.319 192.96 125.189 192.86C123.159 191.22 121.659 189.12 120.469 186.87C119.249 184.62 118.419 182.19 117.809 179.72C116.779 175.74 116.479 171.6 116.739 167.53C116.599 167.48 116.459 167.4 116.329 167.32C116.299 167.3 116.259 167.29 116.229 167.26C116.079 167.15 115.939 167.03 115.809 166.89C105.279 154.91 92.5894 159.97 90.3194 161.02C88.6494 163.39 85.7094 167.32 82.1094 171.18C84.7294 174.09 93.4094 185.15 93.0794 203.38C96.0794 201.14 99.4494 198.18 100.969 194.61C101.159 194.16 101.469 193.8 101.849 193.56L101.819 193.57ZM155.119 185.23C155.119 185.23 146.519 187.36 143.409 186.99C138.299 186.38 139.029 178.33 138.309 174.31C142.879 174.15 149.229 172.87 152.099 171.98C152.489 174.77 153.309 182.36 155.119 185.23ZM137.859 169.64C137.859 169.64 143.289 169.73 151.789 166.39C151.789 166.39 151.709 167.21 151.819 169.33C145.269 171.53 140.129 172.24 138.029 172.44C137.849 170.8 137.859 169.64 137.859 169.64ZM121.629 172.74C121.299 171.25 121.969 169.83 123.119 169.58C124.269 169.33 125.459 170.34 125.789 171.83C126.119 173.32 125.449 174.74 124.299 174.99C123.149 175.24 121.959 174.23 121.629 172.74ZM123.599 181.89C123.269 180.4 123.939 178.98 125.089 178.73C126.239 178.48 127.429 179.49 127.759 180.98C128.089 182.47 127.419 183.89 126.269 184.14C125.119 184.39 123.929 183.38 123.599 181.89Z" fill="#0372FF"/>
<path d="M123.299 154.75C125.189 152.12 127.119 149.12 128.619 146.02L123.299 154.75Z" fill="#0372FF"/>
<path d="M175.94 179.8C176.95 180.03 177.87 180.26 178.64 180.48C179.24 164.29 185.15 154.46 188.44 150.19C186.82 149.42 185.21 148.73 183.62 148.1C181.43 151.96 174.54 165.41 175.94 179.79V179.8Z" fill="#F15928"/>
<path d="M173.109 179.25C174.129 179.42 175.079 179.61 175.939 179.8C174.539 165.42 181.419 151.96 183.619 148.11C182.739 147.76 181.859 147.43 180.989 147.12C178.469 151.58 171.969 164.7 173.109 179.26V179.25Z" fill="#E1EAF9"/>
<path d="M80.1391 173.19C78.9791 174.34 77.7791 175.46 76.5391 176.49C79.7991 180.47 86.4291 190.39 88.2391 206.81C88.7391 206.42 89.4191 205.95 90.2091 205.41C91.2291 187.38 82.6891 176.12 80.1491 173.18L80.1391 173.19Z" fill="#F15928"/>
<path d="M82.0904 171.19C81.4604 171.86 80.8104 172.53 80.1504 173.19C82.7004 176.13 91.2304 187.39 90.2104 205.42C91.0604 204.83 92.0404 204.15 93.0604 203.39C93.3904 185.16 84.7104 174.1 82.0904 171.19Z" fill="#E1EAF9"/>
<path d="M186.479 284.51C187.709 283.41 188.809 279.37 189.609 276.42C190.339 273.75 190.959 271.44 191.799 270.17C193.229 268.03 193.739 264.92 193.749 261.83C193.659 261.78 193.579 261.73 193.499 261.67C193.019 261.31 192.709 260.78 192.629 260.19L191.479 251.59C190.739 251.2 189.989 250.84 189.219 250.53C188.199 250.12 187.109 249.78 186.039 249.54C186.129 249.83 186.219 250.13 186.289 250.43C186.669 252.29 186.639 253.66 186.559 255.33C186.429 258.52 185.459 261.76 183.659 264.33C183.409 264.68 182.929 264.77 182.579 264.52C182.309 264.33 182.199 263.98 182.279 263.67C182.889 261.38 183.039 259.12 182.899 256.88C182.269 258.01 181.579 259.07 180.859 260.04C180.579 261.66 180.119 263.05 179.659 263.93C178.409 266.36 176.839 268.1 174.589 269.53C174.589 269.6 174.589 269.68 174.589 269.76C175.979 269.9 177.329 270.21 178.639 270.59C181.429 271.47 184.599 273.29 185.319 276.73C185.409 277.13 185.149 277.53 184.739 277.62C184.549 277.66 184.359 277.62 184.199 277.53L184.059 277.44C181.869 276.13 179.729 275.38 177.399 274.61C175.129 273.92 172.459 273.69 170.679 274.33C166.099 276.02 162.689 279.82 162.279 284.56C162.209 285.27 162.189 286 162.229 286.72C168.359 287.79 181.449 288.96 186.489 284.48L186.479 284.51ZM169.579 281.31C167.559 283.33 165.269 284.32 164.479 283.52C163.689 282.72 164.669 280.44 166.689 278.42C168.709 276.4 170.999 275.41 171.789 276.21C172.579 277.01 171.599 279.29 169.579 281.31Z" fill="#0372FF"/>
<path d="M198.2 261.62L196.93 261.82C196.9 265.49 196.22 269.23 194.42 271.92C193.86 272.76 193.24 275.04 192.65 277.24C191.6 281.12 190.51 285.13 188.58 286.86C185.03 290.02 178.96 290.89 173.33 290.89C169.19 290.89 165.29 290.42 162.83 290.04C162.98 290.47 163.14 290.88 163.34 291.25C163.57 291.68 163.86 292.12 164.09 292.31C164.27 292.5 164.16 292.42 164.36 292.52C164.49 292.59 164.74 292.68 164.98 292.76C166 293.09 167.28 293.3 168.54 293.43C173.64 293.95 179.06 293.62 183.91 292.33C186.29 291.67 188.62 290.65 189.95 289.22C191.34 287.66 192.54 285.27 193.37 282.92C194.23 280.52 194.83 277.97 195.28 275.37C195.35 274.89 195.56 273.65 195.93 272.86C196.27 272.05 196.63 271.41 196.91 270.86C197.19 270.29 197.33 269.96 197.4 269.55L197.72 267.76C197.92 265.59 198.08 263.52 198.2 261.76C198.2 261.71 198.2 261.66 198.2 261.61V261.62Z" fill="#E1EAF9"/>
<path d="M166.69 278.41C164.67 280.43 163.68 282.72 164.48 283.51C165.28 284.3 167.56 283.32 169.58 281.3C171.6 279.28 172.59 276.99 171.79 276.2C170.99 275.41 168.71 276.39 166.69 278.41Z" fill="#E1EAF9"/>
<path d="M167.039 239.78C167.039 239.78 166.959 239.72 166.929 239.68C159.429 243.19 148.489 243.22 142.089 243.22C139.409 243.22 136.889 243 134.619 242.68C135.299 243.27 135.999 243.87 136.709 244.46C143.229 245.16 157.899 245.87 167.049 239.78H167.039Z" fill="#0372FF"/>
<path d="M128.11 258.39C124.84 259.66 121.78 259.77 118.68 259.78C118.31 259.78 118.01 259.48 118.01 259.11C118.01 258.83 118.2 258.58 118.45 258.48C121.24 257.36 124.19 256.35 126.36 254.97C126.86 254.66 127.33 254.16 127.38 254.02C127.46 253.86 127.4 253.83 127.35 253.63C127.3 253.14 126.54 252.74 126.8 252.69C125.91 252.88 125.03 252.46 124.58 251.72C121.55 253.84 118.13 255.32 114.66 256.24C112.14 256.89 109.59 257.32 107.03 257.54C106.17 257.61 105.32 257.65 104.47 257.69C104.67 257.8 104.89 257.91 105.14 258.02C105.59 258.23 105.98 258.39 106.48 258.54C107.43 258.85 108.61 259.02 109.87 259.16L110.03 259.18C110.45 259.23 110.75 259.61 110.7 260.03C110.68 260.22 110.59 260.38 110.46 260.5C109.29 261.6 107.83 262.19 106.18 262.31C105.86 262.33 105.52 262.31 105.18 262.28C105.09 262.45 104.99 262.62 104.89 262.79C104.34 263.65 103.68 264.45 102.89 265.09C102.69 265.26 102.47 265.39 102.25 265.54C104.57 266.83 106.5 268.73 107.6 271.26C107.78 271.66 107.6 272.13 107.19 272.31C106.94 272.42 106.66 272.39 106.44 272.25L106.36 272.2C101.99 269.33 97.3302 267.32 92.4502 267.76C87.7602 268.28 82.9002 271.23 81.1302 275.42C79.4502 279.12 79.9402 283.82 81.8402 287.61C84.7302 287.56 94.6002 286.94 103.66 281.11C112.59 275.36 118.03 273.51 122.4 272.03C126.39 270.67 129.13 269.74 132.78 266.36C132.47 265.27 132.11 264.19 131.68 263.15C130.92 261.27 129.89 259.34 128.72 258.11C128.52 258.21 128.31 258.3 128.11 258.39ZM87.6802 276.04C85.8002 278.19 83.5802 279.32 82.7302 278.58C81.8802 277.84 82.7202 275.49 84.6002 273.34C86.4802 271.19 88.7002 270.06 89.5502 270.8C90.4002 271.54 89.5602 273.89 87.6802 276.04Z" fill="#0372FF"/>
<path d="M84.61 273.34C82.73 275.49 81.89 277.83 82.74 278.58C83.59 279.33 85.81 278.19 87.69 276.04C89.57 273.89 90.41 271.55 89.56 270.8C88.71 270.05 86.49 271.19 84.61 273.34Z" fill="#E1EAF9"/>
<path d="M105.349 283.77C97.0995 289.08 88.4295 290.39 83.9395 290.69C84.2295 290.99 84.5295 291.27 84.8295 291.49C85.2295 291.75 85.5195 291.89 85.8495 291.98C86.3595 292.1 86.9395 292.18 87.5395 292.22C89.9495 292.39 92.5295 292.15 94.8695 291.48C99.7095 289.89 104.689 287.46 109.199 284.64C111.539 283.22 113.589 281.67 116.269 280.08C117.039 279.68 117.909 279.25 119.059 279.1C120.239 278.95 121.169 279.17 121.669 279.21C122.659 279.32 123.619 279.15 124.809 278.8C127.069 278.06 129.729 276.9 131.579 275.6C132.519 274.93 133.279 274.14 133.629 273.43C133.799 273.07 133.869 272.76 133.869 272.45C133.839 271.86 133.789 271.25 133.699 270.62C133.659 270.37 133.609 270.11 133.559 269.85C130.019 272.77 127.019 273.79 123.389 275.02C119.179 276.45 113.939 278.23 105.339 283.77H105.349Z" fill="#E1EAF9"/>
<path d="M188.679 158.79C188.659 158.87 185.589 172.47 187.239 180.41C189.249 180.75 191.839 181.38 195.049 182.5H195.469C197.209 180.38 199.859 179.14 202.239 178.99C202.739 178.95 203.179 179.34 203.219 179.84C203.239 180.18 203.069 180.49 202.809 180.67C200.609 182.11 199.099 183.69 198.359 185.64C197.589 187.57 197.309 189.9 197.509 192.31C197.709 194.75 198.079 196.95 199.179 198.83C199.669 199.66 200.259 200.41 200.909 201.02C201.389 200.57 201.929 200.16 202.569 199.78C202.869 199.51 203.239 199.25 203.739 199.04C204.729 198.62 204.229 198.41 203.059 197.37C201.909 196.35 202.789 194.2 203.439 193.47C205.899 190.69 209.899 192.19 209.649 193.51C208.889 197.47 210.699 201.8 211.309 203.1C211.599 203.28 211.879 203.49 212.149 203.71C212.499 204 212.559 204.53 212.259 204.88C212.009 205.18 211.589 205.27 211.249 205.1L211.139 205.05C209.319 204.14 207.299 204.3 206.199 205.68C204.859 207.15 204.369 208.68 205.309 209.94C206.869 212.07 210.599 213.58 213.359 213.15C214.119 212.81 214.879 212.47 215.649 212.13C218.519 210.15 219.869 206.31 219.589 202.41C219.449 198.34 217.979 194.28 215.499 190.75L215.409 190.63C215.099 190.18 215.209 189.57 215.649 189.25C215.979 189.02 216.409 189.02 216.729 189.22C221.149 191.93 223.719 197.02 223.979 202.21C224.129 204.33 223.869 206.64 223.119 208.82C224.979 207.99 226.759 207.21 228.379 206.49C229.569 205.14 230.259 203.11 230.389 200.91C230.529 198.37 230.099 195.78 229.209 193.06C228.389 190.45 227.359 187.62 225.549 185.91L225.419 185.79C225.099 185.49 225.089 184.99 225.389 184.68C225.629 184.43 225.989 184.37 226.289 184.5C229.579 186 231.149 188.97 232.639 191.69C233.909 194.45 235.149 197.72 234.889 201.13C234.869 201.56 234.829 202.01 234.779 202.46C235.609 202.26 236.409 201.76 236.929 200.92C237.879 199.62 238.349 197.53 238.519 195.56C238.839 191.54 237.739 187.3 235.509 183.84C233.289 180.35 229.969 177.65 226.129 175.97C224.209 175.13 222.169 174.62 220.139 174.49C218.059 174.36 216.239 174.82 213.869 174.7H213.779C213.229 174.67 212.809 174.2 212.839 173.65C212.849 173.41 212.949 173.2 213.089 173.03C213.349 172.74 213.639 172.49 213.939 172.26C206.309 162.26 193.979 157.69 189.979 156.42C189.549 157.14 189.119 157.94 188.679 158.81V158.79Z" fill="#E1EAF9"/>
<path d="M77.6402 186.98C76.7202 185.18 75.8102 183.65 74.9802 182.38C74.5802 182.43 74.1702 182.46 73.7602 182.46C69.4402 182.46 63.4202 180.35 59.9102 178.85C59.0502 180.79 57.8602 182.58 56.1902 184C55.8802 184.26 55.4202 184.23 55.1502 183.92C55.0002 183.75 54.9502 183.5 54.9902 183.29C55.7202 179.14 56.4902 175.51 56.8502 171.67C57.1602 167.88 56.6802 164.03 55.3802 160.52C54.7302 158.76 53.8902 157.09 52.8602 155.54C51.8402 154 50.6002 152.43 49.4802 151.6C48.9102 151.2 48.5002 151.08 48.3402 151.12C48.1702 151.13 47.7902 151.26 47.2602 151.75C46.2102 152.73 45.1502 154.44 44.1702 156.14C42.0602 159.58 40.3502 163.51 36.6102 166.95C35.2502 168.04 34.3602 169.35 34.0002 170.66C33.7202 171.97 33.9602 172.68 35.0302 173.49C35.9802 174.25 38.2002 174.84 39.4802 174.85C40.8802 174.87 42.1602 174.23 43.3402 173.05C45.6802 170.61 46.9702 166.83 49.1602 163.33L49.2202 163.24C49.4902 162.8 50.0702 162.67 50.5102 162.94C50.7602 163.1 50.9102 163.36 50.9402 163.63C51.4202 168.13 49.9402 172.52 46.6302 176.21C45.5902 177.36 44.1502 178.39 42.5202 178.99C42.4102 179.28 42.2702 179.55 42.0802 179.77C41.5202 180.42 41.1402 181.24 41.0802 182.36C41.0102 183.46 41.2402 184.74 41.4402 186.03C41.4802 186.31 41.2902 186.57 41.0102 186.61C40.8202 186.64 40.6302 186.55 40.5202 186.41C39.7602 185.38 38.9302 184.36 38.2902 183.01C38.0102 182.43 37.8002 181.76 37.6702 181.05L34.9702 189.76C36.9602 189.71 38.9702 189.38 41.0802 188.91C44.4602 188.21 47.6502 187.5 50.9402 186.26C51.3402 186.1 51.7902 186.29 51.9502 186.68C52.0602 186.95 51.9902 187.26 51.8302 187.47C50.4502 189.13 48.7102 190.4 46.8402 191.39C54.6102 197.12 70.8002 207.88 79.8202 208.48C81.5602 201.18 77.0702 186.42 77.6402 186.95V186.98Z" fill="#E1EAF9"/>
<path d="M96.2705 234.32C97.0405 240.63 98.7205 247.07 101.121 253C101.721 253.03 102.341 253.05 102.961 253.06C100.651 247.24 99.0005 240.96 98.2405 234.79C98.0805 233.46 97.9505 231.99 97.8805 230.43C99.0705 230.16 100.401 227.82 101.011 224.78C101.691 221.4 101.211 218.44 99.9405 218.19C99.7305 218.15 99.5105 218.19 99.2905 218.29C100.121 215.81 101.391 213.47 103.231 211.48C101.891 212.55 100.701 213.81 99.7305 215.23C97.7505 218.08 96.6705 221.47 96.2205 225.04C96.2205 225.06 96.2205 225.08 96.2205 225.11C95.8505 228.12 95.9205 231.25 96.2805 234.32H96.2705Z" fill="#0372FF"/>
<path d="M129.759 143.42C128.829 143.8 127.899 144.17 126.969 144.53L114.129 153.72L118.079 161.29C119.459 159.72 121.359 157.43 123.299 154.75L128.619 146.02C129.039 145.16 129.419 144.29 129.759 143.43V143.42Z" fill="#E1EAF9"/>
<path d="M108.791 156.15L107.031 151C106.761 151.05 106.491 151.1 106.221 151.14C105.911 151.22 105.601 151.31 105.281 151.38C104.951 151.46 104.621 151.45 104.311 151.38C103.611 151.44 102.921 151.48 102.251 151.48C99.7106 151.48 97.3906 151.02 94.9406 150.17C93.9606 151.45 92.9206 153.18 92.1406 155.42C96.1006 154.35 102.291 153.58 108.781 156.14L108.791 156.15Z" fill="#F15928"/>
<path d="M138.209 139.58C137.309 140.03 136.409 140.45 135.509 140.88C133.839 147.41 128.369 156.44 125.379 160.32C127.479 159.16 129.839 157.5 132.209 155.12C138.339 148.97 148.729 148.21 154.899 148.42C152.689 145.53 146.009 139.73 140.979 138.07C140.069 138.6 139.149 139.11 138.209 139.58Z" fill="#F15928"/>
<path d="M55.2196 126.88C55.1096 127.05 52.5096 131 46.0996 130.65C39.7196 130.28 37.4196 125.83 37.3196 125.64C37.1996 125.41 37.1496 125.14 37.1596 124.88L37.6896 115.82C35.6396 117.43 32.9196 120.43 32.7696 125.16C32.6596 128.68 34.0996 131.03 35.4896 133.31C36.8296 135.5 38.2196 137.77 37.3496 140.5C37.0496 141.45 36.1196 144.42 34.8596 148.47C35.4796 149.42 36.7596 150.17 38.0596 150.59C38.7796 148.27 39.3196 146.53 39.5696 145.75L40.8096 141.72L44.2996 142.63C44.2596 142.85 44.2196 143.04 44.1896 143.19L42.3096 149.24C42.5896 148.9 42.9096 148.56 43.2396 148.22L44.7496 143.36C44.9496 142.38 45.9696 140.29 48.3196 139.52C51.0196 138.64 58.8296 134.5 59.2096 127.34C59.4696 122.41 57.8696 119.34 56.4696 117.63L55.4396 126.24C55.4096 126.46 55.3396 126.68 55.2196 126.87V126.88ZM44.6796 140.7L41.7696 140.05L42.6896 135.53L43.5396 132.18C43.5396 132.18 49.6296 135.14 56.9196 128.55C56.9196 128.55 56.5596 133.84 48.8096 137.42C45.0896 139.14 44.6796 140.7 44.6796 140.7Z" fill="#E1EAF9"/>
<path d="M11.2297 207.54C11.3297 207.38 13.7196 203.75 19.4896 203.74C19.7696 203.74 20.0596 203.74 20.3496 203.76C26.7296 204.13 29.0396 208.58 29.1296 208.77C29.2496 209 29.2996 209.27 29.2896 209.53L28.7496 218.59C30.7996 216.98 33.5196 213.98 33.6696 209.25C33.7796 205.73 32.3396 203.38 30.9496 201.1C29.6096 198.91 28.2197 196.64 29.0897 193.91L31.8896 184.87C31.6596 185.02 31.3996 185.17 31.1396 185.31L28.5296 193.73C28.4896 193.86 28.4796 193.99 28.4396 194.12L23.3696 192.7C23.3696 192.7 26.8096 191.61 27.3596 189.35C27.6096 188.32 27.7996 187.4 27.9496 186.57C27.5396 186.68 27.1197 186.8 26.6597 186.89C25.4997 187.13 24.2096 187.2 22.8896 187.12C22.2196 189.28 21.7896 190.68 21.6996 190.98C21.5896 191.44 21.3496 192.04 20.9596 192.64C21.7996 193.04 22.8397 193.69 24.0497 194.76C24.0497 194.76 21.2496 194.07 18.4396 194.73C18.3296 194.78 18.2196 194.83 18.0996 194.87C15.3996 195.75 7.59965 199.89 7.20965 207.05C6.94965 211.98 8.54964 215.05 9.94964 216.76L10.9797 208.15C11.0097 207.93 11.0796 207.71 11.1996 207.52L11.2297 207.54ZM21.9596 197.94C23.3796 198.05 24.5396 197.7 24.6996 197.15C25.4396 197.4 26.1496 197.74 26.7396 198.25C30.4296 201.44 30.0396 204.44 30.0396 204.44C30.0396 204.44 27.0696 199.35 18.8096 200.16C14.5096 200.58 13.1997 201.49 10.6597 203.52C10.6597 203.52 11.8896 198 18.9596 196.7C18.9596 196.7 19.1196 196.68 19.3296 196.66C19.2996 197.26 20.4696 197.83 21.9496 197.94H21.9596Z" fill="#E1EAF9"/>
<path d="M12.7404 176.74C14.2204 180.35 21.0004 183.25 25.7204 182.28C32.0704 180.97 31.0404 177.5 30.9104 176.59C30.9004 176.51 30.9104 176.43 30.9004 176.35C30.4304 175.84 30.0204 175.25 29.7004 174.61C28.6204 174.68 27.5604 174.68 26.5204 174.6C22.3404 174.26 18.5804 172.73 15.6704 170.73C13.5804 172.33 11.8104 174.47 12.7404 176.76V176.74Z" fill="#E1EAF9"/>
<path d="M14.0901 159.48C13.5501 160.69 14.0301 162.39 15.3901 164.13C17.8701 167.3 23.0501 170.22 29.0801 169.91C29.1001 169.79 29.1101 169.67 29.1401 169.56C29.6601 167.34 30.8701 165.48 32.2801 164.02C27.1001 163.19 23.0801 160.86 20.6101 157.3C19.0601 156.88 15.4901 156.33 14.0901 159.48Z" fill="#E1EAF9"/>
<path d="M22.9295 151.09C24.1095 155.98 28.7395 160.45 35.0495 161.02C36.3595 159.22 37.5295 157 38.7795 154.77C36.7295 154.71 31.6595 154.19 30.1595 150.45C29.4295 148.64 30.2695 147.11 30.8395 146.34C27.8895 145.59 25.5695 145.81 24.1695 147.02C22.8995 148.11 22.6295 149.85 22.9395 151.1L22.9295 151.09Z" fill="#E1EAF9"/>
<path d="M124.299 174.99C125.449 174.74 126.109 173.33 125.789 171.83C125.459 170.34 124.269 169.33 123.119 169.58C121.969 169.83 121.309 171.24 121.629 172.74C121.959 174.23 123.149 175.24 124.299 174.99Z" fill="#16205B"/>
<path d="M127.76 180.98C127.43 179.49 126.24 178.48 125.09 178.73C123.94 178.98 123.28 180.39 123.6 181.89C123.92 183.39 125.12 184.39 126.27 184.14C127.42 183.89 128.08 182.48 127.76 180.98Z" fill="#16205B"/>
<path d="M178.829 85.8001C177.779 82.6001 175.439 80.4201 172.219 79.8001C168.929 79.1801 165.429 79.8401 162.629 81.7801C156.739 85.6701 155.129 93.6801 152.749 100.96L152.729 101.03C152.589 101.44 152.149 101.67 151.729 101.54C151.449 101.45 151.259 101.22 151.199 100.95C144.619 89.1101 148.029 71.8201 148.029 71.8201L144.359 71.4501C144.359 71.4501 143.719 58.0301 142.959 56.6301C140.889 52.8501 122.049 56.2101 102.689 54.9901C93.3292 54.4001 83.5192 50.3501 83.5192 50.3501C83.5192 50.3501 83.5792 52.2901 85.7692 53.9101C88.3192 55.7901 93.1992 57.4401 93.1092 58.6001C93.0292 59.6701 82.5992 62.0301 73.3192 59.4601C72.9992 59.3701 72.6792 59.2801 72.3592 59.1701C70.5792 62.5801 68.8892 66.1001 67.6592 69.5801C67.3392 70.5901 66.9992 71.6501 66.9092 72.5101C66.7992 73.2001 66.9092 73.9901 67.2092 75.0401C67.7692 77.0101 68.6692 79.1301 69.6292 81.0401C70.0492 81.8801 69.9292 82.8601 69.3992 83.5601L69.3092 83.6701C66.9692 86.7601 66.2992 89.3101 65.4492 93.2401C65.2192 96.0501 65.1492 99.8901 65.4392 101.82C70.2292 134.34 91.7292 144.33 94.1592 145.35C97.6592 146.84 100.489 147.61 104.479 147.14C109.769 145.47 115.119 143.71 120.329 141.74C122.539 140.93 124.729 140.08 126.899 139.2C127.519 138.92 128.139 138.64 128.789 138.35L128.819 138.41C131.229 137.38 133.609 136.3 135.919 135.11C140.729 132.58 146.079 129.71 148.049 125.62C149.109 123.36 149.709 120.68 150.069 117.98C150.479 115.24 150.339 112.94 151.079 109.83V109.8C151.179 109.4 151.579 109.16 151.969 109.25C152.129 109.29 152.269 109.38 152.369 109.5C153.209 110.54 153.729 111.67 154.079 112.87C161.299 111.94 168.859 109.47 174.109 104.85C176.769 102.51 178.659 99.5201 179.409 96.1501C180.119 92.8301 179.939 88.9601 178.829 85.8101V85.8001ZM108.539 68.2401C111.289 65.1001 119.469 60.3501 127.839 62.8201C132.499 64.2001 131.399 70.2401 129.919 70.5701C128.439 70.9001 119.089 65.6501 107.209 72.8101C107.209 72.8101 105.779 71.3701 108.529 68.2301L108.539 68.2401ZM108.289 88.3201C110.219 88.0701 112.859 87.3201 114.219 85.0801C114.219 85.0801 110.799 84.3301 108.719 82.6201C110.079 77.3401 113.839 73.6501 117.749 74.1201C122.159 74.6401 125.069 80.2101 124.259 86.5601C123.919 89.2001 122.999 91.5601 121.709 93.3801C122.869 93.6201 123.979 94.0501 124.949 94.6701C125.129 94.7901 125.189 95.0401 125.069 95.2201C124.989 95.3401 124.849 95.4101 124.719 95.4001C122.079 95.2901 119.719 95.3701 117.489 96.0801C116.379 96.4201 115.319 96.9001 114.249 97.4501C113.199 98.0101 112.159 98.7201 111.129 99.4501L111.089 99.4801C110.889 99.6201 110.619 99.5701 110.479 99.3801C110.389 99.2601 110.379 99.1001 110.429 98.9701C110.849 97.8801 111.519 96.9801 112.319 96.1801C110.129 94.7401 108.629 91.8201 108.289 88.3201ZM78.2892 61.9301C83.8392 60.5601 90.3092 64.8201 92.2192 67.5701C94.1292 70.3201 93.0292 71.4301 93.0292 71.4301C85.6892 65.3301 77.5792 68.5701 76.5092 68.2001C75.4392 67.8301 74.8392 62.7701 78.2892 61.9201V61.9301ZM76.0492 88.5101C77.8092 88.1301 80.1692 87.2401 81.2492 85.0701C81.2492 85.0701 78.0492 84.6501 75.9992 83.2401C76.8392 78.2801 80.0092 74.6001 83.6392 74.7201C87.7292 74.8501 90.8392 79.7401 90.5892 85.6401C90.3392 91.5401 86.8292 96.2101 82.7392 96.0801C79.4692 95.9701 76.8492 92.8001 76.0492 88.5101ZM85.7892 104.11C86.2492 101.16 88.7592 99.3301 91.1092 98.8301C91.3492 98.7701 91.6092 98.7301 91.8592 98.6901C92.3392 97.9301 92.8292 97.2601 93.3292 96.4301C93.8792 95.5601 94.1392 94.4701 94.4592 93.3901L94.4892 93.3001C94.5792 93.0101 94.8792 92.8401 95.1792 92.9301C95.3392 92.9801 95.4592 93.0901 95.5192 93.2301C96.0992 94.5101 96.0992 95.8501 95.9392 97.2501C95.8692 97.8801 95.6692 98.5101 95.3792 99.0901C96.2592 99.4601 97.0392 100.06 97.5492 100.92C97.6892 101.16 97.6092 101.47 97.3792 101.61C97.2792 101.67 97.1592 101.69 97.0492 101.68H96.9992C94.9992 101.39 93.4292 101.23 91.8492 101.66C90.3092 102.1 89.1492 103.34 89.1092 104.53C88.9392 105.72 89.7792 106.97 91.1392 107.71C92.5892 108.51 94.0192 108.23 96.1292 108.76L96.2192 108.78C96.5192 108.86 96.7092 109.16 96.6292 109.47C96.6092 109.54 96.5792 109.6 96.5392 109.66C94.9692 111.9 91.9492 111.55 89.7392 110.61C87.4492 109.69 85.3592 107.07 85.7792 104.11H85.7892ZM131.569 105.76C131.389 105.81 131.219 105.78 131.069 105.69L131.039 105.67C130.019 105.05 129.139 104.52 128.209 104.2C128.209 104.2 128.199 104.2 128.189 104.2C129.549 108.12 130.159 112.22 129.809 116.46C129.409 121.63 126.839 126.99 122.689 130.52C118.749 134.06 113.589 136.69 108.089 137.22C102.699 137.71 96.9092 136.79 93.0992 133.02C92.8992 132.82 92.9092 132.5 93.1192 132.3C93.2592 132.17 93.4392 132.13 93.6092 132.17L93.6792 132.19C95.1492 132.52 96.5992 132.87 98.0292 133.18C98.2292 131.19 98.5192 124.01 93.3492 117.78H93.3592C91.9992 117.58 90.6492 117.29 89.3292 116.89C89.0192 116.8 88.8492 116.47 88.9592 116.17C89.0392 115.94 89.2592 115.79 89.4892 115.77H89.5292C96.3292 115.3 103.039 115.08 109.219 112.8C114.469 110.93 119.099 107.77 122.549 103.58C121.329 103.65 120.059 103.79 118.709 103.92H118.659C118.399 103.95 118.179 103.77 118.159 103.52C118.149 103.38 118.209 103.25 118.299 103.16C120.209 101.34 122.849 100.38 125.669 100.5C127.069 100.58 128.519 100.99 129.659 101.83C130.809 102.65 131.669 103.76 132.009 105.01C132.099 105.33 131.899 105.66 131.569 105.74V105.76ZM171.249 92.3701C171.149 92.4001 171.039 92.4001 170.949 92.3601H170.929C168.779 91.4301 167.049 92.2201 165.969 93.2301C165.769 93.4501 165.599 93.7001 165.449 93.9801C166.739 94.5001 167.669 95.9601 167.649 97.7001C167.629 99.8501 166.179 101.59 164.399 101.57C162.839 101.55 161.549 100.19 161.269 98.3901C161.269 98.3501 161.239 98.3201 161.229 98.2901C161.049 97.1101 161.049 95.8701 161.399 94.6001C161.689 93.3401 162.419 92.0301 163.619 91.0501C164.809 90.0601 166.399 89.5401 167.969 89.6901C169.539 89.8401 170.979 90.7401 171.469 91.9301C171.549 92.1101 171.439 92.3201 171.239 92.3801L171.249 92.3701Z" fill="#E1EAF9"/>
<path d="M167.98 89.67C166.41 89.52 164.82 90.04 163.63 91.03C162.43 92.01 161.69 93.32 161.41 94.58C161.06 95.84 161.07 97.09 161.24 98.27C161.24 98.31 161.27 98.34 161.28 98.37C161.55 100.17 162.84 101.54 164.41 101.55C166.19 101.57 167.64 99.84 167.66 97.68C167.67 95.94 166.75 94.48 165.46 93.96C165.61 93.69 165.78 93.43 165.98 93.21C167.07 92.2 168.79 91.41 170.94 92.34H170.96C171.05 92.39 171.16 92.39 171.26 92.36C171.46 92.29 171.56 92.09 171.49 91.91C171 90.72 169.56 89.82 167.99 89.67H167.98Z" fill="#16205B"/>
<path d="M123.601 123.83C122.821 122.94 121.111 121.91 118.631 122.58C114.811 123.61 114.141 127.82 114.141 127.82C114.141 127.82 112.681 126.34 114.141 124.17C114.141 124.17 109.821 125.02 107.871 128.5C106.891 130.26 106.371 132.6 107.201 134.02C107.391 134 107.571 134 107.761 133.97C112.411 133.41 116.711 131.12 120.141 127.91C121.531 126.72 122.671 125.33 123.591 123.83H123.601Z" fill="#F15928"/>
<path d="M120.5 114.88C123.05 111.68 122.67 110.15 121.78 109.42C121.2 109.96 120.61 110.48 119.97 110.96C117.1 113.19 113.81 114.91 110.37 116.02C106.93 117.14 103.37 117.79 99.8203 118.02C99.0703 118.06 98.3203 118.07 97.5703 118.06C98.4703 119.46 99.1903 120.86 99.7203 122.23C104.06 121.62 116.82 119.47 120.5 114.87V114.88Z" fill="#E1EAF9"/>
<path d="M129.659 101.84C128.519 101 127.069 100.59 125.669 100.51C122.849 100.4 120.209 101.36 118.299 103.17C118.199 103.26 118.149 103.39 118.159 103.53C118.179 103.78 118.399 103.96 118.659 103.93H118.709C120.059 103.8 121.339 103.66 122.549 103.59C119.099 107.78 114.469 110.94 109.219 112.81C103.039 115.09 96.3193 115.31 89.5293 115.77H89.4893C89.2493 115.79 89.0393 115.94 88.9593 116.17C88.8493 116.47 89.0193 116.79 89.3293 116.89C90.6493 117.29 91.9993 117.58 93.3593 117.77H93.3493C98.5193 124 98.2293 131.18 98.0293 133.18C96.5993 132.87 95.1493 132.52 93.6793 132.19L93.6093 132.17C93.4393 132.13 93.2593 132.17 93.1193 132.3C92.9093 132.5 92.8993 132.82 93.0993 133.02C96.9093 136.79 102.699 137.71 108.089 137.22C113.579 136.69 118.739 134.06 122.689 130.52C126.839 127 129.409 121.64 129.809 116.46C130.159 112.22 129.549 108.12 128.189 104.2C128.189 104.2 128.199 104.2 128.209 104.2C129.139 104.52 130.019 105.05 131.039 105.67L131.069 105.69C131.209 105.78 131.389 105.8 131.569 105.76C131.899 105.67 132.099 105.34 132.009 105.03C131.669 103.78 130.809 102.67 129.659 101.85V101.84ZM107.209 134.02C106.379 132.6 106.899 130.26 107.879 128.5C109.829 125.02 114.149 124.17 114.149 124.17C112.699 126.34 114.149 127.82 114.149 127.82C114.149 127.82 114.819 123.6 118.639 122.58C121.109 121.92 122.819 122.94 123.609 123.83C122.689 125.33 121.539 126.71 120.159 127.91C116.729 131.13 112.429 133.41 107.779 133.97C107.589 134 107.409 134 107.219 134.02H107.209ZM99.7193 122.25C99.1893 120.88 98.4693 119.48 97.5693 118.08C98.3193 118.08 99.0693 118.08 99.8193 118.04C103.369 117.81 106.929 117.16 110.369 116.04C113.809 114.93 117.099 113.21 119.969 110.98C120.599 110.5 121.199 109.97 121.779 109.44C122.669 110.17 123.059 111.7 120.499 114.9C116.829 119.5 104.069 121.65 99.7193 122.26V122.25Z" fill="#16205B"/>
<path d="M90.59 85.6401C90.84 79.7401 87.73 74.8501 83.64 74.7201C80.01 74.6001 76.84 78.2801 76 83.2401C78.05 84.6501 81.25 85.0701 81.25 85.0701C80.17 87.2401 77.81 88.1301 76.05 88.5101C76.85 92.7901 79.46 95.9701 82.74 96.0801C86.83 96.2101 90.34 91.5401 90.59 85.6401Z" fill="#16205B"/>
<path d="M110.429 98.9697C110.379 99.0997 110.389 99.2597 110.479 99.3797C110.619 99.5797 110.889 99.6197 111.089 99.4797L111.129 99.4497C112.159 98.7197 113.199 98.0097 114.249 97.4497C115.319 96.8997 116.379 96.4197 117.489 96.0797C119.709 95.3697 122.069 95.2897 124.719 95.3997C124.859 95.3997 124.989 95.3397 125.069 95.2197C125.189 95.0397 125.139 94.7897 124.949 94.6697C123.979 94.0497 122.869 93.6197 121.709 93.3797C122.999 91.5597 123.919 89.1997 124.259 86.5597C125.069 80.2097 122.149 74.6397 117.749 74.1197C113.839 73.6597 110.079 77.3497 108.719 82.6197C110.809 84.3297 114.219 85.0797 114.219 85.0797C112.859 87.3297 110.219 88.0797 108.289 88.3197C108.639 91.8097 110.129 94.7298 112.319 96.1798C111.519 96.9798 110.849 97.8797 110.429 98.9697Z" fill="#16205B"/>
<path d="M129.929 70.57C131.399 70.24 132.499 64.2 127.849 62.82C119.479 60.34 111.289 65.1 108.549 68.24C105.799 71.38 107.229 72.82 107.229 72.82C119.109 65.65 128.459 70.91 129.939 70.58L129.929 70.57Z" fill="#16205B"/>
<path d="M76.5088 68.21C77.5788 68.57 85.6888 65.34 93.0288 71.44C93.0288 71.44 94.1188 70.34 92.2188 67.58C90.3188 64.82 83.8388 60.56 78.2888 61.94C74.8388 62.79 75.4388 67.86 76.5088 68.22V68.21Z" fill="#16205B"/>
<path d="M96.5502 109.66C96.5902 109.6 96.6203 109.54 96.6403 109.47C96.7203 109.17 96.5302 108.86 96.2302 108.78L96.1403 108.76C94.0203 108.23 92.6002 108.51 91.1502 107.71C89.8002 106.97 88.9502 105.72 89.1202 104.53C89.1602 103.33 90.3202 102.1 91.8602 101.66C93.4402 101.23 95.0102 101.4 97.0102 101.68H97.0603C97.1703 101.7 97.2803 101.68 97.3903 101.62C97.6303 101.48 97.7103 101.17 97.5603 100.93C97.0503 100.07 96.2703 99.4797 95.3903 99.0997C95.6803 98.5097 95.8802 97.8897 95.9502 97.2597C96.1102 95.8597 96.1103 94.5197 95.5303 93.2397C95.4703 93.0997 95.3402 92.9897 95.1902 92.9397C94.9002 92.8497 94.5903 93.0197 94.5003 93.3097L94.4702 93.3997C94.1502 94.4797 93.8802 95.5697 93.3402 96.4397C92.8402 97.2597 92.3502 97.9397 91.8702 98.6997C91.6202 98.7397 91.3702 98.7797 91.1202 98.8397C88.7702 99.3397 86.2602 101.17 85.8002 104.12C85.3802 107.08 87.4702 109.7 89.7602 110.62C91.9702 111.56 94.9903 111.92 96.5603 109.67L96.5502 109.66Z" fill="#16205B"/>
<path d="M75.7506 15.3397C73.1206 16.2197 70.7806 17.8797 68.8206 19.8697C66.8406 21.8597 65.3006 24.2597 64.1606 26.8097C63.0606 29.3697 62.3106 32.0697 62.0606 34.8297C61.8006 37.5697 61.8706 40.3997 62.8006 43.0197C62.8606 43.1597 63.0006 43.2797 63.1606 43.2697C63.3706 43.2697 63.5406 43.0897 63.5306 42.8797C63.6906 37.6797 65.0406 32.6897 67.0906 28.1297C68.1106 25.8497 69.4206 23.7197 70.9206 21.7097C72.4306 19.7097 74.2306 17.9397 76.2706 16.3097C76.4506 16.1697 76.5306 15.9197 76.4506 15.6997C76.3506 15.4097 76.0406 15.2497 75.7506 15.3497V15.3397Z" fill="#0372FF"/>
<path d="M151.829 169.33C151.709 167.21 151.799 166.39 151.799 166.39C143.299 169.74 137.869 169.64 137.869 169.64C137.869 169.64 137.859 170.8 138.039 172.44C140.139 172.24 145.289 171.53 151.829 169.33Z" fill="#E1EAF9"/>
<path d="M143.399 186.98C146.509 187.35 155.109 185.22 155.109 185.22C153.299 182.35 152.469 174.76 152.089 171.97C149.219 172.86 142.869 174.14 138.299 174.3C139.019 178.33 138.299 186.38 143.399 186.98Z" fill="#E1EAF9"/>
<path d="M200.76 224.83C201.43 225.27 201 227.09 199.81 228.9C198.7 230.6 197.32 231.66 196.6 231.44C196.39 232.4 196.29 233.32 196.25 234.15L221.85 230.08C221.01 227.7 219.45 225.58 217.31 224.01C214.61 222.02 211.18 221.04 207.72 221.24C207.32 221.26 206.93 221.31 206.53 221.37C203.94 222.3 201.99 223.47 200.53 224.77C200.61 224.78 200.69 224.8 200.76 224.84V224.83Z" fill="#F15928"/>
<path d="M247.329 224.6L248.669 229.52C248.809 230.05 248.549 230.61 248.039 230.83L242.669 233.14C242.549 233.19 242.419 233.22 242.299 233.23C242.109 233.24 241.929 233.2 241.749 233.12C241.459 232.98 241.249 232.72 241.159 232.41L239.919 227.83L227.049 233.44L229.469 251.51L259.679 237.16C259.289 234.29 258.269 227.05 257.199 220.3L247.339 224.59L247.329 224.6Z" fill="#F15928"/>
<path d="M227.87 211.56C223.69 213.41 218.79 215.58 214.23 217.61C216.28 218.23 218.22 219.16 219.94 220.43C222.92 222.63 225.05 225.61 226.15 229L238.73 223.52L237.99 220.8C237.85 220.27 238.11 219.71 238.62 219.49L243.99 217.17C244.28 217.04 244.62 217.05 244.91 217.19C245.2 217.33 245.41 217.59 245.5 217.9L246.15 220.29L256.38 215.83C254.9 210.13 250.13 207.62 245.68 207.01C244.24 207.38 243.55 207.05 243.3 206.85C242.68 206.85 242.07 206.89 241.5 206.96C239.09 207.27 233.02 209.52 227.87 211.57V211.56Z" fill="#F15928"/>
<path d="M225.179 252.96L222.699 234.42L196.459 238.6C196.929 242.99 198.249 252.92 198.809 257.04L225.179 252.96Z" fill="#F15928"/>
<path d="M236.309 207.82L235.159 208.34C233.329 209.14 230.779 210.27 227.869 211.56C233.019 209.52 239.089 207.26 241.499 206.95C242.069 206.88 242.679 206.84 243.299 206.84C243.209 206.77 243.179 206.72 243.179 206.72L242.889 205.74C242.569 205.77 242.249 205.79 241.929 205.84C240.059 206.13 238.239 206.95 236.309 207.82Z" fill="#E1EAF9"/>
<path d="M256.38 215.82L257.72 215.24C256.95 212.56 255.31 210.19 252.96 208.46C251.27 207.21 249.35 206.39 247.31 205.97C247.14 206.3 246.74 206.72 245.74 206.98C245.72 206.98 245.7 206.98 245.68 206.99C250.14 207.61 254.91 210.11 256.38 215.81V215.82Z" fill="#E1EAF9"/>
<path d="M257.189 220.31C258.259 227.06 259.269 234.3 259.669 237.17L260.809 236.63L258.479 219.75L257.189 220.31Z" fill="#E1EAF9"/>
<path d="M196.46 238.6C196.38 237.84 196.32 237.25 196.3 236.88C196.26 236.2 196.2 235.25 196.25 234.14C196.29 233.31 196.39 232.39 196.6 231.43C197.32 231.66 198.7 230.59 199.81 228.89C201 227.08 201.43 225.26 200.76 224.82C200.69 224.78 200.62 224.76 200.53 224.75C201.99 223.45 203.94 222.28 206.53 221.35C206.45 221.36 206.36 221.36 206.28 221.38C198.43 222.6 192.91 229.53 193.99 236.83L196.73 257.36L198.81 257.04C198.26 252.92 196.93 242.99 196.46 238.6Z" fill="#E1EAF9"/>
<path d="M244.571 222.88L243.701 219.71L240.391 221.13L241.221 224.18L244.571 222.88Z" fill="#E1EAF9"/>
<path d="M241.799 226.33L242.959 230.6L246.279 229.17L245.149 225.03L241.799 226.33Z" fill="#E1EAF9"/>
<path d="M199.41 205.04C199.07 206.49 199.22 207.99 199.61 209.34C200.03 210.64 200.44 211.94 201.06 213.17C201.09 213.21 201.14 213.25 201.19 213.24C201.26 213.24 201.32 213.17 201.31 213.09C201.25 210.31 199.89 207.73 200.57 205.32C200.87 204.13 201.52 203.05 202.48 202.21C203.47 201.38 204.56 200.69 205.73 200C205.77 199.98 205.8 199.93 205.79 199.88C205.79 199.81 205.73 199.75 205.66 199.76C204.22 199.82 202.93 200.54 201.81 201.4C200.69 202.3 199.73 203.55 199.4 205.02L199.41 205.04Z" fill="#16205B"/>
<path d="M136.92 207.84C142.13 206.9 147.78 208.98 153.07 209.76C155.73 210.1 158.35 210.76 161.18 210.84C163.97 210.97 169.22 210.83 171.75 209.76L171.64 209.37C168.97 209.82 163.9 209.51 161.3 209.25C158.73 208.94 156.07 208.29 153.39 207.85C148.04 206.85 142.35 206.59 136.93 207.84H136.92Z" fill="#0372FF"/>
<path d="M56.9195 128.54C49.6295 135.13 43.5395 132.17 43.5395 132.17L42.6895 135.52L41.7695 140.04L44.6795 140.69C44.6795 140.69 45.0795 139.13 48.8095 137.41C56.5595 133.83 56.9195 128.54 56.9195 128.54Z" fill="#16205B"/>
<path d="M19.3399 196.65C19.1199 196.67 18.9699 196.69 18.9699 196.69C11.8999 197.99 10.6699 203.51 10.6699 203.51C13.2099 201.48 14.5199 200.56 18.8199 200.15C27.0799 199.35 30.0499 204.43 30.0499 204.43C30.0499 204.43 30.4299 201.43 26.7499 198.24C26.1599 197.73 25.4499 197.39 24.7099 197.14C24.5499 197.69 23.3899 198.04 21.9699 197.93C20.4799 197.82 19.3199 197.24 19.3499 196.65H19.3399Z" fill="#16205B"/>
</svg>
