<svg width="410" height="429" viewBox="0 0 410 429" fill="none" xmlns="http://www.w3.org/2000/svg">
<path d="M335.03 237.62L332.02 215.84V215.82C331.24 210.55 328.41 205.88 324.05 202.65C321.49 200.76 318.47 199.48 315.21 198.88L313.83 194.13C313.58 193.28 313.19 192.45 312.63 191.61C312.2 187.41 310.78 183.36 308.51 179.85C305.43 175.01 300.78 171.29 295.49 169.4C292.74 168.36 289.92 167.82 287.09 167.78C286.98 167.78 286.88 167.78 286.78 167.78C280.49 159.46 271.8 154.39 264.99 151.46C264.54 148.02 263.38 146.61 263.27 146.56C262.78 145.84 262.13 145.26 261.4 144.88C241.04 134.26 221.7 134.43 217.27 134.64C217.27 134.64 217.27 134.64 217.26 134.64C218.97 133.02 220.56 131.06 221.6 128.6C221.63 128.53 221.66 128.46 221.68 128.39C224.8 126.64 229.43 123.28 232.39 117.7C232.89 117.57 233.39 117.44 233.91 117.26C238.9 115.53 242.85 113.34 245.96 110.59C249.9 107.18 252.66 102.64 253.73 97.7699C254.78 92.6499 254.51 87.8799 252.89 83.1299C251.86 80.3199 250.24 77.8999 248.2 76.0999C247.48 75.4699 246.69 74.9199 245.79 74.4299C249.88 63.5799 241.94 53.0399 239.87 50.5399C232.97 25.2899 219.13 22.7299 204.48 20.0299C194.28 18.1499 182.72 16.0099 170.91 6.11991C160.97 -2.21009 147.5 -2.02009 135.73 6.58991C124.58 14.7499 115.67 31.0699 122.47 47.6099C123.15 49.2499 124 50.8099 125 52.2499C123.6 57.4799 122.44 65.6299 126.43 71.3399C126.43 71.3599 126.43 71.3899 126.42 71.4099C126.06 73.6299 126.48 75.6099 126.83 76.9299C127.31 78.6899 127.91 80.2899 128.47 81.6199C125.45 86.7599 125.18 90.8899 125.18 94.2599C125.07 96.1799 125.04 98.1899 125.07 100.19L125.6 104.64C125.98 106.92 126.44 109.09 126.96 111.17C125.9 110.22 125.1 109.75 125 109.69C123.35 108.73 121.34 108.66 119.61 109.52C117.88 110.38 116.72 112.03 116.51 113.92L115.39 123.24C114.94 123.41 114.27 123.57 113.29 123.49C112.37 123.45 111.72 123.22 111.26 122.96L111.82 113.36C111.94 111.38 111.01 109.46 109.38 108.34C107.76 107.23 105.63 107.03 103.8 107.85C99.7102 109.72 92.7102 115.43 92.4102 124.94C92.2302 130.6 94.6102 134.49 96.1802 137.06C96.4002 137.42 96.8502 138.15 97.1002 138.64C91.2902 137.86 87.7502 139.9 86.0702 141.34C83.6202 143.44 82.2102 146.56 82.1302 149.83C78.4302 150.6 75.6102 152.89 74.0302 156.45C72.5402 159.79 72.9802 163.65 75.2202 167.25C70.4902 172.46 71.7502 177.5 72.5902 179.58C73.3502 181.46 74.6602 183.21 76.4802 184.77C77.5702 186.25 78.8502 187.69 80.2902 189.06C75.3102 191.45 67.3602 197.23 66.8502 206.7C66.1602 219.58 74.6902 224.55 74.9902 224.71C75.6602 225.12 76.4102 225.37 77.2202 225.47C78.3302 225.62 79.4202 225.41 80.4102 224.92C82.1302 224.06 83.3002 222.41 83.5202 220.51L84.6402 211.2C85.0902 211.03 85.7602 210.89 86.6902 210.93C87.6402 210.99 88.3002 211.22 88.7702 211.48L88.2102 221.06C88.0902 223.03 89.0202 224.96 90.6702 226.09C91.6102 226.73 92.7202 227.07 93.9202 227.09C94.7402 227.08 95.5502 226.9 96.2002 226.58C96.6502 226.38 107.24 221.5 107.62 209.49C107.8 203.85 105.43 199.97 103.85 197.37C103.85 197.36 103.84 197.35 103.83 197.34C105.18 197.17 106.54 196.9 107.91 196.53C116.51 203.22 135.1 216.63 146.03 216.63C147.88 216.63 149.64 216.35 151.3 215.79C152.54 216.23 153.88 216.19 155.23 215.58C155.99 215.26 157.28 214.68 158.85 213.81C155.77 219.55 154.63 226.69 155.47 235.13C156.21 242.24 158.21 249.51 161.6 257.34C162 258.28 162.69 259.06 163.55 259.59C163.75 260.09 164.01 260.59 164.32 261.05C162.39 260.69 160.44 260.58 158.61 260.75C155.29 261.02 151.84 262.21 148.63 264.2C145.35 266.26 142.74 269.18 141.28 272.45C138.42 278.83 139.1 286.55 143.15 293.15C144.36 295.02 145.63 296.43 147.2 297.61C148 298.19 149.28 298.96 150.86 299.34C151.84 299.58 152.76 299.72 153.68 299.8C157.03 300.1 160.42 299.77 163.88 298.78C169.32 296.99 174.45 294.54 179.99 291.1C181.17 290.37 182.36 289.57 183.51 288.81C184.66 288.04 185.78 287.28 186.64 286.62C186.81 286.62 187.03 286.66 187.68 286.74C190.08 286.99 192.39 286.47 193.95 285.94C197.06 284.81 199.74 283.64 202.78 281.49C204.14 280.45 205.86 278.94 207.01 276.48C207.65 275.11 207.95 273.61 207.88 272.11C207.83 271.23 207.74 270.4 207.61 269.52C207.09 266.35 206.23 263.37 204.96 260.34C204.12 258.5 203.1 256.28 201.31 254.19C201.37 253.55 201.36 252.95 201.26 252.38C201.21 252.08 201.15 251.78 201.07 251.49C208.91 257.79 218.43 263.97 231.39 269.39C229.37 270.56 227.63 271.98 226.21 273.64C223.76 276.48 222.2 280.07 221.81 283.75C221.38 287.83 221.95 291.38 223.58 294.68C224.06 295.58 224.65 296.62 225.51 297.41C226.05 298.06 227.07 298.82 227.71 299.1C228.33 299.43 228.84 299.61 229.42 299.81C231.28 300.43 232.91 300.66 234.48 300.87C236.62 301.1 238.7 301.22 240.72 301.22C244.92 301.22 248.91 300.72 252.8 299.7C256.04 298.74 259.44 297.44 262.4 294.38C264.96 291.44 266.3 288.38 267.37 285.47C268.3 282.85 269.03 279.96 269.65 276.31L269.77 275.77C269.88 275.51 270.03 275.21 270.21 274.87L270.51 274.27C271.11 273.08 271.5 271.97 271.67 270.96L272.05 268.78C272.34 266.86 272.49 265.03 272.52 263.24L295.21 259.73C295.61 259.67 295.92 259.59 295.76 259.57L332.19 242.39L332.72 242.06C332.92 241.92 333.08 241.78 333.22 241.66C333.36 241.55 333.61 241.34 333.87 241.03L334.35 240.27C334.45 240.1 334.62 239.8 334.75 239.39L334.98 237.76V237.74L335 237.59L335.03 237.62ZM264.53 267.77L264.21 269.56C264.14 269.97 264 270.29 263.72 270.87C263.45 271.42 263.09 272.06 262.74 272.87C262.37 273.66 262.16 274.89 262.09 275.38C261.64 277.98 261.04 280.53 260.18 282.93C259.35 285.29 258.15 287.67 256.76 289.23C255.43 290.66 253.1 291.67 250.72 292.34C245.87 293.63 240.44 293.96 235.35 293.44C234.09 293.3 232.81 293.09 231.79 292.77C231.55 292.69 231.29 292.6 231.17 292.53C230.97 292.43 231.09 292.51 230.9 292.32C230.67 292.13 230.38 291.7 230.15 291.26C229.95 290.88 229.78 290.47 229.64 290.05C232.1 290.43 235.99 290.9 240.14 290.9C245.76 290.9 251.84 290.03 255.39 286.87C257.32 285.15 258.41 281.14 259.46 277.25C260.06 275.04 260.68 272.76 261.23 271.93C263.03 269.23 263.7 265.5 263.74 261.83L265.01 261.63C265.01 261.68 265.01 261.73 265.01 261.78C264.88 263.55 264.72 265.61 264.53 267.78V267.77ZM198.48 263.16C198.9 264.2 199.26 265.28 199.58 266.37C195.93 269.75 193.19 270.68 189.2 272.04C184.83 273.52 179.38 275.37 170.46 281.12C161.4 286.95 151.53 287.57 148.64 287.62C146.74 283.83 146.25 279.13 147.93 275.43C149.7 271.24 154.56 268.29 159.25 267.77C164.12 267.33 168.78 269.34 173.16 272.21L173.24 272.26C173.46 272.4 173.74 272.43 173.99 272.32C174.39 272.14 174.58 271.68 174.4 271.27C173.3 268.74 171.37 266.85 169.05 265.55C169.26 265.4 169.49 265.27 169.69 265.1C170.48 264.46 171.15 263.66 171.69 262.8C171.79 262.63 171.89 262.46 171.98 262.29C172.32 262.32 172.65 262.34 172.98 262.32C174.63 262.2 176.09 261.62 177.26 260.51C177.39 260.39 177.47 260.23 177.5 260.04C177.55 259.62 177.25 259.24 176.83 259.19L176.67 259.17C175.42 259.02 174.23 258.86 173.28 258.55C172.79 258.4 172.4 258.24 171.94 258.03C171.7 257.93 171.47 257.81 171.27 257.7C172.12 257.67 172.97 257.62 173.83 257.55C176.39 257.33 178.94 256.9 181.46 256.25C184.93 255.33 188.35 253.85 191.38 251.73C191.83 252.47 192.71 252.88 193.6 252.7C193.34 252.74 194.1 253.15 194.15 253.64C194.2 253.84 194.26 253.87 194.18 254.03C194.13 254.18 193.66 254.67 193.16 254.98C190.99 256.35 188.04 257.36 185.25 258.49C185 258.59 184.81 258.84 184.81 259.12C184.81 259.49 185.11 259.79 185.48 259.79C188.58 259.79 191.64 259.67 194.91 258.4C195.11 258.31 195.31 258.22 195.52 258.12C196.69 259.35 197.72 261.28 198.48 263.16ZM200.51 270.62C200.59 271.24 200.65 271.86 200.68 272.45C200.68 272.76 200.61 273.07 200.44 273.43C200.1 274.14 199.34 274.94 198.39 275.6C196.55 276.89 193.88 278.06 191.62 278.8C190.43 279.15 189.47 279.32 188.48 279.21C187.98 279.18 187.06 278.96 185.87 279.1C184.72 279.26 183.85 279.69 183.08 280.08C180.39 281.68 178.35 283.22 176.01 284.64C171.5 287.46 166.53 289.89 161.68 291.48C159.34 292.15 156.76 292.39 154.35 292.22C153.75 292.18 153.17 292.09 152.66 291.98C152.33 291.9 152.04 291.76 151.64 291.49C151.34 291.27 151.04 290.99 150.75 290.69C155.24 290.39 163.91 289.08 172.16 283.77C180.76 278.23 186 276.45 190.21 275.02C193.84 273.79 196.83 272.77 200.38 269.85C200.42 270.11 200.48 270.36 200.52 270.62H200.51ZM229.08 284.59C229.49 279.85 232.9 276.05 237.48 274.36C239.26 273.72 241.93 273.95 244.2 274.64C246.53 275.41 248.68 276.16 250.86 277.47L251 277.56C251.16 277.65 251.35 277.69 251.54 277.65C251.94 277.56 252.2 277.17 252.12 276.76C251.4 273.32 248.23 271.5 245.44 270.62C244.13 270.24 242.78 269.93 241.39 269.79C241.39 269.71 241.39 269.64 241.39 269.56C243.65 268.12 245.21 266.39 246.46 263.96C246.92 263.08 247.38 261.69 247.66 260.07C248.38 259.09 249.07 258.04 249.7 256.91C249.84 259.15 249.69 261.42 249.08 263.7C249 264.01 249.11 264.36 249.38 264.55C249.73 264.8 250.22 264.71 250.46 264.36C252.26 261.79 253.24 258.55 253.36 255.36C253.44 253.69 253.46 252.32 253.09 250.46C253.02 250.16 252.93 249.86 252.84 249.57C253.91 249.8 255 250.15 256.02 250.56C256.79 250.87 257.54 251.23 258.28 251.62L259.43 260.22C259.51 260.81 259.82 261.34 260.3 261.7C260.38 261.76 260.47 261.81 260.55 261.86C260.53 264.95 260.03 268.06 258.6 270.2C257.76 271.46 257.13 273.77 256.41 276.45C255.61 279.4 254.52 283.44 253.28 284.54C248.24 289.03 235.15 287.85 229.02 286.78C228.98 286.05 229 285.32 229.07 284.62L229.08 284.59ZM118.65 187.5C118.82 187.29 118.88 186.98 118.77 186.71C118.61 186.31 118.15 186.13 117.76 186.29C114.46 187.54 111.28 188.24 107.9 188.94C105.79 189.41 103.78 189.74 101.79 189.79L104.49 181.08C104.62 181.79 104.83 182.46 105.11 183.04C105.75 184.39 106.58 185.41 107.34 186.44C107.45 186.59 107.64 186.67 107.83 186.64C108.11 186.6 108.3 186.34 108.26 186.06C108.06 184.77 107.83 183.5 107.9 182.39C107.96 181.27 108.34 180.45 108.9 179.8C109.09 179.58 109.23 179.31 109.34 179.02C110.96 178.42 112.4 177.39 113.45 176.24C116.76 172.55 118.24 168.17 117.76 163.66C117.73 163.39 117.58 163.12 117.33 162.97C116.89 162.7 116.31 162.83 116.04 163.27L115.98 163.36C113.79 166.86 112.5 170.64 110.16 173.08C108.99 174.26 107.7 174.9 106.3 174.88C105.01 174.86 102.79 174.28 101.85 173.52C100.79 172.71 100.54 172 100.82 170.69C101.18 169.37 102.07 168.07 103.43 166.98C107.17 163.55 108.89 159.61 110.99 156.17C111.98 154.47 113.03 152.76 114.08 151.78C114.61 151.28 115 151.16 115.16 151.15C115.32 151.1 115.73 151.23 116.3 151.63C117.42 152.46 118.66 154.03 119.68 155.57C120.71 157.12 121.55 158.79 122.2 160.55C123.5 164.06 123.98 167.91 123.67 171.7C123.31 175.54 122.54 179.17 121.81 183.32C121.77 183.53 121.82 183.77 121.97 183.95C122.23 184.26 122.7 184.29 123.01 184.03C124.67 182.61 125.87 180.83 126.73 178.88C130.23 180.38 136.25 182.49 140.58 182.49C140.99 182.49 141.4 182.46 141.8 182.41C142.63 183.67 143.55 185.2 144.46 187.01C143.89 186.48 148.39 201.24 146.64 208.54C137.62 207.94 121.43 197.18 113.66 191.45C115.53 190.45 117.28 189.19 118.65 187.53V187.5ZM97.6402 146.34C97.0602 147.11 96.2302 148.65 96.9602 150.45C98.4702 154.2 103.53 154.72 105.58 154.77C104.34 157.01 103.16 159.22 101.85 161.02C95.5402 160.44 90.9202 155.98 89.7302 151.09C89.4302 149.84 89.6902 148.1 90.9602 147.01C92.3602 145.8 94.6802 145.58 97.6302 146.33L97.6402 146.34ZM126.03 127.35C125.65 134.51 117.84 138.65 115.14 139.53C112.79 140.3 111.77 142.39 111.57 143.37L110.06 148.23C109.73 148.57 109.41 148.91 109.13 149.25L111.01 143.2C111.04 143.06 111.07 142.86 111.12 142.64L107.63 141.73L106.39 145.76C106.14 146.54 105.6 148.28 104.88 150.6C103.58 150.18 102.3 149.43 101.68 148.48C102.94 144.43 103.86 141.46 104.17 140.51C105.04 137.78 103.65 135.51 102.31 133.32C100.92 131.04 99.4802 128.69 99.5902 125.17C99.7402 120.44 102.45 117.44 104.51 115.83L103.98 124.89C103.96 125.15 104.02 125.41 104.14 125.65C104.24 125.84 106.54 130.29 112.92 130.66C119.33 131 121.94 127.05 122.04 126.89C122.16 126.7 122.24 126.49 122.26 126.26L123.29 117.65C124.68 119.36 126.29 122.43 126.03 127.36V127.35ZM169.07 151.49C169.74 151.49 170.42 151.45 171.13 151.39C171.44 151.46 171.77 151.47 172.1 151.39C172.41 151.31 172.72 151.23 173.04 151.15C173.31 151.11 173.57 151.06 173.85 151.01L175.61 156.16C169.12 153.6 162.93 154.37 158.97 155.44C159.74 153.2 160.79 151.47 161.77 150.19C164.23 151.04 166.54 151.5 169.08 151.5L169.07 151.49ZM207.79 138.07C212.81 139.74 219.49 145.53 221.71 148.42C215.54 148.21 205.15 148.97 199.02 155.12C196.65 157.5 194.3 159.16 192.19 160.32C195.18 156.44 200.65 147.41 202.32 140.88C203.22 140.45 204.13 140.03 205.02 139.58C205.95 139.11 206.87 138.6 207.79 138.07ZM184.9 161.29L180.95 153.72L193.79 144.53C194.72 144.17 195.65 143.8 196.58 143.42C196.24 144.29 195.85 145.15 195.44 146.01C193.94 149.11 192.01 152.12 190.12 154.74C188.18 157.43 186.28 159.71 184.9 161.28V161.29ZM99.0902 164.02C97.6802 165.47 96.4702 167.33 95.9502 169.56C95.9202 169.67 95.9102 169.8 95.8902 169.91C89.8602 170.21 84.6802 167.29 82.2002 164.13C80.8402 162.39 80.3602 160.7 80.9002 159.48C82.3002 156.33 85.8702 156.89 87.4202 157.3C89.8902 160.85 93.9102 163.19 99.0902 164.02ZM82.4802 170.72C85.3902 172.73 89.1502 174.25 93.3302 174.59C94.3602 174.67 95.4302 174.68 96.5102 174.6C96.8302 175.25 97.2402 175.83 97.7102 176.34C97.7102 176.42 97.7102 176.5 97.7202 176.58C97.8502 177.49 98.8802 180.96 92.5302 182.27C87.8102 183.24 81.0202 180.34 79.5502 176.73C78.6202 174.44 80.3902 172.31 82.4802 170.7V170.72ZM74.0402 207.07C74.4202 199.91 82.2202 195.77 84.9302 194.89C85.0502 194.85 85.1502 194.8 85.2702 194.75C88.0802 194.09 90.8802 194.78 90.8802 194.78C89.6702 193.71 88.6302 193.06 87.7902 192.66C88.1802 192.06 88.4202 191.45 88.5302 191C88.6202 190.7 89.0602 189.29 89.7202 187.14C91.0502 187.22 92.3302 187.15 93.4902 186.91C93.9502 186.82 94.3702 186.7 94.7802 186.59C94.6302 187.42 94.4402 188.34 94.1902 189.37C93.6402 191.63 90.2002 192.72 90.2002 192.72L95.2702 194.14C95.3002 194.01 95.3202 193.88 95.3602 193.75L97.9702 185.33C98.2302 185.19 98.4902 185.04 98.7202 184.89L95.9202 193.93C95.0502 196.66 96.4302 198.93 97.7802 201.12C99.1702 203.4 100.61 205.75 100.5 209.27C100.35 214 97.6402 217 95.5802 218.61L96.1202 209.55C96.1402 209.29 96.0802 209.03 95.9602 208.79C95.8602 208.6 93.5602 204.15 87.1802 203.78C86.8802 203.76 86.6002 203.75 86.3202 203.76C80.5502 203.77 78.1602 207.4 78.0602 207.56C77.9402 207.75 77.8602 207.96 77.8402 208.19L76.8102 216.8C75.4202 215.09 73.8102 212.02 74.0702 207.09L74.0402 207.07ZM159.86 203.39C158.84 204.15 157.86 204.83 157.01 205.42C156.22 205.96 155.54 206.43 155.04 206.82C153.22 190.4 146.6 180.48 143.34 176.5C144.58 175.47 145.79 174.35 146.94 173.2C147.6 172.54 148.25 171.87 148.88 171.2C152.48 167.34 155.41 163.41 157.09 161.04C159.36 159.99 172.05 154.93 182.58 166.91C182.71 167.05 182.85 167.18 183 167.28C183.03 167.3 183.07 167.32 183.1 167.34C183.23 167.42 183.37 167.49 183.51 167.55C183.25 171.62 183.55 175.75 184.58 179.74C185.19 182.21 186.03 184.64 187.24 186.89C188.43 189.15 189.93 191.24 191.96 192.88C192.09 192.99 192.28 193.01 192.43 192.92C192.64 192.81 192.71 192.55 192.6 192.34L192.57 192.29C190.27 188.08 188.74 183.6 187.74 179.02C187.01 175.2 186.73 171.31 186.75 167.39C189.99 166.72 196.12 164.69 202.32 158.47C209.56 151.22 225.77 153.47 225.92 153.49C226.8 153.6 227.67 153.24 228.18 152.53C228.69 151.81 228.77 150.87 228.36 150.09C228.23 149.84 225.7 146.1 221.81 142.16C227.33 142.34 236.97 143.28 247.76 147.14C248.63 147.45 249.51 147.79 250.39 148.13C251.98 148.76 253.59 149.45 255.21 150.22C251.92 154.48 246 164.32 245.41 180.51C244.64 180.29 243.72 180.05 242.71 179.83C241.85 179.64 240.89 179.45 239.88 179.28C237.86 178.94 235.56 178.67 233.04 178.57C233.04 178.57 233.04 178.57 233.04 178.56C232.52 176.35 229.47 170.44 228.66 168.15V168.11C228.59 167.94 228.45 167.79 228.27 167.72C227.94 167.59 227.56 167.76 227.43 168.09C226.95 169.33 228.17 176.23 229.69 182.9V183.24C229.69 183.24 229.74 183.24 229.77 183.24C230.48 186.34 231.26 189.35 231.96 191.71C232.07 193.18 232.79 196.4 234.93 197.51C236.25 198.23 239.19 199.69 240.61 199.9C241.17 199.99 242.98 205.84 231.54 203.46C220.67 201.56 214.18 201.44 209.81 202.12C203.2 202.68 199.84 204.79 198.24 206.32C189.13 203.89 187.21 203.5 183.44 203.23C181.05 203.02 178.61 203.21 176.25 203.76C168.2 184.26 166.96 163.81 167 163.6L165.9 161.75C165.78 162.5 164.08 174.57 168.59 193.59C168.21 193.84 167.9 194.2 167.71 194.64C166.19 198.21 162.83 201.17 159.82 203.41L159.86 203.39ZM280.75 172.24C280.45 172.47 280.16 172.72 279.9 173.01C279.75 173.17 279.66 173.39 279.65 173.63C279.62 174.18 280.04 174.65 280.59 174.67H280.68C283.05 174.79 284.87 174.34 286.95 174.47C288.99 174.6 291.03 175.12 292.94 175.95C296.78 177.63 300.1 180.33 302.32 183.82C304.55 187.28 305.65 191.52 305.33 195.54C305.16 197.51 304.68 199.6 303.74 200.9C303.22 201.74 302.42 202.24 301.59 202.44C301.64 201.99 301.68 201.54 301.7 201.11C301.96 197.69 300.73 194.43 299.45 191.67C297.96 188.95 296.4 185.99 293.1 184.48C292.8 184.34 292.44 184.4 292.2 184.66C291.9 184.98 291.92 185.47 292.23 185.77L292.36 185.89C294.17 187.6 295.2 190.42 296.02 193.04C296.91 195.76 297.34 198.35 297.2 200.89C297.08 203.09 296.39 205.12 295.19 206.47C293.58 207.18 291.8 207.97 289.93 208.8C290.68 206.62 290.94 204.31 290.79 202.19C290.53 197.01 287.95 191.92 283.54 189.2C283.21 189 282.79 189 282.46 189.23C282.01 189.54 281.9 190.16 282.22 190.61L282.31 190.73C284.78 194.26 286.26 198.32 286.4 202.39C286.67 206.29 285.32 210.13 282.46 212.11C281.69 212.45 280.93 212.79 280.17 213.13C277.41 213.56 273.68 212.05 272.12 209.92C271.18 208.66 271.67 207.13 273.01 205.66C274.11 204.28 276.13 204.13 277.95 205.03L278.06 205.08C278.4 205.25 278.82 205.17 279.07 204.86C279.36 204.51 279.31 203.98 278.96 203.69C278.69 203.47 278.41 203.26 278.12 203.08C277.51 201.78 275.7 197.44 276.46 193.49C276.71 192.17 272.71 190.67 270.25 193.45C269.6 194.18 268.72 196.33 269.87 197.35C271.05 198.4 271.55 198.6 270.55 199.02C270.05 199.23 269.69 199.49 269.38 199.76C268.75 200.14 268.2 200.56 267.72 201C267.06 200.39 266.48 199.65 265.99 198.81C264.9 196.93 264.52 194.73 264.32 192.29C264.12 189.88 264.41 187.55 265.17 185.62C265.91 183.66 267.41 182.09 269.62 180.65C269.88 180.47 270.06 180.16 270.03 179.82C269.99 179.32 269.56 178.93 269.05 178.97C266.67 179.12 264.01 180.36 262.28 182.49H261.86C258.65 181.36 256.06 180.73 254.05 180.39C252.41 172.46 255.48 158.85 255.49 158.77C255.93 157.9 256.37 157.1 256.79 156.38C260.79 157.65 273.11 162.22 280.75 172.22V172.24ZM309.99 206.72C309.99 206.72 310.03 206.77 310.11 206.84C310.36 207.03 311.05 207.37 312.49 207C312.51 207 312.53 207 312.55 206.99C313.55 206.72 313.95 206.3 314.12 205.98C316.16 206.39 318.08 207.22 319.77 208.47C322.12 210.2 323.76 212.58 324.53 215.25L323.19 215.83L312.96 220.29L312.31 217.9C312.23 217.59 312.01 217.33 311.72 217.19C311.43 217.05 311.09 217.04 310.8 217.17L305.43 219.49C304.92 219.71 304.66 220.27 304.8 220.8L305.54 223.52L292.96 229C291.86 225.61 289.73 222.63 286.75 220.43C285.03 219.16 283.09 218.23 281.04 217.61C285.6 215.59 290.5 213.41 294.68 211.56C297.58 210.27 300.14 209.14 301.97 208.34L303.12 207.82C305.05 206.95 306.88 206.13 308.74 205.84C309.06 205.79 309.38 205.77 309.7 205.74L309.99 206.72ZM326.48 237.17L296.27 251.52L293.85 233.45L306.72 227.84L307.96 232.42C308.04 232.73 308.26 232.99 308.55 233.13C308.72 233.21 308.91 233.25 309.1 233.24C309.23 233.24 309.35 233.2 309.47 233.15L314.84 230.84C315.35 230.62 315.61 230.06 315.47 229.53L314.13 224.61L323.99 220.32L325.28 219.76L327.61 236.64L326.47 237.18L326.48 237.17ZM268.62 201.42C269.74 200.56 271.03 199.83 272.47 199.78C272.54 199.78 272.6 199.83 272.6 199.9C272.6 199.95 272.58 199.99 272.54 200.02C271.37 200.71 270.28 201.4 269.29 202.23C268.33 203.07 267.68 204.15 267.38 205.34C266.7 207.75 268.06 210.33 268.12 213.11C268.12 213.18 268.07 213.25 268 213.26C267.95 213.26 267.89 213.23 267.87 213.19C267.25 211.96 266.84 210.66 266.42 209.36C266.03 208.01 265.88 206.51 266.22 205.06C266.54 203.59 267.51 202.34 268.63 201.44L268.62 201.42ZM256.84 192.54C256.86 196.16 257.83 199.75 259.56 202.63C260.32 203.92 261.24 205.04 262.41 206.07C262.29 207.37 262.41 208.63 262.77 209.88L264.76 216.73C264.25 217.01 263.78 217.29 263.38 217.56C263.38 217.56 259.99 219.68 257.14 223.48C254.07 227.56 252.91 232.72 253.66 237.81L254.29 242.48C253.17 242.26 251.98 242.12 250.72 242.12C250.44 242.12 250.15 242.13 249.86 242.14C249.36 241.92 248.85 241.72 248.24 241.55C246.21 240.21 244.25 238.87 242.5 237.61C245.52 235 246.98 231.71 248.16 225.68C248.26 225.17 248.34 224.67 248.41 224.18H248.42C248.43 224.1 248.44 223.99 248.45 223.91C249.19 218.22 247.94 213.92 246.3 210.89C248.28 208.91 249.45 206.62 249.77 204.15C249.95 203.36 250.04 202.58 250.01 201.5C249.9 200.02 249.45 198.64 248.64 197.28C247.1 194.7 244.48 192.95 241.58 192.59C241.25 192.55 240.9 192.46 240.49 192.3C240.06 191.43 239.36 189.76 238.33 186.57C242.64 187.26 245.46 188.33 245.83 188.47C247.42 189.11 249.28 188.91 250.64 187.98C251.02 187.72 251.35 187.42 251.64 187.08C252.84 187.22 254.65 187.55 257.09 188.27C256.85 189.92 256.83 191.42 256.84 192.54ZM228.11 209.25C230.72 209.51 235.79 209.82 238.45 209.37L238.56 209.76C236.03 210.82 230.78 210.96 227.99 210.84C225.16 210.76 222.54 210.1 219.88 209.76C214.59 208.98 208.94 206.9 203.73 207.84C209.15 206.59 214.84 206.85 220.19 207.85C222.88 208.29 225.53 208.94 228.1 209.25H228.11ZM166.54 215.24C167.51 213.82 168.7 212.56 170.04 211.49C168.19 213.48 166.93 215.81 166.1 218.3C166.32 218.2 166.54 218.16 166.75 218.2C168.02 218.45 168.5 221.41 167.82 224.79C167.21 227.83 165.88 230.18 164.69 230.44C164.76 231.99 164.89 233.47 165.05 234.8C165.8 240.97 167.45 247.25 169.77 253.07C169.15 253.07 168.53 253.05 167.93 253.01C165.53 247.08 163.85 240.64 163.08 234.33C162.72 231.26 162.65 228.13 163.02 225.12C163.02 225.1 163.02 225.08 163.02 225.05C163.47 221.48 164.55 218.09 166.53 215.24H166.54ZM208.89 243.22C215.29 243.22 226.24 243.19 233.73 239.68C233.77 239.71 233.81 239.74 233.84 239.78C224.69 245.87 210.02 245.16 203.5 244.46C202.79 243.87 202.1 243.27 201.41 242.68C203.69 243 206.2 243.22 208.88 243.22H208.89ZM265.62 257.04L263.54 257.36L260.8 236.83C259.73 229.52 265.24 222.59 273.09 221.38C273.17 221.37 273.26 221.36 273.34 221.35C273.74 221.3 274.14 221.25 274.53 221.22C277.99 221.02 281.42 221.99 284.12 223.99C286.26 225.57 287.82 227.68 288.66 230.06L263.06 234.13C263.01 235.23 263.07 236.18 263.11 236.87C263.13 237.24 263.19 237.84 263.27 238.59L289.51 234.41L291.99 252.95L265.62 257.03V257.04ZM307.2 221.13L310.52 219.7L311.38 222.87L308.03 224.17L307.2 221.12V221.13ZM313.09 229.17L309.77 230.6L308.61 226.33L311.96 225.03L313.09 229.17ZM240.92 104.84C235.68 109.45 228.12 111.92 220.89 112.86C220.54 111.66 220.03 110.53 219.18 109.49C219.08 109.37 218.94 109.28 218.78 109.24C218.38 109.15 217.99 109.39 217.89 109.79V109.82C217.15 112.93 217.29 115.24 216.88 117.97C216.52 120.67 215.92 123.35 214.86 125.61C212.88 129.71 207.53 132.58 202.73 135.1C200.42 136.28 198.04 137.37 195.63 138.4L195.6 138.34C194.95 138.63 194.33 138.91 193.71 139.19C191.54 140.08 189.35 140.93 187.14 141.73C181.93 143.7 176.58 145.45 171.29 147.13C167.3 147.6 164.47 146.83 160.97 145.34C158.53 144.31 137.04 134.33 132.25 101.81C131.96 99.8799 132.03 96.0399 132.26 93.2299C133.11 89.2999 133.78 86.7499 136.12 83.6599L136.21 83.5499C136.74 82.8399 136.86 81.8699 136.44 81.0299C135.49 79.1199 134.58 76.9999 134.02 75.0299C133.73 73.9799 133.6 73.1999 133.72 72.4999C133.81 71.6499 134.15 70.5799 134.47 69.5699C135.7 66.0899 137.38 62.5699 139.17 59.1599C139.49 59.2599 139.81 59.3599 140.13 59.4499C149.42 62.0299 159.85 59.6599 159.92 58.5899C160 57.4199 155.13 55.7799 152.58 53.8999C150.4 52.2899 150.33 50.3399 150.33 50.3399C150.33 50.3399 160.14 54.3899 169.5 54.9799C188.85 56.1999 207.7 52.8299 209.77 56.6199C210.54 58.0199 211.17 71.4399 211.17 71.4399L214.84 71.8099C214.84 71.8099 211.43 89.0999 218.01 100.94C218.07 101.21 218.26 101.44 218.54 101.53C218.95 101.67 219.4 101.44 219.54 101.02L219.56 100.95C221.94 93.6699 223.55 85.6599 229.44 81.7699C232.24 79.8299 235.75 79.1599 239.03 79.7899C242.25 80.4099 244.59 82.5899 245.64 85.7899C246.75 88.9399 246.93 92.8099 246.22 96.1299C245.47 99.4999 243.58 102.49 240.92 104.83V104.84ZM143.08 16.3099C141.04 17.9399 139.25 19.7199 137.73 21.7099C136.23 23.7099 134.92 25.8499 133.9 28.1299C131.85 32.6999 130.5 37.6799 130.34 42.8799C130.34 43.0899 130.18 43.2599 129.97 43.2699C129.81 43.2699 129.66 43.1599 129.61 43.0199C128.68 40.3999 128.61 37.5699 128.87 34.8299C129.12 32.0799 129.87 29.3699 130.97 26.8099C132.11 24.2599 133.64 21.8599 135.63 19.8699C137.59 17.8799 139.93 16.2199 142.56 15.3399C142.85 15.2399 143.17 15.3999 143.26 15.6899C143.34 15.9199 143.26 16.1599 143.08 16.2999V16.3099ZM133.2 127.54C139.56 139.39 147.93 145.99 153.5 149.33C152.3 151.62 151.43 154.12 150.9 156.81C148.44 160.28 142.81 167.71 136.87 172.05C136.09 172.62 135.5 173.39 135.15 174.27C133.71 173.89 132.3 173.41 131.12 172.93C131.14 172.76 131.16 172.59 131.18 172.43C131.71 167.51 131.18 162.5 129.64 157.97C128.84 155.61 127.77 153.35 126.43 151.21C125.15 149.23 123.68 147.14 121.04 145.07C120.94 145 120.85 144.93 120.75 144.86C125.73 142.22 132.72 136.6 133.19 127.72C133.19 127.66 133.19 127.6 133.19 127.54H133.2Z" fill="#16205B"/>
<path d="M168.63 193.57C164.12 174.55 165.82 162.48 165.94 161.73L167.04 163.58C167.01 163.79 168.25 184.24 176.29 203.74C178.65 203.19 181.09 202.99 183.48 203.21C187.25 203.48 189.17 203.87 198.28 206.3C199.88 204.77 203.23 202.66 209.85 202.1C214.21 201.42 220.71 201.54 231.58 203.44C243.01 205.81 241.2 199.97 240.65 199.88C239.23 199.67 236.29 198.22 234.97 197.49C232.84 196.38 232.11 193.16 232 191.69C231.3 189.33 230.53 186.32 229.81 183.22C229.79 183.22 229.76 183.22 229.74 183.22V182.88C228.21 176.21 226.99 169.31 227.47 168.07C227.6 167.74 227.97 167.57 228.31 167.7C228.49 167.77 228.63 167.91 228.69 168.09V168.13C229.52 170.42 232.56 176.32 233.08 178.54C233.08 178.54 233.08 178.54 233.08 178.55C235.6 178.65 237.9 178.92 239.92 179.26C238.77 164.7 245.28 151.59 247.8 147.12C237.01 143.27 227.37 142.32 221.85 142.14C225.74 146.08 228.27 149.83 228.4 150.07C228.8 150.86 228.73 151.8 228.22 152.51C227.71 153.22 226.84 153.58 225.96 153.47C225.8 153.45 209.59 151.2 202.36 158.45C196.16 164.67 190.03 166.7 186.79 167.37C186.76 171.29 187.04 175.19 187.78 179C188.77 183.58 190.31 188.06 192.61 192.27L192.64 192.32C192.75 192.53 192.68 192.79 192.47 192.9C192.31 192.99 192.13 192.96 192 192.86C189.97 191.22 188.47 189.12 187.28 186.87C186.06 184.62 185.23 182.19 184.62 179.72C183.59 175.74 183.29 171.6 183.55 167.53C183.41 167.48 183.27 167.4 183.14 167.32C183.11 167.3 183.07 167.29 183.04 167.26C182.89 167.15 182.75 167.03 182.62 166.89C172.09 154.91 159.4 159.97 157.13 161.02C155.46 163.39 152.52 167.32 148.92 171.18C151.54 174.09 160.22 185.15 159.89 203.38C162.89 201.14 166.26 198.18 167.78 194.61C167.97 194.16 168.28 193.8 168.66 193.56L168.63 193.57ZM221.93 185.23C221.93 185.23 213.33 187.36 210.22 186.99C205.11 186.38 205.84 178.33 205.12 174.31C209.69 174.15 216.04 172.87 218.91 171.98C219.3 174.77 220.12 182.36 221.93 185.23ZM204.67 169.64C204.67 169.64 210.1 169.73 218.6 166.39C218.6 166.39 218.52 167.21 218.63 169.33C212.08 171.53 206.94 172.24 204.84 172.44C204.66 170.8 204.67 169.64 204.67 169.64ZM188.44 172.74C188.11 171.25 188.78 169.83 189.93 169.58C191.08 169.33 192.27 170.34 192.6 171.83C192.93 173.32 192.26 174.74 191.11 174.99C189.96 175.24 188.77 174.23 188.44 172.74ZM190.41 181.89C190.08 180.4 190.75 178.98 191.9 178.73C193.05 178.48 194.24 179.49 194.57 180.98C194.9 182.47 194.23 183.89 193.08 184.14C191.93 184.39 190.74 183.38 190.41 181.89Z" fill="#0372FF"/>
<path d="M190.109 154.75C191.999 152.12 193.929 149.12 195.429 146.02L190.109 154.75Z" fill="#0372FF"/>
<path d="M242.75 179.8C243.76 180.03 244.681 180.26 245.451 180.48C246.051 164.29 251.96 154.46 255.25 150.19C253.63 149.42 252.021 148.73 250.431 148.1C248.241 151.96 241.35 165.41 242.75 179.79V179.8Z" fill="#F15928"/>
<path d="M239.92 179.25C240.94 179.42 241.89 179.61 242.75 179.8C241.35 165.42 248.23 151.96 250.43 148.11C249.55 147.76 248.67 147.43 247.8 147.12C245.28 151.58 238.78 164.7 239.92 179.26V179.25Z" fill="#E1EAF9"/>
<path d="M146.95 173.19C145.79 174.34 144.59 175.46 143.35 176.49C146.61 180.47 153.24 190.39 155.05 206.81C155.55 206.42 156.23 205.95 157.02 205.41C158.04 187.38 149.5 176.12 146.96 173.18L146.95 173.19Z" fill="#F15928"/>
<path d="M148.901 171.19C148.271 171.86 147.621 172.53 146.961 173.19C149.511 176.13 158.041 187.39 157.021 205.42C157.871 204.83 158.851 204.15 159.871 203.39C160.201 185.16 151.521 174.1 148.901 171.19Z" fill="#E1EAF9"/>
<path d="M253.29 284.51C254.52 283.41 255.62 279.37 256.42 276.42C257.15 273.75 257.77 271.44 258.61 270.17C260.04 268.03 260.55 264.92 260.56 261.83C260.47 261.78 260.39 261.73 260.31 261.67C259.83 261.31 259.52 260.78 259.44 260.19L258.29 251.59C257.55 251.2 256.8 250.84 256.03 250.53C255.01 250.12 253.92 249.78 252.85 249.54C252.94 249.83 253.03 250.13 253.1 250.43C253.48 252.29 253.45 253.66 253.37 255.33C253.24 258.52 252.27 261.76 250.47 264.33C250.22 264.68 249.74 264.77 249.39 264.52C249.12 264.33 249.01 263.98 249.09 263.67C249.7 261.38 249.85 259.12 249.71 256.88C249.08 258.01 248.39 259.07 247.67 260.04C247.39 261.66 246.93 263.05 246.47 263.93C245.22 266.36 243.65 268.1 241.4 269.53C241.4 269.6 241.4 269.68 241.4 269.76C242.79 269.9 244.14 270.21 245.45 270.59C248.24 271.47 251.41 273.29 252.13 276.73C252.22 277.13 251.96 277.53 251.55 277.62C251.36 277.66 251.17 277.62 251.01 277.53L250.87 277.44C248.68 276.13 246.54 275.38 244.21 274.61C241.94 273.92 239.27 273.69 237.49 274.33C232.91 276.02 229.5 279.82 229.09 284.56C229.02 285.27 229 286 229.04 286.72C235.17 287.79 248.26 288.96 253.3 284.48L253.29 284.51ZM236.39 281.31C234.37 283.33 232.08 284.32 231.29 283.52C230.5 282.72 231.48 280.44 233.5 278.42C235.52 276.4 237.81 275.41 238.6 276.21C239.39 277.01 238.41 279.29 236.39 281.31Z" fill="#0372FF"/>
<path d="M265.011 261.62L263.741 261.82C263.711 265.49 263.031 269.23 261.231 271.92C260.671 272.76 260.051 275.04 259.461 277.24C258.411 281.12 257.321 285.13 255.391 286.86C251.841 290.02 245.771 290.89 240.141 290.89C236.001 290.89 232.101 290.42 229.641 290.04C229.791 290.47 229.951 290.88 230.151 291.25C230.381 291.68 230.671 292.12 230.901 292.31C231.081 292.5 230.971 292.42 231.171 292.52C231.301 292.59 231.551 292.68 231.791 292.76C232.811 293.09 234.091 293.3 235.351 293.43C240.451 293.95 245.871 293.62 250.721 292.33C253.101 291.67 255.431 290.65 256.761 289.22C258.151 287.66 259.351 285.27 260.181 282.92C261.041 280.52 261.641 277.97 262.091 275.37C262.161 274.89 262.371 273.65 262.741 272.86C263.081 272.05 263.441 271.41 263.721 270.86C264.001 270.29 264.141 269.96 264.211 269.55L264.531 267.76C264.731 265.59 264.891 263.52 265.011 261.76C265.011 261.71 265.011 261.66 265.011 261.61V261.62Z" fill="#E1EAF9"/>
<path d="M233.501 278.41C231.481 280.43 230.491 282.72 231.291 283.51C232.091 284.3 234.371 283.32 236.391 281.3C238.411 279.28 239.401 276.99 238.601 276.2C237.801 275.41 235.521 276.39 233.501 278.41Z" fill="#E1EAF9"/>
<path d="M233.85 239.78C233.85 239.78 233.77 239.72 233.74 239.68C226.24 243.19 215.3 243.22 208.9 243.22C206.22 243.22 203.7 243 201.43 242.68C202.11 243.27 202.81 243.87 203.52 244.46C210.04 245.16 224.71 245.87 233.86 239.78H233.85Z" fill="#0372FF"/>
<path d="M194.921 258.39C191.651 259.66 188.591 259.77 185.491 259.78C185.121 259.78 184.821 259.48 184.821 259.11C184.821 258.83 185.011 258.58 185.261 258.48C188.051 257.36 191.001 256.35 193.171 254.97C193.671 254.66 194.141 254.16 194.191 254.02C194.271 253.86 194.211 253.83 194.161 253.63C194.111 253.14 193.351 252.74 193.611 252.69C192.721 252.88 191.841 252.46 191.391 251.72C188.361 253.84 184.941 255.32 181.471 256.24C178.951 256.89 176.401 257.32 173.841 257.54C172.981 257.61 172.131 257.65 171.281 257.69C171.481 257.8 171.701 257.91 171.951 258.02C172.401 258.23 172.791 258.39 173.291 258.54C174.241 258.85 175.421 259.02 176.681 259.16L176.841 259.18C177.261 259.23 177.561 259.61 177.511 260.03C177.491 260.22 177.401 260.38 177.271 260.5C176.101 261.6 174.641 262.19 172.991 262.31C172.671 262.33 172.331 262.31 171.991 262.28C171.901 262.45 171.801 262.62 171.701 262.79C171.151 263.65 170.491 264.45 169.701 265.09C169.501 265.26 169.281 265.39 169.061 265.54C171.381 266.83 173.311 268.73 174.411 271.26C174.591 271.66 174.411 272.13 174.001 272.31C173.751 272.42 173.471 272.39 173.251 272.25L173.171 272.2C168.801 269.33 164.141 267.32 159.261 267.76C154.571 268.28 149.711 271.23 147.941 275.42C146.261 279.12 146.751 283.82 148.651 287.61C151.541 287.56 161.411 286.94 170.471 281.11C179.401 275.36 184.841 273.51 189.211 272.03C193.201 270.67 195.941 269.74 199.591 266.36C199.281 265.27 198.921 264.19 198.491 263.15C197.731 261.27 196.701 259.34 195.531 258.11C195.331 258.21 195.121 258.3 194.921 258.39ZM154.491 276.04C152.611 278.19 150.391 279.32 149.541 278.58C148.691 277.84 149.531 275.49 151.411 273.34C153.291 271.19 155.511 270.06 156.361 270.8C157.211 271.54 156.371 273.89 154.491 276.04Z" fill="#0372FF"/>
<path d="M151.421 273.34C149.541 275.49 148.701 277.83 149.551 278.58C150.401 279.33 152.621 278.19 154.501 276.04C156.381 273.89 157.221 271.55 156.371 270.8C155.521 270.05 153.301 271.19 151.421 273.34Z" fill="#E1EAF9"/>
<path d="M172.16 283.77C163.91 289.08 155.24 290.39 150.75 290.69C151.04 290.99 151.34 291.27 151.64 291.49C152.04 291.75 152.33 291.89 152.66 291.98C153.17 292.1 153.75 292.18 154.35 292.22C156.76 292.39 159.34 292.15 161.68 291.48C166.52 289.89 171.5 287.46 176.01 284.64C178.35 283.22 180.4 281.67 183.08 280.08C183.85 279.68 184.72 279.25 185.87 279.1C187.05 278.95 187.98 279.17 188.48 279.21C189.47 279.32 190.43 279.15 191.62 278.8C193.88 278.06 196.54 276.9 198.39 275.6C199.33 274.93 200.09 274.14 200.44 273.43C200.61 273.07 200.68 272.76 200.68 272.45C200.65 271.86 200.6 271.25 200.51 270.62C200.47 270.37 200.42 270.11 200.37 269.85C196.83 272.77 193.83 273.79 190.2 275.02C185.99 276.45 180.75 278.23 172.15 283.77H172.16Z" fill="#E1EAF9"/>
<path d="M255.49 158.79C255.47 158.87 252.4 172.47 254.05 180.41C256.06 180.75 258.65 181.38 261.86 182.5H262.28C264.02 180.38 266.67 179.14 269.05 178.99C269.55 178.95 269.99 179.34 270.03 179.84C270.05 180.18 269.88 180.49 269.62 180.67C267.42 182.11 265.91 183.69 265.17 185.64C264.4 187.57 264.12 189.9 264.32 192.31C264.52 194.75 264.89 196.95 265.99 198.83C266.48 199.66 267.07 200.41 267.72 201.02C268.2 200.57 268.74 200.16 269.38 199.78C269.68 199.51 270.05 199.25 270.55 199.04C271.54 198.62 271.04 198.41 269.87 197.37C268.72 196.35 269.6 194.2 270.25 193.47C272.71 190.69 276.71 192.19 276.46 193.51C275.7 197.47 277.51 201.8 278.12 203.1C278.41 203.28 278.69 203.49 278.96 203.71C279.31 204 279.37 204.53 279.07 204.88C278.82 205.18 278.4 205.27 278.06 205.1L277.95 205.05C276.13 204.14 274.11 204.3 273.01 205.68C271.67 207.15 271.18 208.68 272.12 209.94C273.68 212.07 277.41 213.58 280.17 213.15C280.93 212.81 281.69 212.47 282.46 212.13C285.33 210.15 286.68 206.31 286.4 202.41C286.26 198.34 284.79 194.28 282.31 190.75L282.22 190.63C281.91 190.18 282.02 189.57 282.46 189.25C282.79 189.02 283.22 189.02 283.54 189.22C287.96 191.93 290.53 197.02 290.79 202.21C290.94 204.33 290.68 206.64 289.93 208.82C291.79 207.99 293.57 207.21 295.19 206.49C296.38 205.14 297.07 203.11 297.2 200.91C297.34 198.37 296.91 195.78 296.02 193.06C295.2 190.45 294.17 187.62 292.36 185.91L292.23 185.79C291.91 185.49 291.9 184.99 292.2 184.68C292.44 184.43 292.8 184.37 293.1 184.5C296.39 186 297.96 188.97 299.45 191.69C300.72 194.45 301.96 197.72 301.7 201.13C301.68 201.56 301.64 202.01 301.59 202.46C302.42 202.26 303.22 201.76 303.74 200.92C304.69 199.62 305.16 197.53 305.33 195.56C305.65 191.54 304.55 187.3 302.32 183.84C300.1 180.35 296.78 177.65 292.94 175.97C291.02 175.13 288.98 174.62 286.95 174.49C284.87 174.36 283.05 174.82 280.68 174.7H280.59C280.04 174.67 279.62 174.2 279.65 173.65C279.66 173.41 279.76 173.2 279.9 173.03C280.16 172.74 280.45 172.49 280.75 172.26C273.12 162.26 260.79 157.69 256.79 156.42C256.36 157.14 255.93 157.94 255.49 158.81V158.79Z" fill="#E1EAF9"/>
<path d="M144.451 186.98C143.531 185.18 142.621 183.65 141.791 182.38C141.391 182.43 140.981 182.46 140.571 182.46C136.251 182.46 130.231 180.35 126.721 178.85C125.861 180.79 124.671 182.58 123.001 184C122.691 184.26 122.231 184.23 121.961 183.92C121.811 183.75 121.761 183.5 121.801 183.29C122.531 179.14 123.301 175.51 123.661 171.67C123.971 167.88 123.491 164.03 122.191 160.52C121.541 158.76 120.701 157.09 119.671 155.54C118.651 154 117.411 152.43 116.291 151.6C115.721 151.2 115.311 151.08 115.151 151.12C114.981 151.13 114.601 151.26 114.071 151.75C113.021 152.73 111.961 154.44 110.981 156.14C108.871 159.58 107.161 163.51 103.421 166.95C102.061 168.04 101.171 169.35 100.811 170.66C100.531 171.97 100.771 172.68 101.841 173.49C102.791 174.25 105.011 174.84 106.291 174.85C107.691 174.87 108.971 174.23 110.151 173.05C112.491 170.61 113.781 166.83 115.971 163.33L116.031 163.24C116.301 162.8 116.881 162.67 117.321 162.94C117.571 163.1 117.721 163.36 117.751 163.63C118.231 168.13 116.751 172.52 113.441 176.21C112.401 177.36 110.961 178.39 109.331 178.99C109.221 179.28 109.081 179.55 108.891 179.77C108.331 180.42 107.951 181.24 107.891 182.36C107.821 183.46 108.051 184.74 108.251 186.03C108.291 186.31 108.101 186.57 107.821 186.61C107.631 186.64 107.441 186.55 107.331 186.41C106.571 185.38 105.741 184.36 105.101 183.01C104.821 182.43 104.611 181.76 104.481 181.05L101.781 189.76C103.771 189.71 105.781 189.38 107.891 188.91C111.271 188.21 114.461 187.5 117.751 186.26C118.151 186.1 118.601 186.29 118.761 186.68C118.871 186.95 118.801 187.26 118.641 187.47C117.261 189.13 115.521 190.4 113.651 191.39C121.421 197.12 137.611 207.88 146.631 208.48C148.371 201.18 143.881 186.42 144.451 186.95V186.98Z" fill="#E1EAF9"/>
<path d="M163.081 234.32C163.851 240.63 165.531 247.07 167.931 253C168.531 253.03 169.151 253.05 169.771 253.06C167.461 247.24 165.811 240.96 165.051 234.79C164.891 233.46 164.761 231.99 164.691 230.43C165.881 230.16 167.211 227.82 167.821 224.78C168.501 221.4 168.021 218.44 166.751 218.19C166.541 218.15 166.321 218.19 166.101 218.29C166.931 215.81 168.201 213.47 170.041 211.48C168.701 212.55 167.511 213.81 166.541 215.23C164.561 218.08 163.481 221.47 163.031 225.04C163.031 225.06 163.031 225.08 163.031 225.11C162.661 228.12 162.731 231.25 163.091 234.32H163.081Z" fill="#0372FF"/>
<path d="M196.569 143.42C195.639 143.8 194.709 144.17 193.779 144.53L180.939 153.72L184.889 161.29C186.269 159.72 188.169 157.43 190.109 154.75L195.429 146.02C195.849 145.16 196.229 144.29 196.569 143.43V143.42Z" fill="#E1EAF9"/>
<path d="M175.601 156.15L173.841 151C173.571 151.05 173.301 151.1 173.031 151.14C172.721 151.22 172.411 151.31 172.091 151.38C171.761 151.46 171.431 151.45 171.121 151.38C170.421 151.44 169.731 151.48 169.061 151.48C166.521 151.48 164.201 151.02 161.751 150.17C160.771 151.45 159.731 153.18 158.951 155.42C162.911 154.35 169.101 153.58 175.591 156.14L175.601 156.15Z" fill="#F15928"/>
<path d="M205.019 139.58C204.119 140.03 203.219 140.45 202.319 140.88C200.649 147.41 195.179 156.44 192.189 160.32C194.289 159.16 196.649 157.5 199.019 155.12C205.149 148.97 215.539 148.21 221.709 148.42C219.499 145.53 212.819 139.73 207.789 138.07C206.879 138.6 205.959 139.11 205.019 139.58Z" fill="#F15928"/>
<path d="M122.03 126.88C121.92 127.05 119.32 131 112.91 130.65C106.53 130.28 104.23 125.83 104.13 125.64C104.01 125.41 103.96 125.14 103.97 124.88L104.5 115.82C102.45 117.43 99.7301 120.43 99.5801 125.16C99.4701 128.68 100.91 131.03 102.3 133.31C103.64 135.5 105.03 137.77 104.16 140.5C103.86 141.45 102.93 144.42 101.67 148.47C102.29 149.42 103.57 150.17 104.87 150.59C105.59 148.27 106.13 146.53 106.38 145.75L107.62 141.72L111.11 142.63C111.07 142.85 111.03 143.04 111 143.19L109.12 149.24C109.4 148.9 109.72 148.56 110.05 148.22L111.56 143.36C111.76 142.38 112.78 140.29 115.13 139.52C117.83 138.64 125.64 134.5 126.02 127.34C126.28 122.41 124.68 119.34 123.28 117.63L122.25 126.24C122.22 126.46 122.15 126.68 122.03 126.87V126.88ZM111.49 140.7L108.58 140.05L109.5 135.53L110.35 132.18C110.35 132.18 116.44 135.14 123.73 128.55C123.73 128.55 123.37 133.84 115.62 137.42C111.9 139.14 111.49 140.7 111.49 140.7Z" fill="#E1EAF9"/>
<path d="M78.0402 207.54C78.1402 207.38 80.5302 203.75 86.3002 203.74C86.5802 203.74 86.8702 203.74 87.1602 203.76C93.5402 204.13 95.8502 208.58 95.9402 208.77C96.0602 209 96.1102 209.27 96.1002 209.53L95.5602 218.59C97.6102 216.98 100.33 213.98 100.48 209.25C100.59 205.73 99.1502 203.38 97.7602 201.1C96.4202 198.91 95.0302 196.64 95.9002 193.91L98.7002 184.87C98.4702 185.02 98.2102 185.17 97.9502 185.31L95.3402 193.73C95.3002 193.86 95.2902 193.99 95.2502 194.12L90.1802 192.7C90.1802 192.7 93.6202 191.61 94.1702 189.35C94.4202 188.32 94.6102 187.4 94.7602 186.57C94.3502 186.68 93.9302 186.8 93.4702 186.89C92.3102 187.13 91.0202 187.2 89.7002 187.12C89.0302 189.28 88.6002 190.68 88.5102 190.98C88.4002 191.44 88.1602 192.04 87.7702 192.64C88.6102 193.04 89.6502 193.69 90.8602 194.76C90.8602 194.76 88.0602 194.07 85.2502 194.73C85.1402 194.78 85.0302 194.83 84.9102 194.87C82.2102 195.75 74.4102 199.89 74.0202 207.05C73.7602 211.98 75.3602 215.05 76.7602 216.76L77.7902 208.15C77.8202 207.93 77.8902 207.71 78.0102 207.52L78.0402 207.54ZM88.7702 197.94C90.1902 198.05 91.3502 197.7 91.5102 197.15C92.2502 197.4 92.9602 197.74 93.5502 198.25C97.2402 201.44 96.8502 204.44 96.8502 204.44C96.8502 204.44 93.8802 199.35 85.6202 200.16C81.3202 200.58 80.0102 201.49 77.4702 203.52C77.4702 203.52 78.7002 198 85.7702 196.7C85.7702 196.7 85.9302 196.68 86.1402 196.66C86.1102 197.26 87.2802 197.83 88.7602 197.94H88.7702Z" fill="#E1EAF9"/>
<path d="M79.5509 176.74C81.0309 180.35 87.8109 183.25 92.5309 182.28C98.8809 180.97 97.8509 177.5 97.7209 176.59C97.7109 176.51 97.7209 176.43 97.7109 176.35C97.2409 175.84 96.8309 175.25 96.5109 174.61C95.4309 174.68 94.3709 174.68 93.3309 174.6C89.1509 174.26 85.3909 172.73 82.4809 170.73C80.3909 172.33 78.6209 174.47 79.5509 176.76V176.74Z" fill="#E1EAF9"/>
<path d="M80.9007 159.48C80.3607 160.69 80.8407 162.39 82.2007 164.13C84.6807 167.3 89.8607 170.22 95.8907 169.91C95.9107 169.79 95.9207 169.67 95.9507 169.56C96.4707 167.34 97.6807 165.48 99.0907 164.02C93.9107 163.19 89.8907 160.86 87.4207 157.3C85.8707 156.88 82.3007 156.33 80.9007 159.48Z" fill="#E1EAF9"/>
<path d="M89.74 151.09C90.92 155.98 95.55 160.45 101.86 161.02C103.17 159.22 104.34 157 105.59 154.77C103.54 154.71 98.47 154.19 96.97 150.45C96.24 148.64 97.08 147.11 97.65 146.34C94.7 145.59 92.38 145.81 90.98 147.02C89.71 148.11 89.44 149.85 89.75 151.1L89.74 151.09Z" fill="#E1EAF9"/>
<path d="M191.11 174.99C192.26 174.74 192.92 173.33 192.6 171.83C192.27 170.34 191.08 169.33 189.93 169.58C188.78 169.83 188.12 171.24 188.44 172.74C188.77 174.23 189.96 175.24 191.11 174.99Z" fill="#16205B"/>
<path d="M194.571 180.98C194.241 179.49 193.051 178.48 191.901 178.73C190.751 178.98 190.091 180.39 190.411 181.89C190.731 183.39 191.931 184.39 193.081 184.14C194.231 183.89 194.891 182.48 194.571 180.98Z" fill="#16205B"/>
<path d="M245.64 85.8001C244.59 82.6001 242.25 80.4201 239.03 79.8001C235.74 79.1801 232.24 79.8401 229.44 81.7801C223.55 85.6701 221.94 93.6801 219.56 100.96L219.54 101.03C219.4 101.44 218.96 101.67 218.54 101.54C218.26 101.45 218.07 101.22 218.01 100.95C211.43 89.1101 214.84 71.8201 214.84 71.8201L211.17 71.4501C211.17 71.4501 210.53 58.0301 209.77 56.6301C207.7 52.8501 188.86 56.2101 169.5 54.9901C160.14 54.4001 150.33 50.3501 150.33 50.3501C150.33 50.3501 150.39 52.2901 152.58 53.9101C155.13 55.7901 160.01 57.4401 159.92 58.6001C159.84 59.6701 149.41 62.0301 140.13 59.4601C139.81 59.3701 139.49 59.2801 139.17 59.1701C137.39 62.5801 135.7 66.1001 134.47 69.5801C134.15 70.5901 133.81 71.6501 133.72 72.5101C133.61 73.2001 133.72 73.9901 134.02 75.0401C134.58 77.0101 135.48 79.1301 136.44 81.0401C136.86 81.8801 136.74 82.8601 136.21 83.5601L136.12 83.6701C133.78 86.7601 133.11 89.3101 132.26 93.2401C132.03 96.0501 131.96 99.8901 132.25 101.82C137.04 134.34 158.54 144.33 160.97 145.35C164.47 146.84 167.3 147.61 171.29 147.14C176.58 145.47 181.93 143.71 187.14 141.74C189.35 140.93 191.54 140.08 193.71 139.2C194.33 138.92 194.95 138.64 195.6 138.35L195.63 138.41C198.04 137.38 200.42 136.3 202.73 135.11C207.54 132.58 212.89 129.71 214.86 125.62C215.92 123.36 216.52 120.68 216.88 117.98C217.29 115.24 217.15 112.94 217.89 109.83V109.8C217.99 109.4 218.39 109.16 218.78 109.25C218.94 109.29 219.08 109.38 219.18 109.5C220.02 110.54 220.54 111.67 220.89 112.87C228.11 111.94 235.67 109.47 240.92 104.85C243.58 102.51 245.47 99.5201 246.22 96.1501C246.93 92.8301 246.75 88.9601 245.64 85.8101V85.8001ZM175.35 68.2401C178.1 65.1001 186.28 60.3501 194.65 62.8201C199.31 64.2001 198.21 70.2401 196.73 70.5701C195.25 70.9001 185.9 65.6501 174.02 72.8101C174.02 72.8101 172.59 71.3701 175.34 68.2301L175.35 68.2401ZM175.1 88.3201C177.03 88.0701 179.67 87.3201 181.03 85.0801C181.03 85.0801 177.61 84.3301 175.53 82.6201C176.89 77.3401 180.65 73.6501 184.56 74.1201C188.97 74.6401 191.88 80.2101 191.07 86.5601C190.73 89.2001 189.81 91.5601 188.52 93.3801C189.68 93.6201 190.79 94.0501 191.76 94.6701C191.94 94.7901 192 95.0401 191.88 95.2201C191.8 95.3401 191.66 95.4101 191.53 95.4001C188.89 95.2901 186.53 95.3701 184.3 96.0801C183.19 96.4201 182.13 96.9001 181.06 97.4501C180.01 98.0101 178.97 98.7201 177.94 99.4501L177.9 99.4801C177.7 99.6201 177.43 99.5701 177.29 99.3801C177.2 99.2601 177.19 99.1001 177.24 98.9701C177.66 97.8801 178.33 96.9801 179.13 96.1801C176.94 94.7401 175.44 91.8201 175.1 88.3201ZM145.1 61.9301C150.65 60.5601 157.12 64.8201 159.03 67.5701C160.94 70.3201 159.84 71.4301 159.84 71.4301C152.5 65.3301 144.39 68.5701 143.32 68.2001C142.25 67.8301 141.65 62.7701 145.1 61.9201V61.9301ZM142.86 88.5101C144.62 88.1301 146.98 87.2401 148.06 85.0701C148.06 85.0701 144.86 84.6501 142.81 83.2401C143.65 78.2801 146.82 74.6001 150.45 74.7201C154.54 74.8501 157.65 79.7401 157.4 85.6401C157.15 91.5401 153.64 96.2101 149.55 96.0801C146.28 95.9701 143.66 92.8001 142.86 88.5101ZM152.6 104.11C153.06 101.16 155.57 99.3301 157.92 98.8301C158.16 98.7701 158.42 98.7301 158.67 98.6901C159.15 97.9301 159.64 97.2601 160.14 96.4301C160.69 95.5601 160.95 94.4701 161.27 93.3901L161.3 93.3001C161.39 93.0101 161.69 92.8401 161.99 92.9301C162.15 92.9801 162.27 93.0901 162.33 93.2301C162.91 94.5101 162.91 95.8501 162.75 97.2501C162.68 97.8801 162.48 98.5101 162.19 99.0901C163.07 99.4601 163.85 100.06 164.36 100.92C164.5 101.16 164.42 101.47 164.19 101.61C164.09 101.67 163.97 101.69 163.86 101.68H163.81C161.81 101.39 160.24 101.23 158.66 101.66C157.12 102.1 155.96 103.34 155.92 104.53C155.75 105.72 156.59 106.97 157.95 107.71C159.4 108.51 160.83 108.23 162.94 108.76L163.03 108.78C163.33 108.86 163.52 109.16 163.44 109.47C163.42 109.54 163.39 109.6 163.35 109.66C161.78 111.9 158.76 111.55 156.55 110.61C154.26 109.69 152.17 107.07 152.59 104.11H152.6ZM198.38 105.76C198.2 105.81 198.03 105.78 197.88 105.69L197.85 105.67C196.83 105.05 195.95 104.52 195.02 104.2C195.02 104.2 195.01 104.2 195 104.2C196.36 108.12 196.97 112.22 196.62 116.46C196.22 121.63 193.65 126.99 189.5 130.52C185.56 134.06 180.4 136.69 174.9 137.22C169.51 137.71 163.72 136.79 159.91 133.02C159.71 132.82 159.72 132.5 159.93 132.3C160.07 132.17 160.25 132.13 160.42 132.17L160.49 132.19C161.96 132.52 163.41 132.87 164.84 133.18C165.04 131.19 165.33 124.01 160.16 117.78H160.17C158.81 117.58 157.46 117.29 156.14 116.89C155.83 116.8 155.66 116.47 155.77 116.17C155.85 115.94 156.07 115.79 156.3 115.77H156.34C163.14 115.3 169.85 115.08 176.03 112.8C181.28 110.93 185.91 107.77 189.36 103.58C188.14 103.65 186.87 103.79 185.52 103.92H185.47C185.21 103.95 184.99 103.77 184.97 103.52C184.96 103.38 185.02 103.25 185.11 103.16C187.02 101.34 189.66 100.38 192.48 100.5C193.88 100.58 195.33 100.99 196.47 101.83C197.62 102.65 198.48 103.76 198.82 105.01C198.91 105.33 198.71 105.66 198.38 105.74V105.76ZM238.06 92.3701C237.96 92.4001 237.85 92.4001 237.76 92.3601H237.74C235.59 91.4301 233.86 92.2201 232.78 93.2301C232.58 93.4501 232.41 93.7001 232.26 93.9801C233.55 94.5001 234.48 95.9601 234.46 97.7001C234.44 99.8501 232.99 101.59 231.21 101.57C229.65 101.55 228.36 100.19 228.08 98.3901C228.08 98.3501 228.05 98.3201 228.04 98.2901C227.86 97.1101 227.86 95.8701 228.21 94.6001C228.5 93.3401 229.23 92.0301 230.43 91.0501C231.62 90.0601 233.21 89.5401 234.78 89.6901C236.35 89.8401 237.79 90.7401 238.28 91.9301C238.36 92.1101 238.25 92.3201 238.05 92.3801L238.06 92.3701Z" fill="#E1EAF9"/>
<path d="M234.79 89.67C233.22 89.52 231.63 90.04 230.44 91.03C229.24 92.01 228.5 93.32 228.22 94.58C227.87 95.84 227.88 97.09 228.05 98.27C228.05 98.31 228.08 98.34 228.09 98.37C228.36 100.17 229.65 101.54 231.22 101.55C233 101.57 234.45 99.84 234.47 97.68C234.48 95.94 233.56 94.48 232.27 93.96C232.42 93.69 232.59 93.43 232.79 93.21C233.88 92.2 235.6 91.41 237.75 92.34H237.77C237.86 92.39 237.97 92.39 238.07 92.36C238.27 92.29 238.37 92.09 238.3 91.91C237.81 90.72 236.37 89.82 234.8 89.67H234.79Z" fill="#16205B"/>
<path d="M190.411 123.83C189.631 122.94 187.921 121.91 185.441 122.58C181.621 123.61 180.951 127.82 180.951 127.82C180.951 127.82 179.491 126.34 180.951 124.17C180.951 124.17 176.631 125.02 174.681 128.5C173.701 130.26 173.181 132.6 174.011 134.02C174.201 134 174.381 134 174.571 133.97C179.221 133.41 183.521 131.12 186.951 127.91C188.341 126.72 189.481 125.33 190.401 123.83H190.411Z" fill="#F15928"/>
<path d="M187.311 114.88C189.861 111.68 189.481 110.15 188.591 109.42C188.011 109.96 187.421 110.48 186.781 110.96C183.911 113.19 180.621 114.91 177.181 116.02C173.741 117.14 170.181 117.79 166.631 118.02C165.881 118.06 165.131 118.07 164.381 118.06C165.281 119.46 166.001 120.86 166.531 122.23C170.871 121.62 183.631 119.47 187.311 114.87V114.88Z" fill="#E1EAF9"/>
<path d="M196.47 101.84C195.33 101 193.88 100.59 192.48 100.51C189.66 100.4 187.02 101.36 185.11 103.17C185.01 103.26 184.96 103.39 184.97 103.53C184.99 103.78 185.21 103.96 185.47 103.93H185.52C186.87 103.8 188.15 103.66 189.36 103.59C185.91 107.78 181.28 110.94 176.03 112.81C169.85 115.09 163.13 115.31 156.34 115.77H156.3C156.06 115.79 155.85 115.94 155.77 116.17C155.66 116.47 155.83 116.79 156.14 116.89C157.46 117.29 158.81 117.58 160.17 117.77H160.16C165.33 124 165.04 131.18 164.84 133.18C163.41 132.87 161.96 132.52 160.49 132.19L160.42 132.17C160.25 132.13 160.07 132.17 159.93 132.3C159.72 132.5 159.71 132.82 159.91 133.02C163.72 136.79 169.51 137.71 174.9 137.22C180.39 136.69 185.55 134.06 189.5 130.52C193.65 127 196.22 121.64 196.62 116.46C196.97 112.22 196.36 108.12 195 104.2C195 104.2 195.01 104.2 195.02 104.2C195.95 104.52 196.83 105.05 197.85 105.67L197.88 105.69C198.02 105.78 198.2 105.8 198.38 105.76C198.71 105.67 198.91 105.34 198.82 105.03C198.48 103.78 197.62 102.67 196.47 101.85V101.84ZM174.02 134.02C173.19 132.6 173.71 130.26 174.69 128.5C176.64 125.02 180.96 124.17 180.96 124.17C179.51 126.34 180.96 127.82 180.96 127.82C180.96 127.82 181.63 123.6 185.45 122.58C187.92 121.92 189.63 122.94 190.42 123.83C189.5 125.33 188.35 126.71 186.97 127.91C183.54 131.13 179.24 133.41 174.59 133.97C174.4 134 174.22 134 174.03 134.02H174.02ZM166.53 122.25C166 120.88 165.28 119.48 164.38 118.08C165.13 118.08 165.88 118.08 166.63 118.04C170.18 117.81 173.74 117.16 177.18 116.04C180.62 114.93 183.91 113.21 186.78 110.98C187.41 110.5 188.01 109.97 188.59 109.44C189.48 110.17 189.87 111.7 187.31 114.9C183.64 119.5 170.88 121.65 166.53 122.26V122.25Z" fill="#16205B"/>
<path d="M157.401 85.6401C157.651 79.7401 154.541 74.8501 150.451 74.7201C146.821 74.6001 143.651 78.2801 142.811 83.2401C144.861 84.6501 148.061 85.0701 148.061 85.0701C146.981 87.2401 144.621 88.1301 142.861 88.5101C143.661 92.7901 146.271 95.9701 149.551 96.0801C153.641 96.2101 157.151 91.5401 157.401 85.6401Z" fill="#16205B"/>
<path d="M177.24 98.9697C177.19 99.0997 177.2 99.2597 177.29 99.3797C177.43 99.5797 177.7 99.6197 177.9 99.4797L177.94 99.4497C178.97 98.7197 180.01 98.0097 181.06 97.4497C182.13 96.8997 183.19 96.4197 184.3 96.0797C186.52 95.3697 188.88 95.2897 191.53 95.3997C191.67 95.3997 191.8 95.3397 191.88 95.2197C192 95.0397 191.95 94.7897 191.76 94.6697C190.79 94.0497 189.68 93.6197 188.52 93.3797C189.81 91.5597 190.73 89.1997 191.07 86.5597C191.88 80.2097 188.96 74.6397 184.56 74.1197C180.65 73.6597 176.89 77.3497 175.53 82.6197C177.62 84.3297 181.03 85.0797 181.03 85.0797C179.67 87.3297 177.03 88.0797 175.1 88.3197C175.45 91.8097 176.94 94.7298 179.13 96.1798C178.33 96.9798 177.66 97.8797 177.24 98.9697Z" fill="#16205B"/>
<path d="M196.74 70.57C198.21 70.24 199.31 64.2 194.66 62.82C186.29 60.34 178.1 65.1 175.36 68.24C172.61 71.38 174.04 72.82 174.04 72.82C185.92 65.65 195.27 70.91 196.75 70.58L196.74 70.57Z" fill="#16205B"/>
<path d="M143.319 68.21C144.389 68.57 152.499 65.34 159.839 71.44C159.839 71.44 160.929 70.34 159.029 67.58C157.129 64.82 150.649 60.56 145.099 61.94C141.649 62.79 142.249 67.86 143.319 68.22V68.21Z" fill="#16205B"/>
<path d="M163.361 109.66C163.401 109.6 163.431 109.54 163.451 109.47C163.531 109.17 163.341 108.86 163.041 108.78L162.951 108.76C160.831 108.23 159.411 108.51 157.961 107.71C156.611 106.97 155.761 105.72 155.931 104.53C155.971 103.33 157.131 102.1 158.671 101.66C160.251 101.23 161.821 101.4 163.821 101.68H163.871C163.981 101.7 164.091 101.68 164.201 101.62C164.441 101.48 164.521 101.17 164.371 100.93C163.861 100.07 163.081 99.4797 162.201 99.0997C162.491 98.5097 162.691 97.8897 162.761 97.2597C162.921 95.8597 162.921 94.5197 162.341 93.2397C162.281 93.0997 162.151 92.9897 162.001 92.9397C161.711 92.8497 161.401 93.0197 161.311 93.3097L161.281 93.3997C160.961 94.4797 160.691 95.5697 160.151 96.4397C159.651 97.2597 159.161 97.9397 158.681 98.6997C158.431 98.7397 158.181 98.7797 157.931 98.8397C155.581 99.3397 153.071 101.17 152.611 104.12C152.191 107.08 154.281 109.7 156.571 110.62C158.781 111.56 161.801 111.92 163.371 109.67L163.361 109.66Z" fill="#16205B"/>
<path d="M142.561 15.3397C139.931 16.2197 137.591 17.8797 135.631 19.8697C133.651 21.8597 132.111 24.2597 130.971 26.8097C129.871 29.3697 129.121 32.0697 128.871 34.8297C128.611 37.5697 128.681 40.3997 129.611 43.0197C129.671 43.1597 129.811 43.2797 129.971 43.2697C130.181 43.2697 130.351 43.0897 130.341 42.8797C130.501 37.6797 131.851 32.6897 133.901 28.1297C134.921 25.8497 136.231 23.7197 137.731 21.7097C139.241 19.7097 141.041 17.9397 143.081 16.3097C143.261 16.1697 143.341 15.9197 143.261 15.6997C143.161 15.4097 142.851 15.2497 142.561 15.3497V15.3397Z" fill="#0372FF"/>
<path d="M218.64 169.33C218.52 167.21 218.61 166.39 218.61 166.39C210.11 169.74 204.68 169.64 204.68 169.64C204.68 169.64 204.67 170.8 204.85 172.44C206.95 172.24 212.1 171.53 218.64 169.33Z" fill="#E1EAF9"/>
<path d="M210.209 186.98C213.319 187.35 221.919 185.22 221.919 185.22C220.109 182.35 219.279 174.76 218.899 171.97C216.029 172.86 209.679 174.14 205.109 174.3C205.829 178.33 205.109 186.38 210.209 186.98Z" fill="#E1EAF9"/>
<path d="M267.571 224.83C268.241 225.27 267.811 227.09 266.621 228.9C265.511 230.6 264.131 231.66 263.411 231.44C263.201 232.4 263.101 233.32 263.061 234.15L288.661 230.08C287.821 227.7 286.261 225.58 284.121 224.01C281.421 222.02 277.991 221.04 274.531 221.24C274.131 221.26 273.741 221.31 273.341 221.37C270.751 222.3 268.801 223.47 267.341 224.77C267.421 224.78 267.501 224.8 267.571 224.84V224.83Z" fill="#F15928"/>
<path d="M314.139 224.6L315.479 229.52C315.619 230.05 315.359 230.61 314.849 230.83L309.479 233.14C309.359 233.19 309.229 233.22 309.109 233.23C308.919 233.24 308.739 233.2 308.559 233.12C308.269 232.98 308.059 232.72 307.969 232.41L306.729 227.83L293.859 233.44L296.279 251.51L326.489 237.16C326.099 234.29 325.079 227.05 324.009 220.3L314.149 224.59L314.139 224.6Z" fill="#F15928"/>
<path d="M294.681 211.56C290.501 213.41 285.601 215.58 281.041 217.61C283.091 218.23 285.031 219.16 286.751 220.43C289.731 222.63 291.861 225.61 292.961 229L305.541 223.52L304.801 220.8C304.661 220.27 304.921 219.71 305.431 219.49L310.801 217.17C311.091 217.04 311.431 217.05 311.721 217.19C312.011 217.33 312.221 217.59 312.311 217.9L312.961 220.29L323.191 215.83C321.711 210.13 316.941 207.62 312.491 207.01C311.051 207.38 310.361 207.05 310.111 206.85C309.491 206.85 308.881 206.89 308.311 206.96C305.901 207.27 299.831 209.52 294.681 211.57V211.56Z" fill="#F15928"/>
<path d="M291.99 252.96L289.51 234.42L263.27 238.6C263.74 242.99 265.06 252.92 265.62 257.04L291.99 252.96Z" fill="#F15928"/>
<path d="M303.12 207.82L301.97 208.34C300.14 209.14 297.59 210.27 294.68 211.56C299.83 209.52 305.9 207.26 308.31 206.95C308.88 206.88 309.49 206.84 310.11 206.84C310.02 206.77 309.99 206.72 309.99 206.72L309.7 205.74C309.38 205.77 309.06 205.79 308.74 205.84C306.87 206.13 305.05 206.95 303.12 207.82Z" fill="#E1EAF9"/>
<path d="M323.19 215.82L324.53 215.24C323.76 212.56 322.12 210.19 319.77 208.46C318.08 207.21 316.16 206.39 314.12 205.97C313.95 206.3 313.55 206.72 312.55 206.98C312.53 206.98 312.51 206.98 312.49 206.99C316.95 207.61 321.72 210.11 323.19 215.81V215.82Z" fill="#E1EAF9"/>
<path d="M324 220.31C325.07 227.06 326.08 234.3 326.48 237.17L327.62 236.63L325.29 219.75L324 220.31Z" fill="#E1EAF9"/>
<path d="M263.271 238.6C263.191 237.84 263.131 237.25 263.111 236.88C263.071 236.2 263.011 235.25 263.061 234.14C263.101 233.31 263.201 232.39 263.411 231.43C264.131 231.66 265.511 230.59 266.621 228.89C267.811 227.08 268.241 225.26 267.571 224.82C267.501 224.78 267.431 224.76 267.341 224.75C268.801 223.45 270.751 222.28 273.341 221.35C273.261 221.36 273.171 221.36 273.091 221.38C265.241 222.6 259.721 229.53 260.801 236.83L263.541 257.36L265.621 257.04C265.071 252.92 263.741 242.99 263.271 238.6Z" fill="#E1EAF9"/>
<path d="M311.381 222.88L310.511 219.71L307.201 221.13L308.031 224.18L311.381 222.88Z" fill="#E1EAF9"/>
<path d="M308.609 226.33L309.769 230.6L313.089 229.17L311.959 225.03L308.609 226.33Z" fill="#E1EAF9"/>
<path d="M266.22 205.04C265.88 206.49 266.03 207.99 266.42 209.34C266.84 210.64 267.25 211.94 267.87 213.17C267.9 213.21 267.95 213.25 268 213.24C268.07 213.24 268.13 213.17 268.12 213.09C268.06 210.31 266.7 207.73 267.38 205.32C267.68 204.13 268.33 203.05 269.29 202.21C270.28 201.38 271.37 200.69 272.54 200C272.58 199.98 272.61 199.93 272.6 199.88C272.6 199.81 272.54 199.75 272.47 199.76C271.03 199.82 269.74 200.54 268.62 201.4C267.5 202.3 266.54 203.55 266.21 205.02L266.22 205.04Z" fill="#16205B"/>
<path d="M203.73 207.84C208.94 206.9 214.59 208.98 219.88 209.76C222.54 210.1 225.16 210.76 227.99 210.84C230.78 210.97 236.03 210.83 238.56 209.76L238.45 209.37C235.78 209.82 230.71 209.51 228.11 209.25C225.54 208.94 222.88 208.29 220.2 207.85C214.85 206.85 209.16 206.59 203.74 207.84H203.73Z" fill="#0372FF"/>
<path d="M123.73 128.54C116.44 135.13 110.35 132.17 110.35 132.17L109.5 135.52L108.58 140.04L111.49 140.69C111.49 140.69 111.89 139.13 115.62 137.41C123.37 133.83 123.73 128.54 123.73 128.54Z" fill="#16205B"/>
<path d="M86.1505 196.65C85.9305 196.67 85.7805 196.69 85.7805 196.69C78.7105 197.99 77.4805 203.51 77.4805 203.51C80.0205 201.48 81.3305 200.56 85.6305 200.15C93.8905 199.35 96.8605 204.43 96.8605 204.43C96.8605 204.43 97.2405 201.43 93.5605 198.24C92.9705 197.73 92.2605 197.39 91.5205 197.14C91.3605 197.69 90.2005 198.04 88.7805 197.93C87.2905 197.82 86.1305 197.24 86.1605 196.65H86.1505Z" fill="#16205B"/>
<path d="M44.0907 428.1C35.4807 428.1 29.4707 422 29.4707 413.26C29.4707 404.52 35.8407 398.07 44.6107 398.07C48.2307 398.07 50.5107 398.98 51.5407 399.52L55.5907 401.64L52.3407 412.61L53.8207 418.4L55.4507 424.64L51.4207 426.65C49.5707 427.58 46.9007 428.11 44.0907 428.11V428.1ZM44.6907 411.17C43.7307 411.17 43.0907 411.17 43.0907 413.18C43.0907 415 43.5907 415 44.5807 415C45.2907 415 45.8807 414.85 46.0407 414.78L49.5107 413.1L45.9607 411.38C45.9607 411.38 45.5307 411.17 44.6807 411.17H44.6907Z" fill="#16205B"/>
<path d="M59.851 428.13C51.851 428.13 46.041 421.88 46.041 413.26C46.041 404.64 51.961 398.07 60.121 398.07C68.281 398.07 73.931 404.31 73.931 412.91C73.931 421.51 68.141 428.13 59.851 428.13ZM60.001 411.37C59.851 411.72 59.691 412.33 59.691 413.21C59.691 413.94 59.841 414.5 59.991 414.84C60.141 414.5 60.301 413.9 60.301 413.02C60.301 412.28 60.141 411.72 59.991 411.37H60.001Z" fill="#16205B"/>
<path d="M81.1002 427.83L80.5902 427.02V427.83H67.2402V398.37H78.4502L78.7802 398.9V398.37H92.1402V427.83H81.1002Z" fill="#16205B"/>
<path d="M90.0002 427.83V411.5H84.4102V398.37H109.12V411.5H103.51V427.83H90.0002Z" fill="#16205B"/>
<path d="M101.4 427.83V399.63L105.84 398.72C107.37 398.41 109.44 398.23 111.5 398.23C113.99 398.23 117.63 398.53 120.54 401.16C122.6 402.98 123.81 405.77 123.81 408.77C123.81 410.72 123.29 412.55 122.35 414.13C122.57 414.7 122.75 415.32 122.91 416C123.13 416.93 123.64 419.12 123.88 419.79L128.21 427.84H101.4V427.83Z" fill="#16205B"/>
<path d="M130.551 427.83L129.341 424.29L128.181 427.83H113.951L123.961 398.37H134.781L144.831 427.83H130.551Z" fill="#16205B"/>
<path d="M148.681 428.1C140.071 428.1 134.061 422 134.061 413.26C134.061 404.52 140.431 398.07 149.201 398.07C152.821 398.07 155.101 398.98 156.131 399.52L160.181 401.64L156.931 412.61L158.411 418.4L160.041 424.64L156.011 426.65C154.161 427.58 151.491 428.11 148.681 428.11V428.1ZM149.281 411.17C148.321 411.17 147.681 411.17 147.681 413.18C147.681 415 148.181 415 149.171 415C149.881 415 150.471 414.85 150.631 414.78L154.101 413.09L150.551 411.37C150.551 411.37 150.121 411.16 149.271 411.16L149.281 411.17Z" fill="#16205B"/>
<path d="M156.541 427.83V411.5H150.961V398.37H175.661V411.5H170.051V427.83H156.541Z" fill="#16205B"/>
<path d="M181.431 398.37H167.941V427.83H181.431V398.37Z" fill="#16205B"/>
<path d="M189.661 427.83L189.151 427.02V427.83H175.801V398.37H187.011L187.351 398.9V398.37H200.701V427.83H189.661Z" fill="#16205B"/>
<path d="M208.96 428.02C204.61 428.02 201.02 426.69 198.26 424.06C195.53 421.43 193.98 417.48 193.98 413.21C194.02 404.49 200.54 398.18 209.47 398.18C212.07 398.18 214.62 398.69 216.46 399.58L220.71 401.63L219.1 407.08H220.14V425.37L216.46 426.69C214.76 427.3 212.08 428.02 208.95 428.02H208.96Z" fill="#16205B"/>
<path d="M228.47 423.56C223.83 423.56 220.05 419.8 220.05 415.17C220.01 413 220.86 410.88 222.44 409.27C224.01 407.67 226.21 406.75 228.46 406.75C233.1 406.75 236.88 410.51 236.88 415.14C236.88 419.77 233.1 423.56 228.46 423.56H228.47Z" fill="#16205B"/>
<path d="M237.311 427.83V399.43L241.951 398.66C243.661 398.37 245.501 398.23 247.411 398.23C251.091 398.23 254.061 399.21 256.231 401.15C258.481 403.12 259.721 405.96 259.721 409.16C259.721 413.06 258.101 415.55 256.731 416.95C255.231 418.54 253.181 419.67 250.791 420.24V427.84H237.301L237.311 427.83Z" fill="#16205B"/>
<path d="M253.15 427.83V398.37H266.64V414.73H274.47V427.83H253.15Z" fill="#16205B"/>
<path d="M278.49 428.13C271.11 428.13 266.34 422.87 266.34 414.73V398.36H290.99V414.62C290.99 422.83 286.08 428.13 278.49 428.13Z" fill="#16205B"/>
<path d="M301.581 427.83L301.571 427.72H297.901V427.83H284.451L286.511 398.37H298.651L299.851 401.77L301.101 398.37H313.221L315.061 427.83H301.581Z" fill="#16205B"/>
<path d="M317.82 427.99C315.76 427.99 314.27 427.84 313.38 427.72L308.59 427.06V399.66L313 398.73C314.49 398.42 316.53 398.23 318.47 398.23C320.75 398.23 324.09 398.49 326.92 400.73C329.29 402.54 330.59 405.24 330.59 408.36C330.59 409.6 330.35 410.8 329.9 411.91C330.78 413.42 331.27 415.17 331.27 417.04C331.27 420 330.15 422.65 328.03 424.7L327.91 424.82C325.58 426.95 322.27 427.99 317.82 427.99Z" fill="#16205B"/>
<path d="M338.191 398.37H324.701V427.83H338.191V398.37Z" fill="#16205B"/>
<path d="M346.421 427.83L345.911 427.02V427.83H332.561V398.37H343.771L344.101 398.9V398.37H357.451V427.83H346.421Z" fill="#16205B"/>
<path d="M365.72 428.02C361.38 428.02 357.78 426.69 355.02 424.06C352.29 421.43 350.74 417.48 350.74 413.21C350.78 404.49 357.3 398.18 366.23 398.18C368.83 398.18 371.38 398.69 373.22 399.57L377.48 401.62L375.87 407.07H376.91V425.36L373.23 426.68C371.53 427.29 368.85 428.01 365.72 428.01V428.02Z" fill="#16205B"/>
<path d="M48.9412 421.67C48.0712 422.11 46.3312 422.54 44.0912 422.54C38.9212 422.54 35.0312 419.27 35.0312 413.26C35.0312 407.25 38.9212 403.62 44.6112 403.62C46.9012 403.62 48.3412 404.11 48.9712 404.44L48.4012 406.37C47.5012 405.93 46.2212 405.61 44.7012 405.61C40.4012 405.61 37.5412 408.36 37.5412 413.18C37.5412 417.67 40.1312 420.56 44.5912 420.56C46.0312 420.56 47.5013 420.26 48.4613 419.8L48.9512 421.68L48.9412 421.67Z" fill="#E1EAF9"/>
<path d="M68.3716 412.91C68.3716 419.23 64.5316 422.57 59.8516 422.57C55.1716 422.57 51.6016 418.81 51.6016 413.26C51.6016 407.43 55.2216 403.62 60.1216 403.62C65.0216 403.62 68.3716 407.46 68.3716 412.9V412.91ZM54.1316 413.21C54.1316 417.13 56.2516 420.64 59.9816 420.64C63.7116 420.64 65.8616 417.18 65.8616 413.02C65.8616 409.37 63.9516 405.56 60.0116 405.56C56.0716 405.56 54.1316 409.18 54.1316 413.21Z" fill="#E1EAF9"/>
<path d="M72.801 422.27V403.92H75.391L81.271 413.2C82.631 415.35 83.691 417.28 84.561 419.16L84.611 419.13C84.391 416.68 84.341 414.45 84.341 411.59V403.91H86.571V422.26H84.171L78.341 412.95C77.061 410.91 75.841 408.81 74.911 406.83L74.831 406.86C74.971 409.17 75.021 411.38 75.021 414.43V422.27H72.791H72.801Z" fill="#E1EAF9"/>
<path d="M95.5507 405.94H89.9707V403.93H103.551V405.94H97.9407V422.27H95.5407V405.94H95.5507Z" fill="#E1EAF9"/>
<path d="M106.961 404.17C108.161 403.92 109.871 403.79 111.511 403.79C114.041 403.79 115.681 404.25 116.821 405.29C117.751 406.11 118.261 407.36 118.261 408.77C118.261 411.19 116.741 412.8 114.801 413.45V413.53C116.221 414.02 117.061 415.33 117.491 417.23C118.091 419.79 118.521 421.56 118.911 422.27H116.461C116.161 421.75 115.751 420.17 115.231 417.89C114.691 415.36 113.711 414.41 111.561 414.32H109.331V422.27H106.961V404.17ZM109.321 412.53H111.741C114.271 412.53 115.881 411.14 115.881 409.05C115.881 406.68 114.171 405.65 111.661 405.62C110.521 405.62 109.701 405.73 109.321 405.84V412.54V412.53Z" fill="#E1EAF9"/>
<path d="M126.061 416.499L124.151 422.269H121.701L127.931 403.919H130.791L137.051 422.269H134.521L132.561 416.499H126.051H126.061ZM132.081 414.649L130.281 409.369C129.871 408.169 129.601 407.079 129.331 406.019H129.281C129.011 407.109 128.711 408.219 128.351 409.339L126.551 414.649H132.081Z" fill="#E1EAF9"/>
<path d="M153.521 421.67C152.651 422.11 150.911 422.54 148.671 422.54C143.501 422.54 139.611 419.27 139.611 413.26C139.611 407.25 143.501 403.62 149.191 403.62C151.481 403.62 152.921 404.11 153.551 404.44L152.981 406.37C152.081 405.93 150.801 405.61 149.281 405.61C144.981 405.61 142.121 408.36 142.121 413.18C142.121 417.67 144.711 420.56 149.171 420.56C150.611 420.56 152.081 420.26 153.041 419.8L153.531 421.68L153.521 421.67Z" fill="#E1EAF9"/>
<path d="M162.092 405.94H156.512V403.93H170.092V405.94H164.482V422.27H162.082V405.94H162.092Z" fill="#E1EAF9"/>
<path d="M175.872 403.919V422.269H173.502V403.919H175.872Z" fill="#E1EAF9"/>
<path d="M181.362 422.27V403.92H183.952L189.832 413.2C191.192 415.35 192.252 417.28 193.122 419.16L193.172 419.13C192.952 416.68 192.902 414.45 192.902 411.59V403.91H195.132V422.26H192.732L186.902 412.95C185.622 410.91 184.402 408.81 183.472 406.83L183.392 406.86C183.532 409.17 183.582 411.38 183.582 414.43V422.27H181.352H181.362Z" fill="#E1EAF9"/>
<path d="M214.601 421.46C213.541 421.84 211.441 422.47 208.971 422.47C206.191 422.47 203.911 421.759 202.111 420.049C200.531 418.529 199.551 416.08 199.551 413.22C199.581 407.75 203.331 403.75 209.491 403.75C211.611 403.75 213.271 404.21 214.061 404.59L213.491 406.52C212.511 406.08 211.281 405.729 209.431 405.729C204.971 405.729 202.051 408.509 202.051 413.109C202.051 417.709 204.851 420.509 209.131 420.509C210.681 420.509 211.741 420.29 212.291 420.02V414.549H208.561V412.639H214.601V421.46Z" fill="#E1EAF9"/>
<path d="M225.612 415.17C225.582 413.56 226.892 412.31 228.472 412.31C230.052 412.31 231.332 413.56 231.332 415.14C231.332 416.72 230.082 418 228.472 418C226.862 418 225.612 416.77 225.612 415.17Z" fill="#E1EAF9"/>
<path d="M242.871 404.14C244.011 403.95 245.511 403.79 247.421 403.79C249.761 403.79 251.481 404.33 252.561 405.31C253.571 406.18 254.171 407.52 254.171 409.15C254.171 410.78 253.681 412.12 252.751 413.07C251.501 414.4 249.461 415.08 247.141 415.08C246.431 415.08 245.781 415.05 245.231 414.92V422.27H242.861V404.14H242.871ZM245.241 412.99C245.761 413.13 246.411 413.18 247.201 413.18C250.061 413.18 251.801 411.79 251.801 409.26C251.801 406.73 250.091 405.67 247.471 405.67C246.441 405.67 245.651 405.75 245.241 405.86V412.99Z" fill="#E1EAF9"/>
<path d="M258.711 403.919H261.081V420.279H268.921V422.269H258.711V403.919Z" fill="#E1EAF9"/>
<path d="M274.301 403.919V414.779C274.301 418.889 276.121 420.629 278.571 420.629C281.291 420.629 283.031 418.829 283.031 414.779V403.919H285.421V414.619C285.421 420.249 282.451 422.569 278.481 422.569C274.721 422.569 271.891 420.419 271.891 414.729V403.919H274.291H274.301Z" fill="#E1EAF9"/>
<path d="M306.372 414.209C306.232 411.649 306.072 408.579 306.102 406.289H306.022C305.392 408.439 304.632 410.729 303.712 413.259L300.472 422.159H298.672L295.702 413.419C294.832 410.829 294.092 408.459 293.582 406.289H293.532C293.482 408.579 293.342 411.649 293.182 414.399L292.692 422.269H290.432L291.712 403.919H294.732L297.862 412.799C298.622 415.059 299.252 417.069 299.712 418.979H299.792C300.252 417.129 300.912 415.109 301.722 412.799L304.992 403.919H308.012L309.152 422.269H306.842L306.382 414.209H306.372Z" fill="#E1EAF9"/>
<path d="M314.141 404.17C315.171 403.95 316.811 403.79 318.471 403.79C320.841 403.79 322.361 404.2 323.511 405.12C324.461 405.83 325.041 406.92 325.041 408.36C325.041 410.13 323.871 411.68 321.941 412.39V412.44C323.681 412.88 325.721 414.32 325.721 417.04C325.721 418.62 325.091 419.82 324.171 420.71C322.891 421.88 320.821 422.42 317.831 422.42C316.201 422.42 314.941 422.31 314.161 422.2V404.15L314.141 404.17ZM316.511 411.68H318.661C321.161 411.68 322.631 410.37 322.631 408.6C322.631 406.45 321.001 405.6 318.601 405.6C317.511 405.6 316.891 405.68 316.501 405.76V411.67L316.511 411.68ZM316.511 420.47C316.971 420.55 317.651 420.58 318.501 420.58C320.951 420.58 323.211 419.68 323.211 417.01C323.211 414.51 321.061 413.47 318.471 413.47H316.511V420.47Z" fill="#E1EAF9"/>
<path d="M332.622 403.919V422.269H330.252V403.919H332.622Z" fill="#E1EAF9"/>
<path d="M338.121 422.27V403.92H340.711L346.591 413.2C347.951 415.35 349.011 417.28 349.881 419.16L349.931 419.13C349.711 416.68 349.661 414.45 349.661 411.59V403.91H351.891V422.26H349.491L343.661 412.95C342.381 410.91 341.161 408.81 340.231 406.83L340.151 406.86C340.291 409.17 340.341 411.38 340.341 414.43V422.27H338.111H338.121Z" fill="#E1EAF9"/>
<path d="M371.351 421.46C370.291 421.84 368.191 422.47 365.721 422.47C362.941 422.47 360.661 421.759 358.861 420.049C357.281 418.529 356.301 416.08 356.301 413.22C356.331 407.75 360.081 403.75 366.241 403.75C368.361 403.75 370.021 404.21 370.811 404.59L370.241 406.52C369.261 406.08 368.031 405.729 366.181 405.729C361.721 405.729 358.801 408.509 358.801 413.109C358.801 417.709 361.601 420.509 365.881 420.509C367.431 420.509 368.491 420.29 369.041 420.02V414.549H365.311V412.639H371.351V421.46Z" fill="#E1EAF9"/>
<path d="M5.48 384.7L6.79 384.49L4.39 369.22L3.07 369.43L0 350.12L9.05 348.69C12.63 348.12 16.2 347.57 19.78 347.04L28.84 345.69L30.94 359.76C31.51 359.68 32.08 359.6 32.65 359.52L30.78 345.42L39.85 344.21C43.51 343.72 47.17 343.25 50.83 342.8L59.92 341.67L62.32 361.07L61.06 361.23L62.98 376.55L64.23 376.39L66.63 395.8L57.54 396.93C54.04 397.36 50.54 397.81 47.04 398.28L37.97 399.49L36.6 389.18L35.95 384.23C35.51 384.29 35.07 384.35 34.64 384.42L36.92 399.65L27.86 401C24.44 401.51 21.01 402.04 17.59 402.58L8.54 404.01L5.49 384.7H5.48Z" fill="#16205B"/>
<path d="M52.5705 379.12L56.7305 377.97C59.4405 370.1 62.2505 362.18 65.0905 354.36L63.7005 341.23L72.8005 340.26C76.8205 339.83 80.8505 339.43 84.8805 339.04L93.9905 338.16L95.2405 351.11C100.031 358.45 104.811 365.9 109.481 373.33L113.891 374.9L115.241 391.16L106.111 391.91C102.101 392.24 98.0805 392.59 94.0705 392.97L84.9505 393.82L84.1305 384.94C83.3005 385.02 82.4605 385.11 81.6305 385.19L82.6005 394.02L73.5005 395.06C70.2705 395.42 67.0405 395.79 63.8105 396.17L54.7205 397.25L52.5605 379.12H52.5705Z" fill="#16205B"/>
<path d="M102.531 381.76L101.821 372.63L103.151 372.53L101.981 357.12L100.641 357.22L99.1406 337.72L108.271 337.01C112.351 336.7 116.431 336.4 120.511 336.13L129.651 335.51L130.221 343.88C130.621 344.23 131.021 344.59 131.421 344.94L130.921 335.43L140.071 334.96C143.681 334.77 147.281 334.6 150.891 334.45L160.041 334.06L160.871 353.59L159.531 353.65L160.211 369.08L161.541 369.02L162.371 388.56L153.231 388.96C149.531 389.12 145.831 389.3 142.131 389.49L132.981 389.97L132.531 381.3C132.041 380.84 131.541 380.38 131.051 379.93L131.751 390.04L122.621 390.67C119.241 390.9 115.871 391.15 112.491 391.41L103.361 392.12L102.561 381.76H102.531Z" fill="#16205B"/>
<path d="M153.37 378.51L153.05 369.36L154.66 369.3L154.14 353.86L152.52 353.92L151.83 334.38L160.99 334.06C168.89 333.78 176.89 333.58 184.79 333.46H185.36C188.73 333.46 191.97 333.94 195 334.89C198.49 335.99 201.6 337.74 204.23 340.09C206.92 342.49 209.03 345.5 210.5 349.04C211.91 352.42 212.62 356.3 212.62 360.58C212.62 364.82 211.93 368.69 210.56 372.06C209.13 375.57 207.1 378.57 204.51 380.98C201.97 383.35 198.96 385.14 195.58 386.32C192.5 387.39 189.16 387.96 185.66 388.02C178.11 388.14 170.45 388.34 162.9 388.6L153.74 388.92L153.38 378.53L153.37 378.51ZM180.77 363.85C181.33 363.84 181.9 363.83 182.46 363.82C184.25 363.79 185.39 363.61 186.06 363.46C186.15 363.08 186.3 362.23 186.29 360.69C186.28 359.21 186.13 358.38 186.03 358C185.43 357.88 184.4 357.75 182.86 357.75H182.34C181.76 357.77 181.18 357.78 180.6 357.79L180.76 363.86L180.77 363.85Z" fill="#16205B"/>
<path d="M232.14 388.17C228.53 388.09 224.92 388.02 221.31 387.97L212.15 387.84L212.43 368.31L213.89 368.33L213.91 366.93C210.6 362.24 207.21 357.52 203.81 352.85H197.26V342.44L197.28 333.29H206.43C211.32 333.31 216.34 333.35 221.35 333.41L230.49 333.53V333.57L236.12 333.69C240.3 333.8 244.48 333.92 248.66 334.07L257.81 334.39L257.12 353.94L250.61 353.7C247.14 358.18 243.63 362.77 240.16 367.37L240.13 368.78L241.74 368.82L241.5 379.2L241.31 388.37L232.14 388.16V388.17Z" fill="#16205B"/>
<path d="M296.82 391.41C293.24 391.13 289.66 390.87 286.08 390.63L279.1 390.15L268.35 389.54L262.11 389.23C258.68 389.06 255.26 388.91 251.83 388.78L242.67 388.42L243.45 368.88L244.84 368.94L245.47 353.49L244.07 353.43L244.46 343.05L244.83 333.91L253.97 334.27C258.39 334.44 262.9 334.65 267.37 334.87L276.51 335.33L275.95 346.58C276.21 347.1 276.47 347.62 276.73 348.14C277.13 347.55 277.52 346.95 277.92 346.36L278.64 335.46L287.78 336.07C292.27 336.37 296.72 336.69 301.02 337.02L310.14 337.73L308.66 357.2L307.24 357.09L306.07 372.51L307.47 372.62L305.95 392.12L296.83 391.41H296.82Z" fill="#16205B"/>
<path d="M344.859 396.1C340.859 395.63 336.849 395.18 332.849 394.74L323.759 393.76L324.709 384.89C323.879 384.81 323.039 384.72 322.209 384.64L321.409 393.53L312.289 392.7C309.049 392.41 305.819 392.13 302.579 391.86L293.449 391.11L294.959 372.92L299.259 372.61C303.479 365.44 307.799 358.23 312.139 351.13L313.389 337.99L322.509 338.85C326.539 339.23 330.559 339.63 334.579 340.05L343.689 341L342.339 353.94C345.589 362.11 348.789 370.36 351.879 378.54L355.899 380.95L355.059 388.05L353.999 397.16L344.889 396.09L344.859 396.1Z" fill="#16205B"/>
<path d="M391.709 402.57C388.039 401.99 384.369 401.42 380.699 400.88L371.649 399.53L372.919 390.95C372.519 390.39 372.109 389.83 371.709 389.27L370.369 399.35L361.299 398.15C357.939 397.7 354.579 397.27 351.209 396.86L342.119 395.74L344.519 376.34L345.829 376.5L347.739 361.17L346.399 361.01L348.799 341.6L357.879 342.72C361.939 343.22 366.009 343.74 370.069 344.29L379.149 345.5L378.039 353.81C378.369 354.25 378.709 354.69 379.039 355.13L380.439 345.68L389.509 347.04C393.089 347.58 396.669 348.13 400.239 348.69L409.279 350.12L406.229 369.43L404.899 369.22L402.499 384.48L403.829 384.69L402.189 394.93L400.759 403.98L391.709 402.57Z" fill="#16205B"/>
<path d="M5.48 376.42L6.79 376.21L4.39 360.94L3.07 361.15L0 341.84L9.05 340.41C12.63 339.84 16.2 339.29 19.78 338.76L28.84 337.41L30.94 351.48C31.51 351.4 32.08 351.32 32.65 351.24L30.78 337.14L39.85 335.93C43.51 335.44 47.17 334.97 50.83 334.52L59.92 333.39L62.32 352.79L61.06 352.95L62.98 368.27L64.23 368.11L66.63 387.52L57.54 388.65C54.04 389.08 50.54 389.53 47.04 390L37.97 391.21L36.6 380.9L35.95 375.95C35.51 376.01 35.07 376.07 34.64 376.14L36.92 391.37L27.86 392.72C24.44 393.23 21.01 393.76 17.59 394.3L8.54 395.73L5.49 376.42H5.48Z" fill="#16205B"/>
<path d="M52.5705 370.85L56.7305 369.7C59.4405 361.83 62.2505 353.91 65.0905 346.09L63.7005 332.96L72.8005 331.99C76.8205 331.56 80.8505 331.16 84.8805 330.77L93.9905 329.89L95.2405 342.84C100.031 350.18 104.811 357.63 109.481 365.06L113.891 366.63L115.241 382.89L106.111 383.64C102.101 383.97 98.0805 384.32 94.0705 384.7L84.9505 385.55L84.1305 376.67C83.3005 376.75 82.4605 376.84 81.6305 376.92L82.6005 385.75L73.5005 386.79C70.2705 387.15 67.0405 387.52 63.8105 387.9L54.7205 388.98L52.5605 370.85H52.5705Z" fill="#16205B"/>
<path d="M102.531 373.48L101.821 364.35L103.151 364.25L101.981 348.84L100.641 348.94L99.1406 329.44L108.271 328.73C112.351 328.42 116.431 328.12 120.511 327.85L129.651 327.23L130.221 335.6C130.621 335.95 131.021 336.31 131.421 336.66L130.921 327.15L140.071 326.68C143.681 326.49 147.281 326.32 150.891 326.17L160.041 325.78L160.871 345.31L159.531 345.37L160.211 360.8L161.541 360.74L162.371 380.28L153.231 380.68C149.531 380.84 145.831 381.02 142.131 381.21L132.981 381.69L132.531 373.02C132.041 372.56 131.541 372.1 131.051 371.65L131.751 381.76L122.621 382.39C119.241 382.62 115.871 382.87 112.491 383.13L103.361 383.84L102.561 373.48H102.531Z" fill="#16205B"/>
<path d="M153.37 370.24L153.05 361.09L154.66 361.03L154.14 345.59L152.52 345.65L151.83 326.11L160.99 325.79C168.89 325.51 176.89 325.31 184.79 325.19H185.36C188.73 325.19 191.97 325.67 195 326.62C198.49 327.72 201.6 329.47 204.23 331.82C206.92 334.22 209.03 337.23 210.5 340.77C211.91 344.15 212.62 348.03 212.62 352.31C212.62 356.55 211.93 360.42 210.56 363.79C209.13 367.3 207.1 370.3 204.51 372.71C201.97 375.08 198.96 376.87 195.58 378.05C192.5 379.12 189.16 379.69 185.66 379.75C178.11 379.87 170.45 380.07 162.9 380.33L153.74 380.65L153.38 370.26L153.37 370.24ZM180.77 355.57C181.33 355.56 181.9 355.55 182.46 355.54C184.25 355.51 185.39 355.33 186.06 355.18C186.15 354.8 186.3 353.95 186.29 352.41C186.28 350.93 186.13 350.1 186.03 349.72C185.43 349.6 184.4 349.47 182.86 349.47H182.34C181.76 349.49 181.18 349.5 180.6 349.51L180.76 355.58L180.77 355.57Z" fill="#16205B"/>
<path d="M232.14 379.89C228.53 379.81 224.92 379.74 221.31 379.69L212.15 379.56L212.43 360.03L213.89 360.05L213.91 358.65C210.6 353.96 207.21 349.24 203.81 344.57H197.26V334.16L197.28 325.01H206.43C211.32 325.03 216.34 325.07 221.35 325.13L230.49 325.25V325.29L236.12 325.41C240.3 325.52 244.48 325.64 248.66 325.79L257.81 326.11L257.12 345.66L250.61 345.42C247.14 349.9 243.63 354.49 240.16 359.09L240.13 360.5L241.74 360.54L241.5 370.92L241.31 380.09L232.14 379.88V379.89Z" fill="#16205B"/>
<path d="M296.82 383.13C293.24 382.85 289.66 382.59 286.08 382.35L279.1 381.87L268.35 381.26L262.11 380.95C258.68 380.78 255.26 380.63 251.83 380.5L242.67 380.14L243.45 360.6L244.84 360.66L245.47 345.21L244.07 345.15L244.46 334.77L244.83 325.63L253.97 325.99C258.39 326.16 262.9 326.37 267.37 326.59L276.51 327.05L275.95 338.3C276.21 338.82 276.47 339.34 276.73 339.86C277.13 339.27 277.52 338.67 277.92 338.08L278.64 327.18L287.78 327.79C292.27 328.09 296.72 328.41 301.02 328.74L310.14 329.45L308.66 348.92L307.24 348.81L306.07 364.23L307.47 364.34L305.95 383.84L296.83 383.13H296.82Z" fill="#16205B"/>
<path d="M344.859 387.83C340.859 387.36 336.849 386.91 332.849 386.47L323.759 385.49L324.709 376.62C323.879 376.54 323.039 376.45 322.209 376.37L321.409 385.26L312.289 384.43C309.049 384.14 305.819 383.86 302.579 383.59L293.449 382.84L294.959 364.65L299.259 364.34C303.479 357.17 307.799 349.96 312.139 342.86L313.389 329.72L322.509 330.58C326.539 330.96 330.559 331.36 334.579 331.78L343.689 332.73L342.339 345.67C345.589 353.84 348.789 362.09 351.879 370.27L355.899 372.68L355.059 379.78L353.999 388.89L344.889 387.82L344.859 387.83Z" fill="#16205B"/>
<path d="M391.709 394.3C388.039 393.72 384.369 393.15 380.699 392.61L371.649 391.26L372.919 382.68C372.519 382.12 372.109 381.56 371.709 381L370.369 391.08L361.299 389.88C357.939 389.43 354.579 389 351.209 388.59L342.119 387.47L344.519 368.07L345.829 368.23L347.739 352.9L346.399 352.74L348.799 333.33L357.879 334.45C361.939 334.95 366.009 335.47 370.069 336.02L379.149 337.23L378.039 345.54C378.369 345.98 378.709 346.42 379.039 346.86L380.439 337.41L389.509 338.77C393.089 339.31 396.669 339.86 400.239 340.42L409.279 341.85L406.229 361.16L404.899 360.95L402.499 376.21L403.829 376.42L402.189 386.66L400.759 395.71L391.709 394.3Z" fill="#16205B"/>
<path d="M42.9305 347.26C42.8205 346.44 42.2505 346.1 41.2105 346.24C41.1605 345.83 41.1005 345.42 41.0505 345.01C44.6805 344.53 48.3105 344.06 51.9505 343.61C52.0005 344.02 52.0505 344.43 52.1005 344.84C51.7705 344.88 51.4905 345.02 51.2505 345.26C51.0205 345.5 50.9305 345.82 50.9805 346.23C52.2705 356.58 53.5705 366.92 54.8605 377.27C54.9105 377.68 55.0805 377.97 55.3505 378.15C55.6305 378.32 55.9305 378.39 56.2505 378.35C56.3005 378.76 56.3505 379.17 56.4005 379.58C52.8705 380.02 49.3505 380.47 45.8205 380.94C45.7705 380.53 45.7105 380.12 45.6605 379.71C46.6705 379.58 47.1205 379.1 47.0105 378.28C46.4505 374 45.8805 369.72 45.3205 365.44C37.8605 366.42 30.4005 367.48 22.9505 368.6C23.5905 372.87 24.2405 377.14 24.8805 381.41C24.9405 381.82 25.1105 382.11 25.4005 382.27C25.6805 382.44 25.9805 382.5 26.3005 382.45C26.3605 382.86 26.4205 383.27 26.4805 383.68C23.0305 384.2 19.5805 384.73 16.1405 385.27C16.0805 384.86 16.0105 384.45 15.9505 384.05C16.8205 383.91 17.1905 383.44 17.0605 382.62C15.4405 372.32 13.8205 362.02 12.2005 351.72C12.0705 350.9 11.5605 350.57 10.6705 350.71C10.6105 350.3 10.5405 349.89 10.4805 349.49C14.0305 348.93 17.5805 348.38 21.1405 347.85C21.2005 348.26 21.2605 348.67 21.3205 349.08C20.9905 349.13 20.7105 349.28 20.4805 349.52C20.2505 349.76 20.1705 350.09 20.2305 350.5C20.8105 354.36 21.3905 358.22 21.9705 362.08C29.4605 360.95 36.9605 359.89 44.4605 358.91C43.9505 355.04 43.4405 351.17 42.9305 347.3V347.26Z" fill="#E1EAF9"/>
<path d="M62.5908 377.57C63.1808 377.41 63.6108 377.06 63.9008 376.51C64.1908 375.97 64.4508 375.36 64.7008 374.68C67.9208 365.31 71.2408 355.95 74.6508 346.61C74.9208 345.98 75.1508 345.4 75.3608 344.87C75.5708 344.34 75.6508 343.89 75.6108 343.53C75.5608 343.07 75.3608 342.77 75.0108 342.62C74.6608 342.47 74.2908 342.37 73.9008 342.32C73.8608 341.91 73.8108 341.5 73.7708 341.09C77.7608 340.67 81.7608 340.26 85.7508 339.88C85.7908 340.29 85.8308 340.7 85.8708 341.11C85.5508 341.23 85.2308 341.39 84.9108 341.58C84.5908 341.77 84.4608 342.12 84.5108 342.62C84.5508 342.99 84.6608 343.34 84.8608 343.69C85.0608 344.04 85.3508 344.5 85.7408 345.06C91.5408 353.89 97.2308 362.76 102.801 371.67C103.071 372.15 103.411 372.49 103.821 372.69C104.231 372.89 104.701 373.08 105.221 373.26C105.251 373.67 105.291 374.08 105.321 374.5C101.281 374.83 97.2308 375.19 93.1908 375.56C93.1508 375.15 93.1108 374.74 93.0808 374.33C93.2608 374.31 93.4908 374.22 93.7508 374.06C94.0108 373.9 94.1308 373.68 94.1108 373.4C94.0708 372.94 93.8308 372.37 93.3908 371.67C92.3608 370.06 91.3208 368.45 90.2808 366.84C84.6408 367.37 79.0008 367.95 73.3608 368.56C72.7008 370.27 72.0508 371.98 71.4008 373.7C71.0508 374.71 70.8908 375.42 70.9408 375.83C71.0008 376.33 71.4608 376.53 72.3308 376.44C72.3808 376.85 72.4208 377.26 72.4708 377.67C69.2108 378.03 65.9608 378.4 62.7008 378.79C62.6508 378.38 62.6008 377.97 62.5508 377.56L62.5908 377.57ZM87.3208 362.02C84.9608 357.96 82.5808 353.9 80.1708 349.85C78.4008 354.32 76.6508 358.8 74.9208 363.28C79.0508 362.84 83.1808 362.42 87.3208 362.02Z" fill="#E1EAF9"/>
<path d="M111.661 372.77C112.531 372.7 112.941 372.26 112.881 371.43C112.091 361.03 111.301 350.64 110.501 340.24C110.441 339.42 109.961 339.04 109.061 339.11C109.031 338.7 109.001 338.29 108.961 337.87C113.011 337.56 117.061 337.26 121.111 336.99C121.141 337.4 121.171 337.81 121.191 338.23C120.811 338.26 120.641 338.5 120.671 338.96C120.691 339.33 121.211 339.94 122.221 340.79C129.451 347.17 136.581 353.61 143.591 360.11C143.221 352.82 142.861 345.52 142.491 338.23C142.451 337.4 141.811 337.02 140.581 337.09C140.561 336.68 140.541 336.26 140.521 335.85C144.101 335.66 147.681 335.5 151.261 335.34C151.281 335.75 151.301 336.17 151.311 336.58C150.411 336.62 149.981 337.05 150.011 337.88C150.471 348.3 150.931 358.71 151.391 369.13C151.431 369.96 151.881 370.35 152.761 370.31C152.781 370.72 152.801 371.14 152.811 371.55C149.081 371.71 145.351 371.89 141.621 372.08C141.601 371.67 141.581 371.25 141.561 370.84C142.161 370.81 142.451 370.59 142.431 370.17C142.411 369.85 142.021 369.34 141.241 368.64C133.821 361.72 126.271 354.86 118.601 348.08C119.131 355.69 119.671 363.29 120.201 370.9C120.261 371.73 120.821 372.1 121.871 372.03C121.901 372.44 121.931 372.85 121.961 373.27C118.561 373.5 115.151 373.75 111.751 374.02C111.721 373.61 111.691 373.2 111.651 372.78L111.661 372.77Z" fill="#E1EAF9"/>
<path d="M184.931 334.34C187.541 334.3 189.981 334.64 192.241 335.35C194.501 336.06 196.461 337.16 198.131 338.65C199.791 340.13 201.101 342.01 202.041 344.28C202.991 346.55 203.461 349.23 203.461 352.3C203.461 355.38 203.001 358.05 202.071 360.33C201.141 362.61 199.881 364.49 198.271 365.99C196.661 367.49 194.761 368.62 192.581 369.38C190.401 370.14 188.041 370.53 185.511 370.57C177.861 370.69 170.221 370.89 162.571 371.15C162.561 370.74 162.541 370.32 162.531 369.91C163.591 369.87 164.111 369.44 164.081 368.62C163.731 358.2 163.381 347.78 163.031 337.36C163.001 336.53 162.441 336.14 161.351 336.18C161.341 335.77 161.321 335.35 161.311 334.94C169.181 334.66 177.061 334.46 184.941 334.34H184.931ZM182.631 364.69C184.811 364.65 186.701 364.44 188.321 364.05C189.941 363.66 191.271 362.99 192.331 362.04C193.391 361.09 194.181 359.83 194.701 358.26C195.221 356.69 195.481 354.72 195.461 352.33C195.441 349.94 195.161 347.97 194.601 346.41C194.051 344.85 193.221 343.61 192.131 342.68C191.041 341.75 189.661 341.11 188.001 340.76C186.341 340.42 184.401 340.26 182.181 340.3C178.521 340.37 174.861 340.45 171.201 340.55C171.421 348.68 171.641 356.8 171.861 364.93C175.451 364.83 179.031 364.75 182.621 364.69H182.631Z" fill="#E1EAF9"/>
<path d="M221.23 334.29C221.23 334.7 221.22 335.12 221.21 335.53C220.78 335.53 220.38 335.58 220 335.69C219.62 335.8 219.43 336.09 219.42 336.54C219.42 336.82 219.75 337.47 220.43 338.52C221.1 339.56 221.89 340.74 222.79 342.07C223.69 343.39 224.62 344.75 225.59 346.15C226.55 347.54 227.33 348.73 227.92 349.71C230.73 346.07 233.57 342.43 236.43 338.8C236.82 338.26 237.14 337.83 237.39 337.51C237.64 337.2 237.76 336.9 237.77 336.62C237.77 336.3 237.56 336.09 237.11 335.98C236.66 335.88 236.25 335.82 235.87 335.81C235.88 335.4 235.89 334.98 235.9 334.57C240.05 334.67 244.2 334.8 248.35 334.95C248.34 335.36 248.32 335.78 248.31 336.19C247.93 336.18 247.57 336.19 247.24 336.26C246.91 336.32 246.56 336.47 246.19 336.71C245.83 336.95 245.43 337.31 245.02 337.77C244.6 338.24 244.1 338.88 243.5 339.69C239.31 345.1 235.17 350.52 231.09 355.97C231 360.06 230.91 364.14 230.82 368.23C230.8 369.06 231.32 369.48 232.38 369.51C232.38 369.92 232.36 370.34 232.35 370.75C228.71 370.67 225.07 370.6 221.43 370.55C221.43 370.14 221.44 369.72 221.45 369.31C221.86 369.31 222.21 369.22 222.49 369.02C222.77 368.82 222.91 368.51 222.92 368.1C222.98 364.01 223.04 359.93 223.11 355.84C218.7 349.57 214.23 343.33 209.68 337.11C209.35 336.65 208.84 336.26 208.16 335.93C207.47 335.61 206.89 335.44 206.42 335.44C206.42 335.03 206.42 334.61 206.42 334.2C211.36 334.2 216.29 334.24 221.23 334.31V334.29Z" fill="#E1EAF9"/>
<path d="M252.231 370.12C252.601 370.13 252.931 370.04 253.211 369.85C253.491 369.65 253.651 369.35 253.661 368.94C254.091 358.48 254.511 348.01 254.941 337.55C254.961 337.14 254.831 336.85 254.551 336.67C254.271 336.5 253.941 336.4 253.561 336.39C253.581 335.98 253.591 335.56 253.611 335.15C258.041 335.33 262.481 335.52 266.911 335.75C266.891 336.16 266.871 336.58 266.851 336.99C266.611 336.98 266.361 337.03 266.091 337.16C265.821 337.28 265.681 337.49 265.671 337.76C265.661 337.99 265.741 338.29 265.911 338.67C266.081 339.05 266.271 339.45 266.491 339.87C269.571 346 272.601 352.15 275.581 358.3C279.281 352.6 283.021 346.92 286.811 341.26C287.181 340.69 287.461 340.23 287.651 339.9C287.841 339.57 287.941 339.26 287.961 338.99C287.991 338.49 287.701 338.21 287.091 338.17C287.121 337.76 287.141 337.34 287.171 336.93C291.551 337.22 295.931 337.54 300.311 337.88C300.281 338.29 300.251 338.7 300.211 339.12C299.831 339.09 299.491 339.15 299.201 339.28C298.901 339.42 298.741 339.69 298.711 340.11C297.911 350.55 297.121 360.99 296.321 371.44C296.291 371.85 296.401 372.17 296.661 372.4C296.921 372.63 297.231 372.75 297.601 372.78C297.571 373.19 297.541 373.6 297.501 374.02C293.891 373.74 290.281 373.48 286.671 373.23C286.701 372.82 286.731 372.41 286.751 371.99C287.991 372.07 288.641 371.71 288.701 370.88C289.231 363.27 289.761 355.67 290.291 348.06C290.241 348.06 290.201 348.06 290.151 348.06C284.841 356.16 279.631 364.3 274.521 372.47C274.451 372.47 274.381 372.47 274.311 372.46C270.271 363.74 266.131 355.03 261.891 346.35C261.841 346.35 261.801 346.35 261.751 346.35C261.391 353.99 261.041 361.63 260.681 369.27C260.641 370.1 261.271 370.54 262.561 370.6C262.541 371.01 262.521 371.43 262.501 371.84C259.051 371.67 255.591 371.52 252.141 371.39C252.161 370.98 252.171 370.56 252.191 370.15L252.231 370.12Z" fill="#E1EAF9"/>
<path d="M303.421 373.23C304.021 373.19 304.521 372.93 304.911 372.45C305.301 371.98 305.681 371.43 306.061 370.82C311.071 362.28 316.181 353.76 321.381 345.28C321.761 344.72 322.111 344.2 322.421 343.72C322.731 343.24 322.901 342.82 322.931 342.45C322.971 341.99 322.841 341.66 322.531 341.44C322.221 341.23 321.871 341.05 321.511 340.93C321.551 340.52 321.591 340.11 321.631 339.7C325.631 340.08 329.621 340.48 333.621 340.89C333.581 341.3 333.531 341.71 333.491 342.12C333.151 342.18 332.801 342.27 332.461 342.39C332.111 342.52 331.911 342.83 331.861 343.33C331.821 343.7 331.861 344.07 331.991 344.45C332.121 344.83 332.311 345.34 332.581 345.97C336.511 355.78 340.321 365.6 344.021 375.44C344.191 375.97 344.461 376.37 344.821 376.64C345.181 376.91 345.601 377.19 346.081 377.48C346.031 377.89 345.981 378.3 345.931 378.71C341.901 378.23 337.861 377.78 333.831 377.34C333.871 376.93 333.921 376.52 333.961 376.11C334.141 376.13 334.381 376.09 334.671 375.98C334.961 375.87 335.121 375.68 335.151 375.41C335.201 374.95 335.081 374.34 334.791 373.57C334.101 371.79 333.401 370 332.701 368.22C327.061 367.62 321.421 367.06 315.771 366.54C314.791 368.09 313.811 369.64 312.831 371.19C312.281 372.11 311.991 372.77 311.951 373.19C311.901 373.69 312.321 373.98 313.191 374.06C313.151 374.47 313.121 374.88 313.081 375.3C309.821 375.01 306.561 374.72 303.291 374.46C303.321 374.05 303.361 373.64 303.391 373.22L303.421 373.23ZM330.741 362.9C329.231 358.45 327.701 354 326.151 349.55C323.521 353.58 320.921 357.62 318.341 361.67C322.471 362.06 326.611 362.47 330.741 362.9Z" fill="#E1EAF9"/>
<path d="M352.48 378.27C353.35 378.38 353.84 378.02 353.94 377.2C355.23 366.85 356.52 356.51 357.81 346.16C357.91 345.34 357.51 344.87 356.62 344.76C356.67 344.35 356.72 343.94 356.77 343.53C360.8 344.03 364.84 344.55 368.87 345.08C368.82 345.49 368.76 345.9 368.71 346.31C368.33 346.26 368.11 346.46 368.05 346.92C368 347.28 368.39 347.98 369.21 349.02C375.04 356.71 380.76 364.44 386.36 372.2C387.45 364.98 388.54 357.76 389.63 350.54C389.75 349.72 389.2 349.22 387.98 349.04C388.04 348.63 388.1 348.22 388.16 347.81C391.71 348.34 395.27 348.89 398.82 349.45C398.76 349.86 398.69 350.27 398.63 350.67C397.74 350.53 397.23 350.87 397.1 351.68C395.48 361.98 393.86 372.28 392.24 382.58C392.11 383.4 392.48 383.87 393.35 384.01C393.29 384.42 393.22 384.83 393.16 385.23C389.46 384.64 385.76 384.08 382.06 383.53C382.12 383.12 382.18 382.71 382.24 382.3C382.83 382.39 383.16 382.23 383.22 381.82C383.27 381.5 382.98 380.92 382.35 380.09C376.44 371.83 370.39 363.61 364.21 355.43C363.22 362.99 362.23 370.55 361.24 378.11C361.13 378.93 361.61 379.41 362.66 379.55C362.61 379.96 362.55 380.37 362.5 380.78C359.11 380.33 355.72 379.9 352.33 379.48C352.38 379.07 352.43 378.66 352.48 378.25V378.27Z" fill="#E1EAF9"/>
</svg>
