<svg width="68" height="67" viewBox="0 0 68 67" fill="none" xmlns="http://www.w3.org/2000/svg">
<path fill-rule="evenodd" clip-rule="evenodd" d="M57.43 9.86C51.1 3.53 42.59 0 33.64 0C24.69 0 16.18 3.53 9.85 9.86C3.52 16.19 0 24.7 0 33.65C0 39.43 1.47 45.08 4.31 50.12C7.15 55.16 11.25 59.4 16.19 62.41C19.39 64.36 23.73 66.41 27.55 66.41C28.81 66.41 30.06 66.18 31.2 65.62C32.38 65.04 33.31 64.18 33.99 63.06C35.06 61.29 35.39 59.12 35.39 57.09V52.6L41.39 52.63C43.64 52.67 46.94 52.55 48.41 50.53C49.37 49.21 49.48 47.23 49.5 45.65C49.51 45.03 49.5 44.4 49.5 43.78C49.5 43.34 49.49 42.9 49.49 42.46L49.47 32.34H56.12C56.51 32.34 56.88 32.22 57.19 32H57.2C57.51 31.76 57.75 31.45 57.88 31.09C58.01 30.72 58.03 30.32 57.92 29.94L57.89 29.84C57.77 29.51 57.57 29.22 57.29 29L34.84 10.96C34.5 10.69 34.09 10.54 33.65 10.54C33.21 10.54 32.8 10.69 32.46 10.96L10.01 29C9.7 29.24 9.49 29.57 9.38 29.95C9.27 30.32 9.29 30.71 9.41 31.07V31.1C9.54 31.46 9.78 31.78 10.1 32.01C10.42 32.23 10.79 32.35 11.18 32.35H17.82L17.8 42.47C17.8 42.91 17.8 43.35 17.79 43.79C17.79 44.41 17.77 45.04 17.79 45.66C17.82 47.24 17.92 49.22 18.88 50.54C20.35 52.56 23.65 52.68 25.9 52.64L27.65 52.6C28.61 52.58 29.37 51.8 29.36 50.84C29.35 49.88 28.56 49.12 27.6 49.14L25.85 49.18C22.83 49.23 21.3 48.77 21.25 45.6C21.24 45.01 21.25 44.42 21.25 43.83C21.25 43.37 21.26 42.92 21.26 42.46L21.28 30.65C21.27 30.44 21.21 30.22 21.13 30.01C21.05 29.82 20.94 29.65 20.8 29.49L20.72 29.41C20.55 29.24 20.34 29.1 20.12 29.01L20.03 28.97C19.83 28.89 19.61 28.86 19.4 28.86H15.69L33.63 14.45L51.56 28.86H47.85C47.63 28.86 47.42 28.9 47.22 28.97L47.13 29.01C46.9 29.11 46.7 29.24 46.53 29.42C46.19 29.77 46.01 30.18 45.99 30.65L46.01 42.46C46.01 42.92 46.01 43.37 46.02 43.83C46.02 44.42 46.04 45.01 46.02 45.6C45.97 48.77 44.44 49.23 41.42 49.18H41.4L35.37 49.15V45.86L41.7 40.36C42.42 39.74 42.5 38.64 41.88 37.91C41.26 37.19 40.15 37.11 39.43 37.73L35.37 41.26V36.19L40.26 31.94C40.98 31.32 41.06 30.21 40.44 29.49C39.82 28.77 38.71 28.69 37.99 29.31L35.37 31.59V25.37C35.37 24.41 34.59 23.63 33.63 23.63C32.67 23.63 31.89 24.41 31.89 25.37V31.59L29.27 29.31C28.55 28.69 27.45 28.77 26.82 29.49C26.2 30.21 26.28 31.31 27 31.94L31.89 36.19V41.26L27.83 37.73C27.11 37.11 26.01 37.19 25.38 37.91C24.76 38.63 24.84 39.73 25.56 40.36L31.89 45.86V57.11C31.89 58.46 31.73 60.09 31.01 61.27C30.68 61.81 30.24 62.25 29.66 62.53C29.01 62.85 28.25 62.95 27.53 62.95C24.38 62.95 20.61 61.07 17.98 59.46C13.55 56.76 9.86 52.96 7.32 48.44C4.78 43.92 3.46 38.85 3.46 33.67C3.46 25.64 6.62 18.02 12.3 12.34C17.98 6.67 25.6 3.5 33.63 3.5C41.66 3.5 49.28 6.66 54.96 12.34C60.63 18.02 63.8 25.64 63.8 33.67C63.8 40.93 61.22 47.88 56.48 53.37C51.97 58.59 45.44 62.43 38.58 63.43C37.63 63.57 36.97 64.45 37.11 65.39C37.25 66.34 38.13 67 39.07 66.86C46.75 65.74 54.05 61.48 59.11 55.63C64.4 49.5 67.28 41.75 67.28 33.66C67.28 24.71 63.75 16.2 57.42 9.87L57.43 9.86Z" fill="#D0FF71"/>
</svg>
