<svg width="320" height="55" viewBox="0 0 320 55" fill="none" xmlns="http://www.w3.org/2000/svg">
  <!-- Tree/House Icon (scaled and positioned left) -->
  <g transform="translate(-57, 1) scale(0.75)">
    <path fill-rule="evenodd" clip-rule="evenodd" d="M130.901 9.86C124.571 3.53 116.061 0 107.111 0C98.1607 0 89.6507 3.53 83.3207 9.86C76.9907 16.19 73.4707 24.7 73.4707 33.65C73.4707 39.43 74.9407 45.08 77.7807 50.12C80.6207 55.16 84.7207 59.4 89.6607 62.41C92.8607 64.36 97.2007 66.41 101.021 66.41C102.281 66.41 103.531 66.18 104.671 65.62C105.851 65.04 106.781 64.18 107.461 63.06C108.531 61.29 108.861 59.12 108.861 57.09V52.6L114.861 52.63C117.111 52.67 120.411 52.55 121.881 50.53C122.841 49.21 122.951 47.23 122.971 45.65C122.981 45.03 122.971 44.4 122.971 43.78C122.971 43.34 122.961 42.9 122.961 42.46L122.941 32.34H129.591C129.981 32.34 130.351 32.22 130.661 32H130.671C130.981 31.76 131.221 31.45 131.351 31.09C131.481 30.72 131.501 30.32 131.391 29.94L131.361 29.84C131.241 29.51 131.041 29.22 130.761 29L108.311 10.96C107.971 10.69 107.561 10.54 107.121 10.54C106.681 10.54 106.271 10.69 105.931 10.96L83.4807 29C83.1707 29.24 82.9607 29.57 82.8507 29.95C82.7407 30.32 82.7607 30.71 82.8807 31.07V31.1C83.0107 31.46 83.2507 31.78 83.5707 32.01C83.8907 32.23 84.2607 32.35 84.6507 32.35H91.2907L91.2707 42.47C91.2707 42.91 91.2707 43.35 91.2607 43.79C91.2607 44.41 91.2407 45.04 91.2607 45.66C91.2907 47.24 91.3907 49.22 92.3507 50.54C93.8207 52.56 97.1207 52.68 99.3707 52.64L101.121 52.6C102.081 52.58 102.841 51.8 102.831 50.84C102.821 49.88 102.031 49.12 101.071 49.14L99.3207 49.18C96.3007 49.23 94.7707 48.77 94.7207 45.6C94.7107 45.01 94.7207 44.42 94.7207 43.83C94.7207 43.37 94.7307 42.92 94.7307 42.46L94.7507 30.65C94.7407 30.44 94.6807 30.22 94.6007 30.01C94.5207 29.82 94.4107 29.65 94.2707 29.49L94.1907 29.41C94.0207 29.24 93.8107 29.1 93.5907 29.01L93.5007 28.97C93.3007 28.89 93.0807 28.86 92.8707 28.86H89.1607L107.101 14.45L125.031 28.86H121.321C121.101 28.86 120.891 28.9 120.691 28.97L120.601 29.01C120.371 29.11 120.171 29.24 120.001 29.42C119.661 29.77 119.481 30.18 119.461 30.65L119.481 42.46C119.481 42.92 119.481 43.37 119.491 43.83C119.491 44.42 119.511 45.01 119.491 45.6C119.441 48.77 117.911 49.23 114.891 49.18H114.871L108.841 49.15V45.86L115.171 40.36C115.891 39.74 115.971 38.64 115.351 37.91C114.731 37.19 113.621 37.11 112.901 37.73L108.841 41.26V36.19L113.731 31.94C114.451 31.32 114.531 30.21 113.911 29.49C113.291 28.77 112.181 28.69 111.461 29.31L108.841 31.59V25.37C108.841 24.41 108.061 23.63 107.101 23.63C106.141 23.63 105.361 24.41 105.361 25.37V31.59L102.741 29.31C102.021 28.69 100.921 28.77 100.291 29.49C99.6707 30.21 99.7507 31.31 100.471 31.94L105.361 36.19V41.26L101.301 37.73C100.581 37.11 99.4807 37.19 98.8507 37.91C98.2307 38.63 98.3107 39.73 99.0307 40.36L105.361 45.86V57.11C105.361 58.46 105.201 60.09 104.481 61.27C104.151 61.81 103.711 62.25 103.131 62.53C102.481 62.85 101.721 62.95 101.001 62.95C97.8507 62.95 94.0807 61.07 91.4507 59.46C87.0207 56.76 83.3307 52.96 80.7907 48.44C78.2507 43.92 76.9307 38.85 76.9307 33.67C76.9307 25.64 80.0907 18.02 85.7707 12.34C91.4507 6.67 99.0707 3.5 107.101 3.5C115.131 3.5 122.751 6.66 128.431 12.34C134.101 18.02 137.271 25.64 137.271 33.67C137.271 40.93 134.691 47.88 129.951 53.37C125.441 58.59 118.911 62.43 112.051 63.43C111.101 63.57 110.441 64.45 110.581 65.39C110.721 66.34 111.601 67 112.541 66.86C120.221 65.74 127.521 61.48 132.581 55.63C137.871 49.5 140.751 41.75 140.751 33.66C140.751 24.71 137.221 16.2 130.891 9.87L130.901 9.86Z" fill="#2D6A4F"/>
  </g>
  <!-- EVERGREEN text -->
  <g transform="translate(58, 8)">
    <path d="M0 30.56V13.64H10.02V16.68H3.67V20.45H9.13V23.49H3.67V27.52H10.31V30.56H0Z" fill="#193133"/>
    <path d="M11.83 13.64H15.93L18.54 22.81C18.97 24.38 19.41 25.88 19.75 27.49H19.85C20.16 25.92 20.53 24.42 20.98 22.78L23.59 13.63H27.48L22.05 30.55H17.27L11.84 13.63L11.83 13.64Z" fill="#193133"/>
    <path d="M29.62 30.56V13.64H39.64V16.68H33.29V20.45H38.75V23.49H33.29V27.52H39.93V30.56H29.62Z" fill="#193133"/>
    <path d="M48.71 13.64C52.45 13.64 54.58 15.06 54.58 18.61C54.58 21.56 52.99 22.93 51.01 23.32V23.42C51.9 23.85 52.46 24.48 53.26 25.91L55.84 30.57H51.45L48.65 25.07C48.34 24.47 47.88 24.27 47.11 24.27H46.87V30.57H43.22V13.65H48.72L48.71 13.64ZM46.85 21.34H48.25C50.21 21.34 50.83 20.5 50.83 18.93C50.83 17.36 49.91 16.68 48.3 16.68H46.85V21.34Z" fill="#193133"/>
    <path d="M70.51 15.35L68.14 17.93C67.51 17.25 66.62 16.58 65.05 16.58C62.83 16.58 60.95 17.81 60.95 21.82C60.95 25.83 62.3 27.81 65.13 27.81C65.64 27.81 66.39 27.71 66.72 27.57V21.85H70.41V29.31C69.18 30.16 67.49 30.81 64.35 30.81C59.55 30.81 57.16 27.91 57.16 22.26C57.16 16.15 60.71 13.4 65.2 13.4C68.53 13.4 70.05 14.82 70.51 15.36V15.35Z" fill="#193133"/>
    <path d="M79.39 13.64C83.13 13.64 85.26 15.06 85.26 18.61C85.26 21.56 83.67 22.93 81.69 23.32V23.42C82.58 23.85 83.14 24.48 83.94 25.91L86.52 30.57H82.13L79.33 25.07C79.02 24.47 78.56 24.27 77.79 24.27H77.55V30.57H73.9V13.65H79.4L79.39 13.64ZM77.53 21.34H78.93C80.89 21.34 81.51 20.5 81.51 18.93C81.51 17.36 80.59 16.68 78.98 16.68H77.53V21.34Z" fill="#193133"/>
    <path d="M88.68 30.56V13.64H98.7V16.68H92.35V20.45H97.81V23.49H92.35V27.52H98.99V30.56H88.68Z" fill="#193133"/>
    <path d="M102.27 30.56V13.64H112.29V16.68H105.94V20.45H111.4V23.49H105.94V27.52H112.58V30.56H102.27Z" fill="#193133"/>
    <path d="M119.19 18.25C119.36 19.94 119.43 21.24 119.43 24.16V30.56H115.91V13.64H120.33L123.78 20.3C124.62 21.92 125.54 23.8 126.17 25.49H126.27C126.08 23.12 126.08 20.78 126.08 19V13.64H129.58V30.56H125.26L121.54 23.41C120.7 21.77 120 20.1 119.29 18.24H119.19V18.25Z" fill="#193133"/>
  </g>
  <!-- HOMES text -->
  <g transform="translate(194, 8)">
    <path d="M0 13.64V30.56H-1.93V22.86H-10.11V30.56H-12.04V13.64H-10.11V21.15H-1.93V13.64H0Z" fill="#193133" transform="translate(12.04, 0)"/>
    <path d="M11.1 30.8C7.07 30.8 4.63 28.41 4.63 22.18C4.63 15.95 7.21 13.39 11.29 13.39C15.37 13.39 17.76 15.78 17.76 22.01C17.76 28.24 15.15 30.8 11.1 30.8ZM11.22 29.06C14.02 29.06 15.78 27.42 15.78 22.18C15.78 16.94 13.97 15.13 11.15 15.13C8.33 15.13 6.61 16.75 6.61 22.01C6.61 27.27 8.42 29.06 11.22 29.06Z" fill="#193133"/>
    <path d="M29.47 25.71H29.61L34.46 13.64H37.53V30.56H35.67V15.91H35.53C34.15 19.19 31.91 24.84 30.53 28.12H28.48L23.51 15.91H23.37V30.56H21.54V13.64H24.63L29.48 25.71H29.47Z" fill="#193133"/>
    <path d="M42.09 30.56V13.64H51.07V15.35H44.02V21.12H50.22V22.83H44.02V28.84H51.41V30.55H42.09V30.56Z" fill="#193133"/>
    <path d="M62.27 26.24C62.27 22.4 54.21 23.27 54.21 17.94C54.21 15.38 56.41 13.4 59.45 13.4C61.36 13.4 62.85 14.03 63.82 14.82L62.64 16.32C61.8 15.64 60.76 15.16 59.33 15.16C57.35 15.16 56.17 16.27 56.17 17.82C56.17 21.73 64.23 20.91 64.23 26.12C64.23 28.68 62.2 30.8 58.58 30.8C56.02 30.8 54.26 29.88 53.29 29.01L54.42 27.47C55.36 28.24 56.71 29.06 58.74 29.06C61.03 29.06 62.26 27.8 62.26 26.24H62.27Z" fill="#193133"/>
  </g>
</svg>
