<svg width="143" height="143" viewBox="0 0 143 143" fill="none" xmlns="http://www.w3.org/2000/svg">
<path d="M32.4844 38.4928H54.6754L43.5799 27.4038L32.4844 38.4928Z" fill="#F2CF37"/>
<path d="M80.5261 64.3501L67.6366 51.4541H34.9805L47.87 64.3501H80.5261Z" fill="#F2CF37"/>
<path d="M60.7988 77.272L73.7599 90.233H106.416L93.4549 77.272H60.7988Z" fill="#F2CF37"/>
<path d="M110.242 103.162H86.6797L98.4642 114.94L110.242 103.162Z" fill="#F2CF37"/>
<path d="M9.11888 61.8611L0 70.98L71.209 142.189L80.3279 133.07L9.11888 61.8611Z" fill="black"/>
<path d="M70.9802 -0.00022818L61.8613 9.11865L133.07 80.3277L142.189 71.2088L70.9802 -0.00022818Z" fill="black"/>
<path d="M111.785 77.2719L111.752 77.2458H111.661L98.7652 64.3498L85.8692 51.4538H85.9667L85.9017 51.3888H85.8042L72.9082 38.4927L53.4536 19.0382L52.6996 18.2842L43.5801 27.4037L54.6756 38.4927L67.6366 51.4538L80.5262 64.3498L93.4547 77.2719L106.416 90.2329L114.794 98.6114L123.907 89.4919L111.687 77.2719H111.785Z" fill="black"/>
<path d="M47.8684 64.3501L34.9789 51.4541L27.2504 43.7256L18.2349 52.7411L18.1309 52.8451L89.3451 124.059L89.4491 123.955L98.4646 114.94L86.6801 103.162L73.758 90.2332L60.797 77.2722L47.8684 64.3501Z" fill="black"/>
</svg>
